<?xml version="1.0" encoding="us-ascii" standalone="no"?><svg xmlns="http://www.w3.org/2000/svg" xmlns:xlink="http://www.w3.org/1999/xlink" contentStyleType="text/css" height="1042px" preserveAspectRatio="none" style="width:7443px;height:1042px;background:#FFFFFF;" version="1.1" viewBox="0 0 7443 1042" width="7443px" zoomAndPan="magnify"><defs/><g><!--cluster com--><g id="cluster_com"><path d="M8.5,397 L43.5,397 A3.75,3.75 0 0 1 46,399.5 L53,419.2969 L7433.5,419.2969 A2.5,2.5 0 0 1 7436,421.7969 L7436,1033 A2.5,2.5 0 0 1 7433.5,1035.5 L8.5,1035.5 A2.5,2.5 0 0 1 6,1033 L6,399.5 A2.5,2.5 0 0 1 8.5,397 " fill="none" style="stroke:#000000;stroke-width:1.5;"/><line style="stroke:#000000;stroke-width:1.5;" x1="6" x2="53" y1="419.2969" y2="419.2969"/><text fill="#000000" font-family="sans-serif" font-size="14" font-weight="bold" lengthAdjust="spacing" textLength="34" x="10" y="411.9951">com</text></g><!--cluster portfolio--><g id="cluster_portfolio"><path d="M32.5,440 L105.5,440 A3.75,3.75 0 0 1 108,442.5 L115,462.2969 L7409.5,462.2969 A2.5,2.5 0 0 1 7412,464.7969 L7412,1009 A2.5,2.5 0 0 1 7409.5,1011.5 L32.5,1011.5 A2.5,2.5 0 0 1 30,1009 L30,442.5 A2.5,2.5 0 0 1 32.5,440 " fill="none" style="stroke:#000000;stroke-width:1.5;"/><line style="stroke:#000000;stroke-width:1.5;" x1="30" x2="115" y1="462.2969" y2="462.2969"/><text fill="#000000" font-family="sans-serif" font-size="14" font-weight="bold" lengthAdjust="spacing" textLength="72" x="34" y="454.9951">portfolio</text></g><!--cluster housekeeping--><g id="cluster_housekeeping"><path d="M56.5,483 L167.5,483 A3.75,3.75 0 0 1 170,485.5 L177,505.2969 L7385.5,505.2969 A2.5,2.5 0 0 1 7388,507.7969 L7388,985 A2.5,2.5 0 0 1 7385.5,987.5 L56.5,987.5 A2.5,2.5 0 0 1 54,985 L54,485.5 A2.5,2.5 0 0 1 56.5,483 " fill="none" style="stroke:#000000;stroke-width:1.5;"/><line style="stroke:#000000;stroke-width:1.5;" x1="54" x2="177" y1="505.2969" y2="505.2969"/><text fill="#000000" font-family="sans-serif" font-size="14" font-weight="bold" lengthAdjust="spacing" textLength="110" x="58" y="497.9951">housekeeping</text></g><!--cluster services--><g id="cluster_services"><path d="M6022.5,569 L6089.5,569 A3.75,3.75 0 0 1 6092,571.5 L6099,591.2969 L7361.5,591.2969 A2.5,2.5 0 0 1 7364,593.7969 L7364,960.5 A2.5,2.5 0 0 1 7361.5,963 L6022.5,963 A2.5,2.5 0 0 1 6020,960.5 L6020,571.5 A2.5,2.5 0 0 1 6022.5,569 " fill="none" style="stroke:#000000;stroke-width:1.5;"/><line style="stroke:#000000;stroke-width:1.5;" x1="6020" x2="6099" y1="591.2969" y2="591.2969"/><text fill="#000000" font-family="sans-serif" font-size="14" font-weight="bold" lengthAdjust="spacing" textLength="66" x="6024" y="583.9951">services</text></g><!--cluster exceptions--><g id="cluster_exceptions"><path d="M6863.5,618 L6952.5,618 A3.75,3.75 0 0 1 6955,620.5 L6962,640.2969 L7337.5,640.2969 A2.5,2.5 0 0 1 7340,642.7969 L7340,936.5 A2.5,2.5 0 0 1 7337.5,939 L6863.5,939 A2.5,2.5 0 0 1 6861,936.5 L6861,620.5 A2.5,2.5 0 0 1 6863.5,618 " fill="none" style="stroke:#000000;stroke-width:1.5;"/><line style="stroke:#000000;stroke-width:1.5;" x1="6861" x2="6962" y1="640.2969" y2="640.2969"/><text fill="#000000" font-family="sans-serif" font-size="14" font-weight="bold" lengthAdjust="spacing" textLength="88" x="6865" y="632.9951">exceptions</text></g><!--cluster repositories--><g id="cluster_repositories"><path d="M5591.5,618 L5690.5,618 A3.75,3.75 0 0 1 5693,620.5 L5700,640.2969 L5993.5,640.2969 A2.5,2.5 0 0 1 5996,642.7969 L5996,714.5 A2.5,2.5 0 0 1 5993.5,717 L5591.5,717 A2.5,2.5 0 0 1 5589,714.5 L5589,620.5 A2.5,2.5 0 0 1 5591.5,618 " fill="none" style="stroke:#000000;stroke-width:1.5;"/><line style="stroke:#000000;stroke-width:1.5;" x1="5589" x2="5700" y1="640.2969" y2="640.2969"/><text fill="#000000" font-family="sans-serif" font-size="14" font-weight="bold" lengthAdjust="spacing" textLength="98" x="5593" y="632.9951">repositories</text></g><!--cluster config--><g id="cluster_config"><path d="M5089.5,601.5 L5141.5,601.5 A3.75,3.75 0 0 1 5144,604 L5151,623.7969 L5562.5,623.7969 A2.5,2.5 0 0 1 5565,626.2969 L5565,944.5 A2.5,2.5 0 0 1 5562.5,947 L5089.5,947 A2.5,2.5 0 0 1 5087,944.5 L5087,604 A2.5,2.5 0 0 1 5089.5,601.5 " fill="none" style="stroke:#000000;stroke-width:1.5;"/><line style="stroke:#000000;stroke-width:1.5;" x1="5087" x2="5151" y1="623.7969" y2="623.7969"/><text fill="#000000" font-family="sans-serif" font-size="14" font-weight="bold" lengthAdjust="spacing" textLength="51" x="5091" y="616.4951">config</text></g><!--cluster DTOs--><g id="cluster_DTOs"><path d="M4444.5,553 L4488.5,553 A3.75,3.75 0 0 1 4491,555.5 L4498,575.2969 L5060.5,575.2969 A2.5,2.5 0 0 1 5063,577.7969 L5063,961 A2.5,2.5 0 0 1 5060.5,963.5 L4444.5,963.5 A2.5,2.5 0 0 1 4442,961 L4442,555.5 A2.5,2.5 0 0 1 4444.5,553 " fill="none" style="stroke:#000000;stroke-width:1.5;"/><line style="stroke:#000000;stroke-width:1.5;" x1="4442" x2="4498" y1="575.2969" y2="575.2969"/><text fill="#000000" font-family="sans-serif" font-size="14" font-weight="bold" lengthAdjust="spacing" textLength="43" x="4446" y="567.9951">DTOs</text></g><!--cluster models--><g id="cluster_models"><path d="M2877.5,526 L2936.5,526 A3.75,3.75 0 0 1 2939,528.5 L2946,548.2969 L4415.5,548.2969 A2.5,2.5 0 0 1 4418,550.7969 L4418,804 A2.5,2.5 0 0 1 4415.5,806.5 L2877.5,806.5 A2.5,2.5 0 0 1 2875,804 L2875,528.5 A2.5,2.5 0 0 1 2877.5,526 " fill="none" style="stroke:#000000;stroke-width:1.5;"/><line style="stroke:#000000;stroke-width:1.5;" x1="2875" x2="2946" y1="548.2969" y2="548.2969"/><text fill="#000000" font-family="sans-serif" font-size="14" font-weight="bold" lengthAdjust="spacing" textLength="58" x="2879" y="540.9951">models</text></g><!--cluster enums--><g id="cluster_enums"><path d="M3865.5,569 L3919.5,569 A3.75,3.75 0 0 1 3922,571.5 L3929,591.2969 L4391.5,591.2969 A2.5,2.5 0 0 1 4394,593.7969 L4394,763.5 A2.5,2.5 0 0 1 4391.5,766 L3865.5,766 A2.5,2.5 0 0 1 3863,763.5 L3863,571.5 A2.5,2.5 0 0 1 3865.5,569 " fill="none" style="stroke:#000000;stroke-width:1.5;"/><line style="stroke:#000000;stroke-width:1.5;" x1="3863" x2="3929" y1="591.2969" y2="591.2969"/><text fill="#000000" font-family="sans-serif" font-size="14" font-weight="bold" lengthAdjust="spacing" textLength="53" x="3867" y="583.9951">enums</text></g><!--cluster resource--><g id="cluster_resource"><path d="M309.5,534.5 L380.5,534.5 A3.75,3.75 0 0 1 383,537 L390,556.7969 L2848.5,556.7969 A2.5,2.5 0 0 1 2851,559.2969 L2851,779.5 A2.5,2.5 0 0 1 2848.5,782 L309.5,782 A2.5,2.5 0 0 1 307,779.5 L307,537 A2.5,2.5 0 0 1 309.5,534.5 " fill="none" style="stroke:#000000;stroke-width:1.5;"/><line style="stroke:#000000;stroke-width:1.5;" x1="307" x2="390" y1="556.7969" y2="556.7969"/><text fill="#000000" font-family="sans-serif" font-size="14" font-weight="bold" lengthAdjust="spacing" textLength="70" x="311" y="549.4951">resource</text></g><!--cluster exceptions--><g id="cluster_exceptions"><path d="M1835.5,577.5 L1924.5,577.5 A3.75,3.75 0 0 1 1927,580 L1934,599.7969 L2824.5,599.7969 A2.5,2.5 0 0 1 2827,602.2969 L2827,755 A2.5,2.5 0 0 1 2824.5,757.5 L1835.5,757.5 A2.5,2.5 0 0 1 1833,755 L1833,580 A2.5,2.5 0 0 1 1835.5,577.5 " fill="none" style="stroke:#000000;stroke-width:1.5;"/><line style="stroke:#000000;stroke-width:1.5;" x1="1833" x2="1934" y1="599.7969" y2="599.7969"/><text fill="#000000" font-family="sans-serif" font-size="14" font-weight="bold" lengthAdjust="spacing" textLength="88" x="1837" y="592.4951">exceptions</text></g><!--cluster jobs--><g id="cluster_jobs"><path d="M1451.5,577.5 L1486.5,577.5 A3.75,3.75 0 0 1 1489,580 L1496,599.7969 L1806.5,599.7969 A2.5,2.5 0 0 1 1809,602.2969 L1809,755 A2.5,2.5 0 0 1 1806.5,757.5 L1451.5,757.5 A2.5,2.5 0 0 1 1449,755 L1449,580 A2.5,2.5 0 0 1 1451.5,577.5 " fill="none" style="stroke:#000000;stroke-width:1.5;"/><line style="stroke:#000000;stroke-width:1.5;" x1="1449" x2="1496" y1="599.7969" y2="599.7969"/><text fill="#000000" font-family="sans-serif" font-size="14" font-weight="bold" lengthAdjust="spacing" textLength="34" x="1453" y="592.4951">jobs</text></g><!--cluster org--><g id="cluster_org"><path d="M3019.5,6 L3047.5,6 A3.75,3.75 0 0 1 3050,8.5 L3057,28.2969 L3372.5,28.2969 A2.5,2.5 0 0 1 3375,30.7969 L3375,370.5 A2.5,2.5 0 0 1 3372.5,373 L3019.5,373 A2.5,2.5 0 0 1 3017,370.5 L3017,8.5 A2.5,2.5 0 0 1 3019.5,6 " fill="none" style="stroke:#000000;stroke-width:1.5;"/><line style="stroke:#000000;stroke-width:1.5;" x1="3017" x2="3057" y1="28.2969" y2="28.2969"/><text fill="#000000" font-family="sans-serif" font-size="14" font-weight="bold" lengthAdjust="spacing" textLength="27" x="3021" y="20.9951">org</text></g><!--cluster springframework--><g id="cluster_springframework"><path d="M3043.5,49 L3182.5,49 A3.75,3.75 0 0 1 3185,51.5 L3192,71.2969 L3348.5,71.2969 A2.5,2.5 0 0 1 3351,73.7969 L3351,346.5 A2.5,2.5 0 0 1 3348.5,349 L3043.5,349 A2.5,2.5 0 0 1 3041,346.5 L3041,51.5 A2.5,2.5 0 0 1 3043.5,49 " fill="none" style="stroke:#000000;stroke-width:1.5;"/><line style="stroke:#000000;stroke-width:1.5;" x1="3041" x2="3192" y1="71.2969" y2="71.2969"/><text fill="#000000" font-family="sans-serif" font-size="14" font-weight="bold" lengthAdjust="spacing" textLength="138" x="3045" y="63.9951">springframework</text></g><!--cluster data--><g id="cluster_data"><path d="M3067.5,92 L3106.5,92 A3.75,3.75 0 0 1 3109,94.5 L3116,114.2969 L3324.5,114.2969 A2.5,2.5 0 0 1 3327,116.7969 L3327,322.5 A2.5,2.5 0 0 1 3324.5,325 L3067.5,325 A2.5,2.5 0 0 1 3065,322.5 L3065,94.5 A2.5,2.5 0 0 1 3067.5,92 " fill="none" style="stroke:#000000;stroke-width:1.5;"/><line style="stroke:#000000;stroke-width:1.5;" x1="3065" x2="3116" y1="114.2969" y2="114.2969"/><text fill="#000000" font-family="sans-serif" font-size="14" font-weight="bold" lengthAdjust="spacing" textLength="38" x="3069" y="106.9951">data</text></g><!--cluster jpa--><g id="cluster_jpa"><path d="M3091.5,135 L3117.5,135 A3.75,3.75 0 0 1 3120,137.5 L3127,157.2969 L3300.5,157.2969 A2.5,2.5 0 0 1 3303,159.7969 L3303,298.5 A2.5,2.5 0 0 1 3300.5,301 L3091.5,301 A2.5,2.5 0 0 1 3089,298.5 L3089,137.5 A2.5,2.5 0 0 1 3091.5,135 " fill="none" style="stroke:#000000;stroke-width:1.5;"/><line style="stroke:#000000;stroke-width:1.5;" x1="3089" x2="3127" y1="157.2969" y2="157.2969"/><text fill="#000000" font-family="sans-serif" font-size="14" font-weight="bold" lengthAdjust="spacing" textLength="25" x="3093" y="149.9951">jpa</text></g><!--cluster repository--><g id="cluster_repository"><path d="M3115.5,178 L3200.5,178 A3.75,3.75 0 0 1 3203,180.5 L3210,200.2969 L3276.5,200.2969 A2.5,2.5 0 0 1 3279,202.7969 L3279,274.5 A2.5,2.5 0 0 1 3276.5,277 L3115.5,277 A2.5,2.5 0 0 1 3113,274.5 L3113,180.5 A2.5,2.5 0 0 1 3115.5,178 " fill="none" style="stroke:#000000;stroke-width:1.5;"/><line style="stroke:#000000;stroke-width:1.5;" x1="3113" x2="3210" y1="200.2969" y2="200.2969"/><text fill="#000000" font-family="sans-serif" font-size="14" font-weight="bold" lengthAdjust="spacing" textLength="84" x="3117" y="192.9951">repository</text></g><!--cluster java--><g id="cluster_java"><path d="M3401.5,135 L3436.5,135 A3.75,3.75 0 0 1 3439,137.5 L3446,157.2969 L3592.5,157.2969 A2.5,2.5 0 0 1 3595,159.7969 L3595,298.5 A2.5,2.5 0 0 1 3592.5,301 L3401.5,301 A2.5,2.5 0 0 1 3399,298.5 L3399,137.5 A2.5,2.5 0 0 1 3401.5,135 " fill="none" style="stroke:#000000;stroke-width:1.5;"/><line style="stroke:#000000;stroke-width:1.5;" x1="3399" x2="3446" y1="157.2969" y2="157.2969"/><text fill="#000000" font-family="sans-serif" font-size="14" font-weight="bold" lengthAdjust="spacing" textLength="34" x="3403" y="149.9951">java</text></g><!--cluster io--><g id="cluster_io"><path d="M3425.5,178 L3441.5,178 A3.75,3.75 0 0 1 3444,180.5 L3451,200.2969 L3568.5,200.2969 A2.5,2.5 0 0 1 3571,202.7969 L3571,274.5 A2.5,2.5 0 0 1 3568.5,277 L3425.5,277 A2.5,2.5 0 0 1 3423,274.5 L3423,180.5 A2.5,2.5 0 0 1 3425.5,178 " fill="none" style="stroke:#000000;stroke-width:1.5;"/><line style="stroke:#000000;stroke-width:1.5;" x1="3423" x2="3451" y1="200.2969" y2="200.2969"/><text fill="#000000" font-family="sans-serif" font-size="14" font-weight="bold" lengthAdjust="spacing" textLength="15" x="3427" y="192.9951">io</text></g><!--class HousekeepingApplication--><g id="elem_HousekeepingApplication"><rect codeLine="8" fill="#F1F1F1" height="64.2969" id="HousekeepingApplication" rx="2.5" ry="2.5" style="stroke:#181818;stroke-width:0.5;" width="217" x="70.5" y="645"/><ellipse cx="85.5" cy="661" fill="#ADD1B2" rx="11" ry="11" style="stroke:#181818;stroke-width:1.0;"/><path d="M87.8438,656.6719 C86.9063,656.2344 86.3125,656.0938 85.4375,656.0938 C82.8125,656.0938 80.8125,658.1719 80.8125,660.8906 L80.8125,662.0156 C80.8125,664.5938 82.9219,666.4844 85.8125,666.4844 C87.0313,666.4844 88.1875,666.1875 88.9375,665.6406 C89.5156,665.2344 89.8438,664.7813 89.8438,664.3906 C89.8438,663.9375 89.4531,663.5469 88.9844,663.5469 C88.7656,663.5469 88.5625,663.625 88.375,663.8125 C87.9219,664.2969 87.9219,664.2969 87.7344,664.3906 C87.3125,664.6563 86.625,664.7813 85.8594,664.7813 C83.8125,664.7813 82.5156,663.6875 82.5156,661.9844 L82.5156,660.8906 C82.5156,659.1094 83.7656,657.7969 85.5,657.7969 C86.0781,657.7969 86.6875,657.9531 87.1563,658.2031 C87.6406,658.4844 87.8125,658.7031 87.9063,659.1094 C87.9688,659.5156 88,659.6406 88.1406,659.7656 C88.2813,659.9063 88.5156,660.0156 88.7344,660.0156 C89,660.0156 89.2656,659.875 89.4375,659.6563 C89.5469,659.5 89.5781,659.3125 89.5781,658.8906 L89.5781,657.4688 C89.5781,657.0313 89.5625,656.9063 89.4688,656.75 C89.3125,656.4844 89.0313,656.3438 88.7344,656.3438 C88.4375,656.3438 88.2344,656.4375 88.0156,656.75 L87.8438,656.6719 Z " fill="#000000"/><text fill="#000000" font-family="sans-serif" font-size="14" lengthAdjust="spacing" textLength="185" x="99.5" y="665.8467">HousekeepingApplication</text><line style="stroke:#181818;stroke-width:0.5;" x1="71.5" x2="286.5" y1="677" y2="677"/><line style="stroke:#181818;stroke-width:0.5;" x1="71.5" x2="286.5" y1="685" y2="685"/><ellipse cx="81.5" cy="698.6484" fill="#84BE84" rx="3" ry="3" style="stroke:#038048;stroke-width:1.0;"/><text fill="#000000" font-family="sans-serif" font-size="14" lengthAdjust="spacing" text-decoration="underline" textLength="133" x="90.5" y="701.9951">void main(String[])</text></g><!--class AccommodationServ--><g id="elem_AccommodationServ"><rect codeLine="1" fill="#F1F1F1" height="129.4844" id="AccommodationServ" rx="2.5" ry="2.5" style="stroke:#181818;stroke-width:0.5;" width="426" x="6419" y="612.5"/><ellipse cx="6552.75" cy="628.5" fill="#ADD1B2" rx="11" ry="11" style="stroke:#181818;stroke-width:1.0;"/><path d="M6555.0938,624.1719 C6554.1563,623.7344 6553.5625,623.5938 6552.6875,623.5938 C6550.0625,623.5938 6548.0625,625.6719 6548.0625,628.3906 L6548.0625,629.5156 C6548.0625,632.0938 6550.1719,633.9844 6553.0625,633.9844 C6554.2813,633.9844 6555.4375,633.6875 6556.1875,633.1406 C6556.7656,632.7344 6557.0938,632.2813 6557.0938,631.8906 C6557.0938,631.4375 6556.7031,631.0469 6556.2344,631.0469 C6556.0156,631.0469 6555.8125,631.125 6555.625,631.3125 C6555.1719,631.7969 6555.1719,631.7969 6554.9844,631.8906 C6554.5625,632.1563 6553.875,632.2813 6553.1094,632.2813 C6551.0625,632.2813 6549.7656,631.1875 6549.7656,629.4844 L6549.7656,628.3906 C6549.7656,626.6094 6551.0156,625.2969 6552.75,625.2969 C6553.3281,625.2969 6553.9375,625.4531 6554.4063,625.7031 C6554.8906,625.9844 6555.0625,626.2031 6555.1563,626.6094 C6555.2188,627.0156 6555.25,627.1406 6555.3906,627.2656 C6555.5313,627.4063 6555.7656,627.5156 6555.9844,627.5156 C6556.25,627.5156 6556.5156,627.375 6556.6875,627.1563 C6556.7969,627 6556.8281,626.8125 6556.8281,626.3906 L6556.8281,624.9688 C6556.8281,624.5313 6556.8125,624.4063 6556.7188,624.25 C6556.5625,623.9844 6556.2813,623.8438 6555.9844,623.8438 C6555.6875,623.8438 6555.4844,623.9375 6555.2656,624.25 L6555.0938,624.1719 Z " fill="#000000"/><text fill="#000000" font-family="sans-serif" font-size="14" lengthAdjust="spacing" textLength="150" x="6573.25" y="633.3467">AccommodationServ</text><line style="stroke:#181818;stroke-width:0.5;" x1="6420" x2="6844" y1="644.5" y2="644.5"/><rect fill="none" height="6" style="stroke:#C82930;stroke-width:1.0;" width="6" x="6427" y="655.1484"/><text fill="#000000" font-family="sans-serif" font-size="14" lengthAdjust="spacing" textLength="314" x="6439" y="661.4951">AccommodationRepo accommodationRepo</text><line style="stroke:#181818;stroke-width:0.5;" x1="6420" x2="6844" y1="668.7969" y2="668.7969"/><ellipse cx="6430" cy="682.4453" fill="#84BE84" rx="3" ry="3" style="stroke:#038048;stroke-width:1.0;"/><text fill="#000000" font-family="sans-serif" font-size="14" lengthAdjust="spacing" textLength="351" x="6439" y="685.792">List&lt;Accommodation&gt; findAllAccommodations()</text><ellipse cx="6430" cy="698.7422" fill="#84BE84" rx="3" ry="3" style="stroke:#038048;stroke-width:1.0;"/><text fill="#000000" font-family="sans-serif" font-size="14" lengthAdjust="spacing" textLength="310" x="6439" y="702.0889">Optional&lt;Accommodation&gt; findById(Long)</text><ellipse cx="6430" cy="715.0391" fill="#84BE84" rx="3" ry="3" style="stroke:#038048;stroke-width:1.0;"/><text fill="#000000" font-family="sans-serif" font-size="14" lengthAdjust="spacing" textLength="400" x="6439" y="718.3857">Accommodation saveAccommodation(Accommodation)</text><ellipse cx="6430" cy="731.3359" fill="#84BE84" rx="3" ry="3" style="stroke:#038048;stroke-width:1.0;"/><text fill="#000000" font-family="sans-serif" font-size="14" lengthAdjust="spacing" textLength="244" x="6439" y="734.6826">void deleteAccommodation(Long)</text></g><!--class ReservationServ--><g id="elem_ReservationServ"><rect codeLine="11" fill="#F1F1F1" height="145.7813" id="ReservationServ" rx="2.5" ry="2.5" style="stroke:#181818;stroke-width:0.5;" width="348" x="6036" y="604"/><ellipse cx="6146.75" cy="620" fill="#ADD1B2" rx="11" ry="11" style="stroke:#181818;stroke-width:1.0;"/><path d="M6149.0938,615.6719 C6148.1563,615.2344 6147.5625,615.0938 6146.6875,615.0938 C6144.0625,615.0938 6142.0625,617.1719 6142.0625,619.8906 L6142.0625,621.0156 C6142.0625,623.5938 6144.1719,625.4844 6147.0625,625.4844 C6148.2813,625.4844 6149.4375,625.1875 6150.1875,624.6406 C6150.7656,624.2344 6151.0938,623.7813 6151.0938,623.3906 C6151.0938,622.9375 6150.7031,622.5469 6150.2344,622.5469 C6150.0156,622.5469 6149.8125,622.625 6149.625,622.8125 C6149.1719,623.2969 6149.1719,623.2969 6148.9844,623.3906 C6148.5625,623.6563 6147.875,623.7813 6147.1094,623.7813 C6145.0625,623.7813 6143.7656,622.6875 6143.7656,620.9844 L6143.7656,619.8906 C6143.7656,618.1094 6145.0156,616.7969 6146.75,616.7969 C6147.3281,616.7969 6147.9375,616.9531 6148.4063,617.2031 C6148.8906,617.4844 6149.0625,617.7031 6149.1563,618.1094 C6149.2188,618.5156 6149.25,618.6406 6149.3906,618.7656 C6149.5313,618.9063 6149.7656,619.0156 6149.9844,619.0156 C6150.25,619.0156 6150.5156,618.875 6150.6875,618.6563 C6150.7969,618.5 6150.8281,618.3125 6150.8281,617.8906 L6150.8281,616.4688 C6150.8281,616.0313 6150.8125,615.9063 6150.7188,615.75 C6150.5625,615.4844 6150.2813,615.3438 6149.9844,615.3438 C6149.6875,615.3438 6149.4844,615.4375 6149.2656,615.75 L6149.0938,615.6719 Z " fill="#000000"/><text fill="#000000" font-family="sans-serif" font-size="14" lengthAdjust="spacing" textLength="118" x="6167.25" y="624.8467">ReservationServ</text><line style="stroke:#181818;stroke-width:0.5;" x1="6037" x2="6383" y1="636" y2="636"/><rect fill="none" height="6" style="stroke:#C82930;stroke-width:1.0;" width="6" x="6044" y="646.6484"/><text fill="#000000" font-family="sans-serif" font-size="14" lengthAdjust="spacing" textLength="248" x="6056" y="652.9951">ReservationRepo reservationRepo</text><line style="stroke:#181818;stroke-width:0.5;" x1="6037" x2="6383" y1="660.2969" y2="660.2969"/><ellipse cx="6047" cy="673.9453" fill="#84BE84" rx="3" ry="3" style="stroke:#038048;stroke-width:1.0;"/><text fill="#000000" font-family="sans-serif" font-size="14" lengthAdjust="spacing" textLength="280" x="6056" y="677.292">List&lt;Reservation&gt; findAllReservation()</text><ellipse cx="6047" cy="690.2422" fill="#84BE84" rx="3" ry="3" style="stroke:#038048;stroke-width:1.0;"/><text fill="#000000" font-family="sans-serif" font-size="14" lengthAdjust="spacing" textLength="278" x="6056" y="693.5889">Optional&lt;Reservation&gt; findById(Long)</text><ellipse cx="6047" cy="706.5391" fill="#84BE84" rx="3" ry="3" style="stroke:#038048;stroke-width:1.0;"/><text fill="#000000" font-family="sans-serif" font-size="14" lengthAdjust="spacing" textLength="304" x="6056" y="709.8857">Reservation saveReservation(Reservation)</text><ellipse cx="6047" cy="722.8359" fill="#84BE84" rx="3" ry="3" style="stroke:#038048;stroke-width:1.0;"/><text fill="#000000" font-family="sans-serif" font-size="14" lengthAdjust="spacing" textLength="212" x="6056" y="726.1826">void deleteReservation(Long)</text><ellipse cx="6047" cy="739.1328" fill="#84BE84" rx="3" ry="3" style="stroke:#038048;stroke-width:1.0;"/><text fill="#000000" font-family="sans-serif" font-size="14" lengthAdjust="spacing" textLength="322" x="6056" y="742.4795">void saveListReservation(List&lt;Reservation&gt;)</text></g><!--class IllegalArgException--><g id="elem_IllegalArgException"><rect codeLine="36" fill="#F1F1F1" height="48" id="IllegalArgException" rx="2.5" ry="2.5" style="stroke:#181818;stroke-width:0.5;" width="172" x="6877" y="875"/><ellipse cx="6892" cy="891" fill="#ADD1B2" rx="11" ry="11" style="stroke:#181818;stroke-width:1.0;"/><path d="M6894.3438,886.6719 C6893.4063,886.2344 6892.8125,886.0938 6891.9375,886.0938 C6889.3125,886.0938 6887.3125,888.1719 6887.3125,890.8906 L6887.3125,892.0156 C6887.3125,894.5938 6889.4219,896.4844 6892.3125,896.4844 C6893.5313,896.4844 6894.6875,896.1875 6895.4375,895.6406 C6896.0156,895.2344 6896.3438,894.7813 6896.3438,894.3906 C6896.3438,893.9375 6895.9531,893.5469 6895.4844,893.5469 C6895.2656,893.5469 6895.0625,893.625 6894.875,893.8125 C6894.4219,894.2969 6894.4219,894.2969 6894.2344,894.3906 C6893.8125,894.6563 6893.125,894.7813 6892.3594,894.7813 C6890.3125,894.7813 6889.0156,893.6875 6889.0156,891.9844 L6889.0156,890.8906 C6889.0156,889.1094 6890.2656,887.7969 6892,887.7969 C6892.5781,887.7969 6893.1875,887.9531 6893.6563,888.2031 C6894.1406,888.4844 6894.3125,888.7031 6894.4063,889.1094 C6894.4688,889.5156 6894.5,889.6406 6894.6406,889.7656 C6894.7813,889.9063 6895.0156,890.0156 6895.2344,890.0156 C6895.5,890.0156 6895.7656,889.875 6895.9375,889.6563 C6896.0469,889.5 6896.0781,889.3125 6896.0781,888.8906 L6896.0781,887.4688 C6896.0781,887.0313 6896.0625,886.9063 6895.9688,886.75 C6895.8125,886.4844 6895.5313,886.3438 6895.2344,886.3438 C6894.9375,886.3438 6894.7344,886.4375 6894.5156,886.75 L6894.3438,886.6719 Z " fill="#000000"/><text fill="#000000" font-family="sans-serif" font-size="14" lengthAdjust="spacing" textLength="140" x="6906" y="895.8467">IllegalArgException</text><line style="stroke:#181818;stroke-width:0.5;" x1="6878" x2="7048" y1="907" y2="907"/><line style="stroke:#181818;stroke-width:0.5;" x1="6878" x2="7048" y1="915" y2="915"/></g><!--class ResourceNotFoundException--><g id="elem_ResourceNotFoundException"><rect codeLine="121" fill="#F1F1F1" height="48" id="ResourceNotFoundException" rx="2.5" ry="2.5" style="stroke:#181818;stroke-width:0.5;" width="240" x="7084" y="875"/><ellipse cx="7099" cy="891" fill="#ADD1B2" rx="11" ry="11" style="stroke:#181818;stroke-width:1.0;"/><path d="M7101.3438,886.6719 C7100.4063,886.2344 7099.8125,886.0938 7098.9375,886.0938 C7096.3125,886.0938 7094.3125,888.1719 7094.3125,890.8906 L7094.3125,892.0156 C7094.3125,894.5938 7096.4219,896.4844 7099.3125,896.4844 C7100.5313,896.4844 7101.6875,896.1875 7102.4375,895.6406 C7103.0156,895.2344 7103.3438,894.7813 7103.3438,894.3906 C7103.3438,893.9375 7102.9531,893.5469 7102.4844,893.5469 C7102.2656,893.5469 7102.0625,893.625 7101.875,893.8125 C7101.4219,894.2969 7101.4219,894.2969 7101.2344,894.3906 C7100.8125,894.6563 7100.125,894.7813 7099.3594,894.7813 C7097.3125,894.7813 7096.0156,893.6875 7096.0156,891.9844 L7096.0156,890.8906 C7096.0156,889.1094 7097.2656,887.7969 7099,887.7969 C7099.5781,887.7969 7100.1875,887.9531 7100.6563,888.2031 C7101.1406,888.4844 7101.3125,888.7031 7101.4063,889.1094 C7101.4688,889.5156 7101.5,889.6406 7101.6406,889.7656 C7101.7813,889.9063 7102.0156,890.0156 7102.2344,890.0156 C7102.5,890.0156 7102.7656,889.875 7102.9375,889.6563 C7103.0469,889.5 7103.0781,889.3125 7103.0781,888.8906 L7103.0781,887.4688 C7103.0781,887.0313 7103.0625,886.9063 7102.9688,886.75 C7102.8125,886.4844 7102.5313,886.3438 7102.2344,886.3438 C7101.9375,886.3438 7101.7344,886.4375 7101.5156,886.75 L7101.3438,886.6719 Z " fill="#000000"/><text fill="#000000" font-family="sans-serif" font-size="14" lengthAdjust="spacing" textLength="208" x="7113" y="895.8467">ResourceNotFoundException</text><line style="stroke:#181818;stroke-width:0.5;" x1="7085" x2="7323" y1="907" y2="907"/><line style="stroke:#181818;stroke-width:0.5;" x1="7085" x2="7323" y1="915" y2="915"/></g><!--class RuntimeException--><g id="elem_RuntimeException"><rect fill="#F1F1F1" height="48" id="RuntimeException" rx="2.5" ry="2.5" style="stroke:#181818;stroke-width:0.5;" width="166" x="7000" y="653"/><ellipse cx="7015" cy="669" fill="#ADD1B2" rx="11" ry="11" style="stroke:#181818;stroke-width:1.0;"/><path d="M7017.3438,664.6719 C7016.4063,664.2344 7015.8125,664.0938 7014.9375,664.0938 C7012.3125,664.0938 7010.3125,666.1719 7010.3125,668.8906 L7010.3125,670.0156 C7010.3125,672.5938 7012.4219,674.4844 7015.3125,674.4844 C7016.5313,674.4844 7017.6875,674.1875 7018.4375,673.6406 C7019.0156,673.2344 7019.3438,672.7813 7019.3438,672.3906 C7019.3438,671.9375 7018.9531,671.5469 7018.4844,671.5469 C7018.2656,671.5469 7018.0625,671.625 7017.875,671.8125 C7017.4219,672.2969 7017.4219,672.2969 7017.2344,672.3906 C7016.8125,672.6563 7016.125,672.7813 7015.3594,672.7813 C7013.3125,672.7813 7012.0156,671.6875 7012.0156,669.9844 L7012.0156,668.8906 C7012.0156,667.1094 7013.2656,665.7969 7015,665.7969 C7015.5781,665.7969 7016.1875,665.9531 7016.6563,666.2031 C7017.1406,666.4844 7017.3125,666.7031 7017.4063,667.1094 C7017.4688,667.5156 7017.5,667.6406 7017.6406,667.7656 C7017.7813,667.9063 7018.0156,668.0156 7018.2344,668.0156 C7018.5,668.0156 7018.7656,667.875 7018.9375,667.6563 C7019.0469,667.5 7019.0781,667.3125 7019.0781,666.8906 L7019.0781,665.4688 C7019.0781,665.0313 7019.0625,664.9063 7018.9688,664.75 C7018.8125,664.4844 7018.5313,664.3438 7018.2344,664.3438 C7017.9375,664.3438 7017.7344,664.4375 7017.5156,664.75 L7017.3438,664.6719 Z " fill="#000000"/><text fill="#000000" font-family="sans-serif" font-size="14" lengthAdjust="spacing" textLength="134" x="7029" y="673.8467">RuntimeException</text><line style="stroke:#181818;stroke-width:0.5;" x1="7001" x2="7165" y1="685" y2="685"/><line style="stroke:#181818;stroke-width:0.5;" x1="7001" x2="7165" y1="693" y2="693"/></g><!--class AccommodationRepo--><g id="elem_AccommodationRepo"><rect codeLine="19" fill="#F1F1F1" height="48" id="AccommodationRepo" rx="2.5" ry="2.5" style="stroke:#181818;stroke-width:0.5;" width="186" x="5794" y="653"/><ellipse cx="5809" cy="669" fill="#B4A7E5" rx="11" ry="11" style="stroke:#181818;stroke-width:1.0;"/><path d="M5809.9531,665.7813 L5811.6719,665.7813 C5812.0625,665.7813 5812.25,665.75 5812.375,665.6719 C5812.6406,665.5156 5812.7813,665.2344 5812.7813,664.9375 C5812.7813,664.6719 5812.6719,664.4063 5812.4375,664.2344 C5812.2656,664.125 5812.125,664.0938 5811.6719,664.0938 L5806.5313,664.0938 C5806.0938,664.0938 5805.9688,664.1094 5805.8125,664.2031 C5805.5625,664.3594 5805.4063,664.6563 5805.4063,664.9375 C5805.4063,665.2188 5805.5469,665.4688 5805.7656,665.6406 C5805.9219,665.75 5806.1094,665.7813 5806.5313,665.7813 L5808.25,665.7813 L5808.25,672.2969 L5806.5313,672.2969 C5806.0938,672.2969 5805.9688,672.3125 5805.8125,672.4219 C5805.5625,672.5781 5805.4063,672.8594 5805.4063,673.1563 C5805.4063,673.4063 5805.5469,673.6719 5805.7656,673.8281 C5805.9219,673.9531 5806.125,674 5806.5313,674 L5811.6719,674 C5812.4219,674 5812.7813,673.7188 5812.7813,673.1563 C5812.7813,672.875 5812.6719,672.625 5812.4375,672.4531 C5812.2656,672.3281 5812.125,672.2969 5811.6719,672.2969 L5809.9531,672.2969 L5809.9531,665.7813 Z " fill="#000000"/><text fill="#000000" font-family="sans-serif" font-size="14" font-style="italic" lengthAdjust="spacing" textLength="154" x="5823" y="673.8467">AccommodationRepo</text><line style="stroke:#181818;stroke-width:0.5;" x1="5795" x2="5979" y1="685" y2="685"/><line style="stroke:#181818;stroke-width:0.5;" x1="5795" x2="5979" y1="693" y2="693"/></g><!--class ReservationRepo--><g id="elem_ReservationRepo"><rect codeLine="34" fill="#F1F1F1" height="48" id="ReservationRepo" rx="2.5" ry="2.5" style="stroke:#181818;stroke-width:0.5;" width="154" x="5605" y="653"/><ellipse cx="5620" cy="669" fill="#B4A7E5" rx="11" ry="11" style="stroke:#181818;stroke-width:1.0;"/><path d="M5620.9531,665.7813 L5622.6719,665.7813 C5623.0625,665.7813 5623.25,665.75 5623.375,665.6719 C5623.6406,665.5156 5623.7813,665.2344 5623.7813,664.9375 C5623.7813,664.6719 5623.6719,664.4063 5623.4375,664.2344 C5623.2656,664.125 5623.125,664.0938 5622.6719,664.0938 L5617.5313,664.0938 C5617.0938,664.0938 5616.9688,664.1094 5616.8125,664.2031 C5616.5625,664.3594 5616.4063,664.6563 5616.4063,664.9375 C5616.4063,665.2188 5616.5469,665.4688 5616.7656,665.6406 C5616.9219,665.75 5617.1094,665.7813 5617.5313,665.7813 L5619.25,665.7813 L5619.25,672.2969 L5617.5313,672.2969 C5617.0938,672.2969 5616.9688,672.3125 5616.8125,672.4219 C5616.5625,672.5781 5616.4063,672.8594 5616.4063,673.1563 C5616.4063,673.4063 5616.5469,673.6719 5616.7656,673.8281 C5616.9219,673.9531 5617.125,674 5617.5313,674 L5622.6719,674 C5623.4219,674 5623.7813,673.7188 5623.7813,673.1563 C5623.7813,672.875 5623.6719,672.625 5623.4375,672.4531 C5623.2656,672.3281 5623.125,672.2969 5622.6719,672.2969 L5620.9531,672.2969 L5620.9531,665.7813 Z " fill="#000000"/><text fill="#000000" font-family="sans-serif" font-size="14" font-style="italic" lengthAdjust="spacing" textLength="122" x="5634" y="673.8467">ReservationRepo</text><line style="stroke:#181818;stroke-width:0.5;" x1="5606" x2="5758" y1="685" y2="685"/><line style="stroke:#181818;stroke-width:0.5;" x1="5606" x2="5758" y1="693" y2="693"/></g><!--class SwaggerConfig--><g id="elem_SwaggerConfig"><rect codeLine="21" fill="#F1F1F1" height="80.5938" id="SwaggerConfig" rx="2.5" ry="2.5" style="stroke:#181818;stroke-width:0.5;" width="327" x="5221.5" y="636.5"/><ellipse cx="5326.75" cy="652.5" fill="#ADD1B2" rx="11" ry="11" style="stroke:#181818;stroke-width:1.0;"/><path d="M5329.0938,648.1719 C5328.1563,647.7344 5327.5625,647.5938 5326.6875,647.5938 C5324.0625,647.5938 5322.0625,649.6719 5322.0625,652.3906 L5322.0625,653.5156 C5322.0625,656.0938 5324.1719,657.9844 5327.0625,657.9844 C5328.2813,657.9844 5329.4375,657.6875 5330.1875,657.1406 C5330.7656,656.7344 5331.0938,656.2813 5331.0938,655.8906 C5331.0938,655.4375 5330.7031,655.0469 5330.2344,655.0469 C5330.0156,655.0469 5329.8125,655.125 5329.625,655.3125 C5329.1719,655.7969 5329.1719,655.7969 5328.9844,655.8906 C5328.5625,656.1563 5327.875,656.2813 5327.1094,656.2813 C5325.0625,656.2813 5323.7656,655.1875 5323.7656,653.4844 L5323.7656,652.3906 C5323.7656,650.6094 5325.0156,649.2969 5326.75,649.2969 C5327.3281,649.2969 5327.9375,649.4531 5328.4063,649.7031 C5328.8906,649.9844 5329.0625,650.2031 5329.1563,650.6094 C5329.2188,651.0156 5329.25,651.1406 5329.3906,651.2656 C5329.5313,651.4063 5329.7656,651.5156 5329.9844,651.5156 C5330.25,651.5156 5330.5156,651.375 5330.6875,651.1563 C5330.7969,651 5330.8281,650.8125 5330.8281,650.3906 L5330.8281,648.9688 C5330.8281,648.5313 5330.8125,648.4063 5330.7188,648.25 C5330.5625,647.9844 5330.2813,647.8438 5329.9844,647.8438 C5329.6875,647.8438 5329.4844,647.9375 5329.2656,648.25 L5329.0938,648.1719 Z " fill="#000000"/><text fill="#000000" font-family="sans-serif" font-size="14" lengthAdjust="spacing" textLength="108" x="5347.25" y="657.3467">SwaggerConfig</text><line style="stroke:#181818;stroke-width:0.5;" x1="5222.5" x2="5547.5" y1="668.5" y2="668.5"/><line style="stroke:#181818;stroke-width:0.5;" x1="5222.5" x2="5547.5" y1="676.5" y2="676.5"/><ellipse cx="5232.5" cy="690.1484" fill="#84BE84" rx="3" ry="3" style="stroke:#038048;stroke-width:1.0;"/><text fill="#000000" font-family="sans-serif" font-size="14" lengthAdjust="spacing" textLength="98" x="5241.5" y="693.4951">OpenAPI api()</text><rect fill="#F24D5C" height="6" style="stroke:#C82930;stroke-width:1.0;" width="6" x="5229.5" y="703.4453"/><text fill="#000000" font-family="sans-serif" font-size="14" lengthAdjust="spacing" textLength="301" x="5241.5" y="709.792">Map&lt;String,Schema&gt; generateSchemas()</text></g><!--class CorsFilter--><g id="elem_CorsFilter"><rect codeLine="31" fill="#F1F1F1" height="64.2969" id="CorsFilter" rx="2.5" ry="2.5" style="stroke:#181818;stroke-width:0.5;" width="445" x="5103.5" y="867"/><ellipse cx="5286.75" cy="883" fill="#ADD1B2" rx="11" ry="11" style="stroke:#181818;stroke-width:1.0;"/><path d="M5289.0938,878.6719 C5288.1563,878.2344 5287.5625,878.0938 5286.6875,878.0938 C5284.0625,878.0938 5282.0625,880.1719 5282.0625,882.8906 L5282.0625,884.0156 C5282.0625,886.5938 5284.1719,888.4844 5287.0625,888.4844 C5288.2813,888.4844 5289.4375,888.1875 5290.1875,887.6406 C5290.7656,887.2344 5291.0938,886.7813 5291.0938,886.3906 C5291.0938,885.9375 5290.7031,885.5469 5290.2344,885.5469 C5290.0156,885.5469 5289.8125,885.625 5289.625,885.8125 C5289.1719,886.2969 5289.1719,886.2969 5288.9844,886.3906 C5288.5625,886.6563 5287.875,886.7813 5287.1094,886.7813 C5285.0625,886.7813 5283.7656,885.6875 5283.7656,883.9844 L5283.7656,882.8906 C5283.7656,881.1094 5285.0156,879.7969 5286.75,879.7969 C5287.3281,879.7969 5287.9375,879.9531 5288.4063,880.2031 C5288.8906,880.4844 5289.0625,880.7031 5289.1563,881.1094 C5289.2188,881.5156 5289.25,881.6406 5289.3906,881.7656 C5289.5313,881.9063 5289.7656,882.0156 5289.9844,882.0156 C5290.25,882.0156 5290.5156,881.875 5290.6875,881.6563 C5290.7969,881.5 5290.8281,881.3125 5290.8281,880.8906 L5290.8281,879.4688 C5290.8281,879.0313 5290.8125,878.9063 5290.7188,878.75 C5290.5625,878.4844 5290.2813,878.3438 5289.9844,878.3438 C5289.6875,878.3438 5289.4844,878.4375 5289.2656,878.75 L5289.0938,878.6719 Z " fill="#000000"/><text fill="#000000" font-family="sans-serif" font-size="14" lengthAdjust="spacing" textLength="70" x="5307.25" y="887.8467">CorsFilter</text><line style="stroke:#181818;stroke-width:0.5;" x1="5104.5" x2="5547.5" y1="899" y2="899"/><line style="stroke:#181818;stroke-width:0.5;" x1="5104.5" x2="5547.5" y1="907" y2="907"/><ellipse cx="5114.5" cy="920.6484" fill="#84BE84" rx="3" ry="3" style="stroke:#038048;stroke-width:1.0;"/><text fill="#000000" font-family="sans-serif" font-size="14" lengthAdjust="spacing" textLength="419" x="5123.5" y="923.9951">void doFilter(ServletRequest,ServletResponse,FilterChain)</text></g><!--class Filter--><g id="elem_Filter"><rect fill="#F1F1F1" height="48" id="Filter" rx="2.5" ry="2.5" style="stroke:#181818;stroke-width:0.5;" width="70" x="5116" y="653"/><ellipse cx="5131" cy="669" fill="#ADD1B2" rx="11" ry="11" style="stroke:#181818;stroke-width:1.0;"/><path d="M5133.3438,664.6719 C5132.4063,664.2344 5131.8125,664.0938 5130.9375,664.0938 C5128.3125,664.0938 5126.3125,666.1719 5126.3125,668.8906 L5126.3125,670.0156 C5126.3125,672.5938 5128.4219,674.4844 5131.3125,674.4844 C5132.5313,674.4844 5133.6875,674.1875 5134.4375,673.6406 C5135.0156,673.2344 5135.3438,672.7813 5135.3438,672.3906 C5135.3438,671.9375 5134.9531,671.5469 5134.4844,671.5469 C5134.2656,671.5469 5134.0625,671.625 5133.875,671.8125 C5133.4219,672.2969 5133.4219,672.2969 5133.2344,672.3906 C5132.8125,672.6563 5132.125,672.7813 5131.3594,672.7813 C5129.3125,672.7813 5128.0156,671.6875 5128.0156,669.9844 L5128.0156,668.8906 C5128.0156,667.1094 5129.2656,665.7969 5131,665.7969 C5131.5781,665.7969 5132.1875,665.9531 5132.6563,666.2031 C5133.1406,666.4844 5133.3125,666.7031 5133.4063,667.1094 C5133.4688,667.5156 5133.5,667.6406 5133.6406,667.7656 C5133.7813,667.9063 5134.0156,668.0156 5134.2344,668.0156 C5134.5,668.0156 5134.7656,667.875 5134.9375,667.6563 C5135.0469,667.5 5135.0781,667.3125 5135.0781,666.8906 L5135.0781,665.4688 C5135.0781,665.0313 5135.0625,664.9063 5134.9688,664.75 C5134.8125,664.4844 5134.5313,664.3438 5134.2344,664.3438 C5133.9375,664.3438 5133.7344,664.4375 5133.5156,664.75 L5133.3438,664.6719 Z " fill="#000000"/><text fill="#000000" font-family="sans-serif" font-size="14" lengthAdjust="spacing" textLength="38" x="5145" y="673.8467">Filter</text><line style="stroke:#181818;stroke-width:0.5;" x1="5117" x2="5185" y1="685" y2="685"/><line style="stroke:#181818;stroke-width:0.5;" x1="5117" x2="5185" y1="693" y2="693"/></g><!--class AccommodationDto--><g id="elem_AccommodationDto"><rect codeLine="25" fill="#F1F1F1" height="113.1875" id="AccommodationDto" rx="2.5" ry="2.5" style="stroke:#181818;stroke-width:0.5;" width="284" x="4458" y="620.5"/><ellipse cx="4523.25" cy="636.5" fill="#ADD1B2" rx="11" ry="11" style="stroke:#181818;stroke-width:1.0;"/><path d="M4525.5938,632.1719 C4524.6563,631.7344 4524.0625,631.5938 4523.1875,631.5938 C4520.5625,631.5938 4518.5625,633.6719 4518.5625,636.3906 L4518.5625,637.5156 C4518.5625,640.0938 4520.6719,641.9844 4523.5625,641.9844 C4524.7813,641.9844 4525.9375,641.6875 4526.6875,641.1406 C4527.2656,640.7344 4527.5938,640.2813 4527.5938,639.8906 C4527.5938,639.4375 4527.2031,639.0469 4526.7344,639.0469 C4526.5156,639.0469 4526.3125,639.125 4526.125,639.3125 C4525.6719,639.7969 4525.6719,639.7969 4525.4844,639.8906 C4525.0625,640.1563 4524.375,640.2813 4523.6094,640.2813 C4521.5625,640.2813 4520.2656,639.1875 4520.2656,637.4844 L4520.2656,636.3906 C4520.2656,634.6094 4521.5156,633.2969 4523.25,633.2969 C4523.8281,633.2969 4524.4375,633.4531 4524.9063,633.7031 C4525.3906,633.9844 4525.5625,634.2031 4525.6563,634.6094 C4525.7188,635.0156 4525.75,635.1406 4525.8906,635.2656 C4526.0313,635.4063 4526.2656,635.5156 4526.4844,635.5156 C4526.75,635.5156 4527.0156,635.375 4527.1875,635.1563 C4527.2969,635 4527.3281,634.8125 4527.3281,634.3906 L4527.3281,632.9688 C4527.3281,632.5313 4527.3125,632.4063 4527.2188,632.25 C4527.0625,631.9844 4526.7813,631.8438 4526.4844,631.8438 C4526.1875,631.8438 4525.9844,631.9375 4525.7656,632.25 L4525.5938,632.1719 Z " fill="#000000"/><text fill="#000000" font-family="sans-serif" font-size="14" lengthAdjust="spacing" textLength="145" x="4543.75" y="641.3467">AccommodationDto</text><line style="stroke:#181818;stroke-width:0.5;" x1="4459" x2="4741" y1="652.5" y2="652.5"/><rect fill="none" height="6" style="stroke:#C82930;stroke-width:1.0;" width="6" x="4466" y="663.1484"/><text fill="#000000" font-family="sans-serif" font-size="14" lengthAdjust="spacing" textLength="88" x="4478" y="669.4951">String name</text><rect fill="none" height="6" style="stroke:#C82930;stroke-width:1.0;" width="6" x="4466" y="679.4453"/><text fill="#000000" font-family="sans-serif" font-size="14" lengthAdjust="spacing" textLength="134" x="4478" y="685.792">String observation</text><rect fill="none" height="6" style="stroke:#C82930;stroke-width:1.0;" width="6" x="4466" y="695.7422"/><text fill="#000000" font-family="sans-serif" font-size="14" lengthAdjust="spacing" textLength="218" x="4478" y="702.0889">CleaningStatus cleaningStatus</text><rect fill="none" height="6" style="stroke:#C82930;stroke-width:1.0;" width="6" x="4466" y="712.0391"/><text fill="#000000" font-family="sans-serif" font-size="14" lengthAdjust="spacing" textLength="258" x="4478" y="718.3857">OccupationStatus occupationStatus</text><line style="stroke:#181818;stroke-width:0.5;" x1="4459" x2="4741" y1="725.6875" y2="725.6875"/></g><!--class ReservationDto--><g id="elem_ReservationDto"><rect codeLine="66" fill="#F1F1F1" height="178.375" id="ReservationDto" rx="2.5" ry="2.5" style="stroke:#181818;stroke-width:0.5;" width="269" x="4777.5" y="588"/><ellipse cx="4851.25" cy="604" fill="#ADD1B2" rx="11" ry="11" style="stroke:#181818;stroke-width:1.0;"/><path d="M4853.5938,599.6719 C4852.6563,599.2344 4852.0625,599.0938 4851.1875,599.0938 C4848.5625,599.0938 4846.5625,601.1719 4846.5625,603.8906 L4846.5625,605.0156 C4846.5625,607.5938 4848.6719,609.4844 4851.5625,609.4844 C4852.7813,609.4844 4853.9375,609.1875 4854.6875,608.6406 C4855.2656,608.2344 4855.5938,607.7813 4855.5938,607.3906 C4855.5938,606.9375 4855.2031,606.5469 4854.7344,606.5469 C4854.5156,606.5469 4854.3125,606.625 4854.125,606.8125 C4853.6719,607.2969 4853.6719,607.2969 4853.4844,607.3906 C4853.0625,607.6563 4852.375,607.7813 4851.6094,607.7813 C4849.5625,607.7813 4848.2656,606.6875 4848.2656,604.9844 L4848.2656,603.8906 C4848.2656,602.1094 4849.5156,600.7969 4851.25,600.7969 C4851.8281,600.7969 4852.4375,600.9531 4852.9063,601.2031 C4853.3906,601.4844 4853.5625,601.7031 4853.6563,602.1094 C4853.7188,602.5156 4853.75,602.6406 4853.8906,602.7656 C4854.0313,602.9063 4854.2656,603.0156 4854.4844,603.0156 C4854.75,603.0156 4855.0156,602.875 4855.1875,602.6563 C4855.2969,602.5 4855.3281,602.3125 4855.3281,601.8906 L4855.3281,600.4688 C4855.3281,600.0313 4855.3125,599.9063 4855.2188,599.75 C4855.0625,599.4844 4854.7813,599.3438 4854.4844,599.3438 C4854.1875,599.3438 4853.9844,599.4375 4853.7656,599.75 L4853.5938,599.6719 Z " fill="#000000"/><text fill="#000000" font-family="sans-serif" font-size="14" lengthAdjust="spacing" textLength="113" x="4871.75" y="608.8467">ReservationDto</text><line style="stroke:#181818;stroke-width:0.5;" x1="4778.5" x2="5045.5" y1="620" y2="620"/><rect fill="none" height="6" style="stroke:#C82930;stroke-width:1.0;" width="6" x="4785.5" y="630.6484"/><text fill="#000000" font-family="sans-serif" font-size="14" lengthAdjust="spacing" textLength="135" x="4797.5" y="636.9951">String holderName</text><rect fill="none" height="6" style="stroke:#C82930;stroke-width:1.0;" width="6" x="4785.5" y="646.9453"/><text fill="#000000" font-family="sans-serif" font-size="14" lengthAdjust="spacing" textLength="67" x="4797.5" y="653.292">int adults</text><rect fill="none" height="6" style="stroke:#C82930;stroke-width:1.0;" width="6" x="4785.5" y="663.2422"/><text fill="#000000" font-family="sans-serif" font-size="14" lengthAdjust="spacing" textLength="58" x="4797.5" y="669.5889">int child</text><rect fill="none" height="6" style="stroke:#C82930;stroke-width:1.0;" width="6" x="4785.5" y="679.5391"/><text fill="#000000" font-family="sans-serif" font-size="14" lengthAdjust="spacing" textLength="72" x="4797.5" y="685.8857">int babies</text><rect fill="none" height="6" style="stroke:#C82930;stroke-width:1.0;" width="6" x="4785.5" y="695.8359"/><text fill="#000000" font-family="sans-serif" font-size="14" lengthAdjust="spacing" textLength="111" x="4797.5" y="702.1826">Boolean hasPet</text><rect fill="none" height="6" style="stroke:#C82930;stroke-width:1.0;" width="6" x="4785.5" y="712.1328"/><text fill="#000000" font-family="sans-serif" font-size="14" lengthAdjust="spacing" textLength="132" x="4797.5" y="718.4795">LocalDate checkin</text><rect fill="none" height="6" style="stroke:#C82930;stroke-width:1.0;" width="6" x="4785.5" y="728.4297"/><text fill="#000000" font-family="sans-serif" font-size="14" lengthAdjust="spacing" textLength="143" x="4797.5" y="734.7764">LocalDate checkout</text><rect fill="none" height="6" style="stroke:#C82930;stroke-width:1.0;" width="6" x="4785.5" y="744.7266"/><text fill="#000000" font-family="sans-serif" font-size="14" lengthAdjust="spacing" textLength="243" x="4797.5" y="751.0732">Long accommodationIdReference</text><line style="stroke:#181818;stroke-width:0.5;" x1="4778.5" x2="5045.5" y1="758.375" y2="758.375"/></g><!--class ExtraServicesDto--><g id="elem_ExtraServicesDto"><rect codeLine="89" fill="#F1F1F1" height="96.8906" id="ExtraServicesDto" rx="2.5" ry="2.5" style="stroke:#181818;stroke-width:0.5;" width="188" x="4506" y="850.5"/><ellipse cx="4534.95" cy="866.5" fill="#ADD1B2" rx="11" ry="11" style="stroke:#181818;stroke-width:1.0;"/><path d="M4537.2938,862.1719 C4536.3563,861.7344 4535.7625,861.5938 4534.8875,861.5938 C4532.2625,861.5938 4530.2625,863.6719 4530.2625,866.3906 L4530.2625,867.5156 C4530.2625,870.0938 4532.3719,871.9844 4535.2625,871.9844 C4536.4813,871.9844 4537.6375,871.6875 4538.3875,871.1406 C4538.9656,870.7344 4539.2938,870.2813 4539.2938,869.8906 C4539.2938,869.4375 4538.9031,869.0469 4538.4344,869.0469 C4538.2156,869.0469 4538.0125,869.125 4537.825,869.3125 C4537.3719,869.7969 4537.3719,869.7969 4537.1844,869.8906 C4536.7625,870.1563 4536.075,870.2813 4535.3094,870.2813 C4533.2625,870.2813 4531.9656,869.1875 4531.9656,867.4844 L4531.9656,866.3906 C4531.9656,864.6094 4533.2156,863.2969 4534.95,863.2969 C4535.5281,863.2969 4536.1375,863.4531 4536.6063,863.7031 C4537.0906,863.9844 4537.2625,864.2031 4537.3563,864.6094 C4537.4188,865.0156 4537.45,865.1406 4537.5906,865.2656 C4537.7313,865.4063 4537.9656,865.5156 4538.1844,865.5156 C4538.45,865.5156 4538.7156,865.375 4538.8875,865.1563 C4538.9969,865 4539.0281,864.8125 4539.0281,864.3906 L4539.0281,862.9688 C4539.0281,862.5313 4539.0125,862.4063 4538.9188,862.25 C4538.7625,861.9844 4538.4813,861.8438 4538.1844,861.8438 C4537.8875,861.8438 4537.6844,861.9375 4537.4656,862.25 L4537.2938,862.1719 Z " fill="#000000"/><text fill="#000000" font-family="sans-serif" font-size="14" lengthAdjust="spacing" textLength="125" x="4552.05" y="871.3467">ExtraServicesDto</text><line style="stroke:#181818;stroke-width:0.5;" x1="4507" x2="4693" y1="882.5" y2="882.5"/><rect fill="none" height="6" style="stroke:#C82930;stroke-width:1.0;" width="6" x="4514" y="893.1484"/><text fill="#000000" font-family="sans-serif" font-size="14" lengthAdjust="spacing" textLength="162" x="4526" y="899.4951">Boolean extraCleaning</text><rect fill="none" height="6" style="stroke:#C82930;stroke-width:1.0;" width="6" x="4514" y="909.4453"/><text fill="#000000" font-family="sans-serif" font-size="14" lengthAdjust="spacing" textLength="128" x="4526" y="915.792">Boolean extraBed</text><rect fill="none" height="6" style="stroke:#C82930;stroke-width:1.0;" width="6" x="4514" y="925.7422"/><text fill="#000000" font-family="sans-serif" font-size="14" lengthAdjust="spacing" textLength="146" x="4526" y="932.0889">Boolean extraCradle</text><line style="stroke:#181818;stroke-width:0.5;" x1="4507" x2="4693" y1="939.3906" y2="939.3906"/></g><!--class PartialAccommodationDto--><g id="elem_PartialAccommodationDto"><rect codeLine="140" fill="#F1F1F1" height="96.8906" id="PartialAccommodationDto" rx="2.5" ry="2.5" style="stroke:#181818;stroke-width:0.5;" width="284" x="4729" y="850.5"/><ellipse cx="4771.45" cy="866.5" fill="#ADD1B2" rx="11" ry="11" style="stroke:#181818;stroke-width:1.0;"/><path d="M4773.7938,862.1719 C4772.8563,861.7344 4772.2625,861.5938 4771.3875,861.5938 C4768.7625,861.5938 4766.7625,863.6719 4766.7625,866.3906 L4766.7625,867.5156 C4766.7625,870.0938 4768.8719,871.9844 4771.7625,871.9844 C4772.9813,871.9844 4774.1375,871.6875 4774.8875,871.1406 C4775.4656,870.7344 4775.7938,870.2813 4775.7938,869.8906 C4775.7938,869.4375 4775.4031,869.0469 4774.9344,869.0469 C4774.7156,869.0469 4774.5125,869.125 4774.325,869.3125 C4773.8719,869.7969 4773.8719,869.7969 4773.6844,869.8906 C4773.2625,870.1563 4772.575,870.2813 4771.8094,870.2813 C4769.7625,870.2813 4768.4656,869.1875 4768.4656,867.4844 L4768.4656,866.3906 C4768.4656,864.6094 4769.7156,863.2969 4771.45,863.2969 C4772.0281,863.2969 4772.6375,863.4531 4773.1063,863.7031 C4773.5906,863.9844 4773.7625,864.2031 4773.8563,864.6094 C4773.9188,865.0156 4773.95,865.1406 4774.0906,865.2656 C4774.2313,865.4063 4774.4656,865.5156 4774.6844,865.5156 C4774.95,865.5156 4775.2156,865.375 4775.3875,865.1563 C4775.4969,865 4775.5281,864.8125 4775.5281,864.3906 L4775.5281,862.9688 C4775.5281,862.5313 4775.5125,862.4063 4775.4188,862.25 C4775.2625,861.9844 4774.9813,861.8438 4774.6844,861.8438 C4774.3875,861.8438 4774.1844,861.9375 4773.9656,862.25 L4773.7938,862.1719 Z " fill="#000000"/><text fill="#000000" font-family="sans-serif" font-size="14" lengthAdjust="spacing" textLength="191" x="4791.55" y="871.3467">PartialAccommodationDto</text><line style="stroke:#181818;stroke-width:0.5;" x1="4730" x2="5012" y1="882.5" y2="882.5"/><rect fill="none" height="6" style="stroke:#C82930;stroke-width:1.0;" width="6" x="4737" y="893.1484"/><text fill="#000000" font-family="sans-serif" font-size="14" lengthAdjust="spacing" textLength="134" x="4749" y="899.4951">String observation</text><rect fill="none" height="6" style="stroke:#C82930;stroke-width:1.0;" width="6" x="4737" y="909.4453"/><text fill="#000000" font-family="sans-serif" font-size="14" lengthAdjust="spacing" textLength="218" x="4749" y="915.792">CleaningStatus cleaningStatus</text><rect fill="none" height="6" style="stroke:#C82930;stroke-width:1.0;" width="6" x="4737" y="925.7422"/><text fill="#000000" font-family="sans-serif" font-size="14" lengthAdjust="spacing" textLength="258" x="4749" y="932.0889">OccupationStatus occupationStatus</text><line style="stroke:#181818;stroke-width:0.5;" x1="4730" x2="5012" y1="939.3906" y2="939.3906"/></g><!--class ExtraServices--><g id="elem_ExtraServices"><rect codeLine="38" fill="#F1F1F1" height="129.4844" id="ExtraServices" rx="2.5" ry="2.5" style="stroke:#181818;stroke-width:0.5;" width="264" x="2891" y="612.5"/><ellipse cx="2969.75" cy="628.5" fill="#ADD1B2" rx="11" ry="11" style="stroke:#181818;stroke-width:1.0;"/><path d="M2972.0938,624.1719 C2971.1563,623.7344 2970.5625,623.5938 2969.6875,623.5938 C2967.0625,623.5938 2965.0625,625.6719 2965.0625,628.3906 L2965.0625,629.5156 C2965.0625,632.0938 2967.1719,633.9844 2970.0625,633.9844 C2971.2813,633.9844 2972.4375,633.6875 2973.1875,633.1406 C2973.7656,632.7344 2974.0938,632.2813 2974.0938,631.8906 C2974.0938,631.4375 2973.7031,631.0469 2973.2344,631.0469 C2973.0156,631.0469 2972.8125,631.125 2972.625,631.3125 C2972.1719,631.7969 2972.1719,631.7969 2971.9844,631.8906 C2971.5625,632.1563 2970.875,632.2813 2970.1094,632.2813 C2968.0625,632.2813 2966.7656,631.1875 2966.7656,629.4844 L2966.7656,628.3906 C2966.7656,626.6094 2968.0156,625.2969 2969.75,625.2969 C2970.3281,625.2969 2970.9375,625.4531 2971.4063,625.7031 C2971.8906,625.9844 2972.0625,626.2031 2972.1563,626.6094 C2972.2188,627.0156 2972.25,627.1406 2972.3906,627.2656 C2972.5313,627.4063 2972.7656,627.5156 2972.9844,627.5156 C2973.25,627.5156 2973.5156,627.375 2973.6875,627.1563 C2973.7969,627 2973.8281,626.8125 2973.8281,626.3906 L2973.8281,624.9688 C2973.8281,624.5313 2973.8125,624.4063 2973.7188,624.25 C2973.5625,623.9844 2973.2813,623.8438 2972.9844,623.8438 C2972.6875,623.8438 2972.4844,623.9375 2972.2656,624.25 L2972.0938,624.1719 Z " fill="#000000"/><text fill="#000000" font-family="sans-serif" font-size="14" lengthAdjust="spacing" textLength="98" x="2990.25" y="633.3467">ExtraServices</text><line style="stroke:#181818;stroke-width:0.5;" x1="2892" x2="3154" y1="644.5" y2="644.5"/><rect fill="none" height="6" style="stroke:#C82930;stroke-width:1.0;" width="6" x="2899" y="655.1484"/><text fill="#000000" font-family="sans-serif" font-size="14" lengthAdjust="spacing" textLength="52" x="2911" y="661.4951">Long id</text><rect fill="none" height="6" style="stroke:#C82930;stroke-width:1.0;" width="6" x="2899" y="671.4453"/><text fill="#000000" font-family="sans-serif" font-size="14" lengthAdjust="spacing" textLength="162" x="2911" y="677.792">Boolean extraCleaning</text><rect fill="none" height="6" style="stroke:#C82930;stroke-width:1.0;" width="6" x="2899" y="687.7422"/><text fill="#000000" font-family="sans-serif" font-size="14" lengthAdjust="spacing" textLength="128" x="2911" y="694.0889">Boolean extraBed</text><rect fill="none" height="6" style="stroke:#C82930;stroke-width:1.0;" width="6" x="2899" y="704.0391"/><text fill="#000000" font-family="sans-serif" font-size="14" lengthAdjust="spacing" textLength="146" x="2911" y="710.3857">Boolean extraCradle</text><rect fill="none" height="6" style="stroke:#C82930;stroke-width:1.0;" width="6" x="2899" y="720.3359"/><text fill="#000000" font-family="sans-serif" font-size="14" lengthAdjust="spacing" textLength="238" x="2911" y="726.6826">Accommodation accommodation</text><line style="stroke:#181818;stroke-width:0.5;" x1="2892" x2="3154" y1="733.9844" y2="733.9844"/></g><!--class Accommodation--><g id="elem_Accommodation"><rect codeLine="76" fill="#F1F1F1" height="227.2656" id="Accommodation" rx="2.5" ry="2.5" style="stroke:#181818;stroke-width:0.5;" width="349" x="3494.5" y="563.5"/><ellipse cx="3605.75" cy="579.5" fill="#ADD1B2" rx="11" ry="11" style="stroke:#181818;stroke-width:1.0;"/><path d="M3608.0938,575.1719 C3607.1563,574.7344 3606.5625,574.5938 3605.6875,574.5938 C3603.0625,574.5938 3601.0625,576.6719 3601.0625,579.3906 L3601.0625,580.5156 C3601.0625,583.0938 3603.1719,584.9844 3606.0625,584.9844 C3607.2813,584.9844 3608.4375,584.6875 3609.1875,584.1406 C3609.7656,583.7344 3610.0938,583.2813 3610.0938,582.8906 C3610.0938,582.4375 3609.7031,582.0469 3609.2344,582.0469 C3609.0156,582.0469 3608.8125,582.125 3608.625,582.3125 C3608.1719,582.7969 3608.1719,582.7969 3607.9844,582.8906 C3607.5625,583.1563 3606.875,583.2813 3606.1094,583.2813 C3604.0625,583.2813 3602.7656,582.1875 3602.7656,580.4844 L3602.7656,579.3906 C3602.7656,577.6094 3604.0156,576.2969 3605.75,576.2969 C3606.3281,576.2969 3606.9375,576.4531 3607.4063,576.7031 C3607.8906,576.9844 3608.0625,577.2031 3608.1563,577.6094 C3608.2188,578.0156 3608.25,578.1406 3608.3906,578.2656 C3608.5313,578.4063 3608.7656,578.5156 3608.9844,578.5156 C3609.25,578.5156 3609.5156,578.375 3609.6875,578.1563 C3609.7969,578 3609.8281,577.8125 3609.8281,577.3906 L3609.8281,575.9688 C3609.8281,575.5313 3609.8125,575.4063 3609.7188,575.25 C3609.5625,574.9844 3609.2813,574.8438 3608.9844,574.8438 C3608.6875,574.8438 3608.4844,574.9375 3608.2656,575.25 L3608.0938,575.1719 Z " fill="#000000"/><text fill="#000000" font-family="sans-serif" font-size="14" lengthAdjust="spacing" textLength="118" x="3626.25" y="584.3467">Accommodation</text><line style="stroke:#181818;stroke-width:0.5;" x1="3495.5" x2="3842.5" y1="595.5" y2="595.5"/><rect fill="none" height="6" style="stroke:#C82930;stroke-width:1.0;" width="6" x="3502.5" y="606.1484"/><text fill="#000000" font-family="sans-serif" font-size="14" lengthAdjust="spacing" textLength="52" x="3514.5" y="612.4951">Long id</text><rect fill="none" height="6" style="stroke:#C82930;stroke-width:1.0;" width="6" x="3502.5" y="622.4453"/><text fill="#000000" font-family="sans-serif" font-size="14" lengthAdjust="spacing" textLength="88" x="3514.5" y="628.792">String name</text><rect fill="none" height="6" style="stroke:#C82930;stroke-width:1.0;" width="6" x="3502.5" y="638.7422"/><text fill="#000000" font-family="sans-serif" font-size="14" lengthAdjust="spacing" textLength="134" x="3514.5" y="645.0889">String observation</text><rect fill="none" height="6" style="stroke:#C82930;stroke-width:1.0;" width="6" x="3502.5" y="655.0391"/><text fill="#000000" font-family="sans-serif" font-size="14" lengthAdjust="spacing" textLength="163" x="3514.5" y="661.3857">Integer cleaningStatus</text><rect fill="none" height="6" style="stroke:#C82930;stroke-width:1.0;" width="6" x="3502.5" y="671.3359"/><text fill="#000000" font-family="sans-serif" font-size="14" lengthAdjust="spacing" textLength="183" x="3514.5" y="677.6826">Integer occupationStatus</text><rect fill="none" height="6" style="stroke:#C82930;stroke-width:1.0;" width="6" x="3502.5" y="687.6328"/><text fill="#000000" font-family="sans-serif" font-size="14" lengthAdjust="spacing" textLength="220" x="3514.5" y="693.9795">List&lt;Reservation&gt; reservation</text><rect fill="none" height="6" style="stroke:#C82930;stroke-width:1.0;" width="6" x="3502.5" y="703.9297"/><text fill="#000000" font-family="sans-serif" font-size="14" lengthAdjust="spacing" textLength="200" x="3514.5" y="710.2764">ExtraServices extraServices</text><line style="stroke:#181818;stroke-width:0.5;" x1="3495.5" x2="3842.5" y1="717.5781" y2="717.5781"/><ellipse cx="3505.5" cy="731.2266" fill="#84BE84" rx="3" ry="3" style="stroke:#038048;stroke-width:1.0;"/><text fill="#000000" font-family="sans-serif" font-size="14" lengthAdjust="spacing" textLength="255" x="3514.5" y="734.5732">CleaningStatus getCleaningStatus()</text><ellipse cx="3505.5" cy="747.5234" fill="#84BE84" rx="3" ry="3" style="stroke:#038048;stroke-width:1.0;"/><text fill="#000000" font-family="sans-serif" font-size="14" lengthAdjust="spacing" textLength="283" x="3514.5" y="750.8701">void setCleaningStatus(CleaningStatus)</text><ellipse cx="3505.5" cy="763.8203" fill="#84BE84" rx="3" ry="3" style="stroke:#038048;stroke-width:1.0;"/><text fill="#000000" font-family="sans-serif" font-size="14" lengthAdjust="spacing" textLength="295" x="3514.5" y="767.167">OccupationStatus getOccupationStatus()</text><ellipse cx="3505.5" cy="780.1172" fill="#84BE84" rx="3" ry="3" style="stroke:#038048;stroke-width:1.0;"/><text fill="#000000" font-family="sans-serif" font-size="14" lengthAdjust="spacing" textLength="323" x="3514.5" y="783.4639">void setOccupationStatus(OccupationStatus)</text></g><!--class Reservation--><g id="elem_Reservation"><rect codeLine="94" fill="#F1F1F1" height="227.2656" id="Reservation" rx="2.5" ry="2.5" style="stroke:#181818;stroke-width:0.5;" width="269" x="3190.5" y="563.5"/><ellipse cx="3277.75" cy="579.5" fill="#ADD1B2" rx="11" ry="11" style="stroke:#181818;stroke-width:1.0;"/><path d="M3280.0938,575.1719 C3279.1563,574.7344 3278.5625,574.5938 3277.6875,574.5938 C3275.0625,574.5938 3273.0625,576.6719 3273.0625,579.3906 L3273.0625,580.5156 C3273.0625,583.0938 3275.1719,584.9844 3278.0625,584.9844 C3279.2813,584.9844 3280.4375,584.6875 3281.1875,584.1406 C3281.7656,583.7344 3282.0938,583.2813 3282.0938,582.8906 C3282.0938,582.4375 3281.7031,582.0469 3281.2344,582.0469 C3281.0156,582.0469 3280.8125,582.125 3280.625,582.3125 C3280.1719,582.7969 3280.1719,582.7969 3279.9844,582.8906 C3279.5625,583.1563 3278.875,583.2813 3278.1094,583.2813 C3276.0625,583.2813 3274.7656,582.1875 3274.7656,580.4844 L3274.7656,579.3906 C3274.7656,577.6094 3276.0156,576.2969 3277.75,576.2969 C3278.3281,576.2969 3278.9375,576.4531 3279.4063,576.7031 C3279.8906,576.9844 3280.0625,577.2031 3280.1563,577.6094 C3280.2188,578.0156 3280.25,578.1406 3280.3906,578.2656 C3280.5313,578.4063 3280.7656,578.5156 3280.9844,578.5156 C3281.25,578.5156 3281.5156,578.375 3281.6875,578.1563 C3281.7969,578 3281.8281,577.8125 3281.8281,577.3906 L3281.8281,575.9688 C3281.8281,575.5313 3281.8125,575.4063 3281.7188,575.25 C3281.5625,574.9844 3281.2813,574.8438 3280.9844,574.8438 C3280.6875,574.8438 3280.4844,574.9375 3280.2656,575.25 L3280.0938,575.1719 Z " fill="#000000"/><text fill="#000000" font-family="sans-serif" font-size="14" lengthAdjust="spacing" textLength="86" x="3298.25" y="584.3467">Reservation</text><line style="stroke:#181818;stroke-width:0.5;" x1="3191.5" x2="3458.5" y1="595.5" y2="595.5"/><rect fill="none" height="6" style="stroke:#C82930;stroke-width:1.0;" width="6" x="3198.5" y="606.1484"/><text fill="#000000" font-family="sans-serif" font-size="14" lengthAdjust="spacing" textLength="52" x="3210.5" y="612.4951">Long id</text><rect fill="none" height="6" style="stroke:#C82930;stroke-width:1.0;" width="6" x="3198.5" y="622.4453"/><text fill="#000000" font-family="sans-serif" font-size="14" lengthAdjust="spacing" textLength="135" x="3210.5" y="628.792">String holderName</text><rect fill="none" height="6" style="stroke:#C82930;stroke-width:1.0;" width="6" x="3198.5" y="638.7422"/><text fill="#000000" font-family="sans-serif" font-size="14" lengthAdjust="spacing" textLength="67" x="3210.5" y="645.0889">int adults</text><rect fill="none" height="6" style="stroke:#C82930;stroke-width:1.0;" width="6" x="3198.5" y="655.0391"/><text fill="#000000" font-family="sans-serif" font-size="14" lengthAdjust="spacing" textLength="58" x="3210.5" y="661.3857">int child</text><rect fill="none" height="6" style="stroke:#C82930;stroke-width:1.0;" width="6" x="3198.5" y="671.3359"/><text fill="#000000" font-family="sans-serif" font-size="14" lengthAdjust="spacing" textLength="72" x="3210.5" y="677.6826">int babies</text><rect fill="none" height="6" style="stroke:#C82930;stroke-width:1.0;" width="6" x="3198.5" y="687.6328"/><text fill="#000000" font-family="sans-serif" font-size="14" lengthAdjust="spacing" textLength="111" x="3210.5" y="693.9795">Boolean hasPet</text><rect fill="none" height="6" style="stroke:#C82930;stroke-width:1.0;" width="6" x="3198.5" y="703.9297"/><text fill="#000000" font-family="sans-serif" font-size="14" lengthAdjust="spacing" textLength="132" x="3210.5" y="710.2764">LocalDate checkin</text><rect fill="none" height="6" style="stroke:#C82930;stroke-width:1.0;" width="6" x="3198.5" y="720.2266"/><text fill="#000000" font-family="sans-serif" font-size="14" lengthAdjust="spacing" textLength="143" x="3210.5" y="726.5732">LocalDate checkout</text><rect fill="none" height="6" style="stroke:#C82930;stroke-width:1.0;" width="6" x="3198.5" y="736.5234"/><text fill="#000000" font-family="sans-serif" font-size="14" lengthAdjust="spacing" textLength="119" x="3210.5" y="742.8701">Boolean isActive</text><rect fill="none" height="6" style="stroke:#C82930;stroke-width:1.0;" width="6" x="3198.5" y="752.8203"/><text fill="#000000" font-family="sans-serif" font-size="14" lengthAdjust="spacing" textLength="243" x="3210.5" y="759.167">Long accommodationIdReference</text><rect fill="none" height="6" style="stroke:#C82930;stroke-width:1.0;" width="6" x="3198.5" y="769.1172"/><text fill="#000000" font-family="sans-serif" font-size="14" lengthAdjust="spacing" textLength="238" x="3210.5" y="775.4639">Accommodation accommodation</text><line style="stroke:#181818;stroke-width:0.5;" x1="3191.5" x2="3458.5" y1="782.7656" y2="782.7656"/></g><!--class CleaningStatus--><g id="elem_CleaningStatus"><rect codeLine="45" fill="#F1F1F1" height="129.4844" id="CleaningStatus" rx="2.5" ry="2.5" style="stroke:#181818;stroke-width:0.5;" width="222" x="4156" y="612.5"/><ellipse cx="4208.75" cy="628.5" fill="#EB937F" rx="11" ry="11" style="stroke:#181818;stroke-width:1.0;"/><path d="M4207.5469,629.375 L4209,629.375 L4209,629.4844 C4209,629.8906 4209.0313,630.0469 4209.1094,630.2031 C4209.2656,630.4531 4209.5469,630.6094 4209.8438,630.6094 C4210.0938,630.6094 4210.3594,630.4688 4210.5156,630.25 C4210.6406,630.0938 4210.6719,629.9375 4210.6719,629.4844 L4210.6719,627.5625 C4210.6719,627.4063 4210.6719,627.3594 4210.6563,627.2031 C4210.5938,626.7344 4210.2813,626.4219 4209.8281,626.4219 C4209.5781,626.4219 4209.3125,626.5625 4209.1406,626.7813 C4209.0313,626.9531 4209,627.1094 4209,627.5625 L4209,627.6875 L4207.5469,627.6875 L4207.5469,625.2813 L4211.5313,625.2813 L4211.5313,626.1406 C4211.5313,626.5469 4211.5625,626.7188 4211.6406,626.875 C4211.8125,627.125 4212.0938,627.2813 4212.375,627.2813 C4212.6406,627.2813 4212.9063,627.1406 4213.0781,626.9219 C4213.1875,626.75 4213.2188,626.6094 4213.2188,626.1406 L4213.2188,623.5938 L4205.5938,623.5938 C4205.1563,623.5938 4205.0313,623.6094 4204.875,623.7031 C4204.625,623.8594 4204.4688,624.1563 4204.4688,624.4375 C4204.4688,624.7188 4204.6094,624.9688 4204.8281,625.1406 C4204.9844,625.25 4205.1719,625.2813 4205.5938,625.2813 L4205.8438,625.2813 L4205.8438,631.7969 L4205.5938,631.7969 C4205.1875,631.7969 4205.0313,631.8125 4204.875,631.9219 C4204.625,632.0938 4204.4688,632.3594 4204.4688,632.6563 C4204.4688,632.9219 4204.6094,633.1719 4204.8281,633.3281 C4204.9688,633.4531 4205.2031,633.5 4205.5938,633.5 L4213.5938,633.5 L4213.5938,630.9219 C4213.5938,630.4844 4213.5625,630.3438 4213.4844,630.1875 C4213.3125,629.9375 4213.0313,629.7813 4212.75,629.7813 C4212.4844,629.7813 4212.2188,629.8906 4212.0469,630.1406 C4211.9375,630.2969 4211.9063,630.4375 4211.9063,630.9219 L4211.9063,631.7969 L4207.5469,631.7969 L4207.5469,629.375 Z " fill="#000000"/><text fill="#000000" font-family="sans-serif" font-size="14" lengthAdjust="spacing" textLength="108" x="4229.25" y="633.3467">CleaningStatus</text><line style="stroke:#181818;stroke-width:0.5;" x1="4157" x2="4377" y1="644.5" y2="644.5"/><ellipse cx="4167" cy="658.1484" fill="none" rx="3" ry="3" style="stroke:#038048;stroke-width:1.0;"/><text fill="#000000" font-family="sans-serif" font-size="14" lengthAdjust="spacing" textLength="33" x="4176" y="661.4951">SUJO</text><ellipse cx="4167" cy="674.4453" fill="none" rx="3" ry="3" style="stroke:#038048;stroke-width:1.0;"/><text fill="#000000" font-family="sans-serif" font-size="14" lengthAdjust="spacing" textLength="44" x="4176" y="677.792">LIMPO</text><rect fill="none" height="6" style="stroke:#C82930;stroke-width:1.0;" width="6" x="4164" y="687.7422"/><text fill="#000000" font-family="sans-serif" font-size="14" lengthAdjust="spacing" textLength="59" x="4176" y="694.0889">int code</text><line style="stroke:#181818;stroke-width:0.5;" x1="4157" x2="4377" y1="701.3906" y2="701.3906"/><ellipse cx="4167" cy="715.0391" fill="#84BE84" rx="3" ry="3" style="stroke:#038048;stroke-width:1.0;"/><text fill="#000000" font-family="sans-serif" font-size="14" lengthAdjust="spacing" textLength="96" x="4176" y="718.3857">int getCode()</text><ellipse cx="4167" cy="731.3359" fill="#84BE84" rx="3" ry="3" style="stroke:#038048;stroke-width:1.0;"/><text fill="#000000" font-family="sans-serif" font-size="14" lengthAdjust="spacing" text-decoration="underline" textLength="196" x="4176" y="734.6826">CleaningStatus valueOf(int)</text></g><!--class OccupationStatus--><g id="elem_OccupationStatus"><rect codeLine="123" fill="#F1F1F1" height="145.7813" id="OccupationStatus" rx="2.5" ry="2.5" style="stroke:#181818;stroke-width:0.5;" width="242" x="3879" y="604"/><ellipse cx="3931.75" cy="620" fill="#EB937F" rx="11" ry="11" style="stroke:#181818;stroke-width:1.0;"/><path d="M3930.5469,620.875 L3932,620.875 L3932,620.9844 C3932,621.3906 3932.0313,621.5469 3932.1094,621.7031 C3932.2656,621.9531 3932.5469,622.1094 3932.8438,622.1094 C3933.0938,622.1094 3933.3594,621.9688 3933.5156,621.75 C3933.6406,621.5938 3933.6719,621.4375 3933.6719,620.9844 L3933.6719,619.0625 C3933.6719,618.9063 3933.6719,618.8594 3933.6563,618.7031 C3933.5938,618.2344 3933.2813,617.9219 3932.8281,617.9219 C3932.5781,617.9219 3932.3125,618.0625 3932.1406,618.2813 C3932.0313,618.4531 3932,618.6094 3932,619.0625 L3932,619.1875 L3930.5469,619.1875 L3930.5469,616.7813 L3934.5313,616.7813 L3934.5313,617.6406 C3934.5313,618.0469 3934.5625,618.2188 3934.6406,618.375 C3934.8125,618.625 3935.0938,618.7813 3935.375,618.7813 C3935.6406,618.7813 3935.9063,618.6406 3936.0781,618.4219 C3936.1875,618.25 3936.2188,618.1094 3936.2188,617.6406 L3936.2188,615.0938 L3928.5938,615.0938 C3928.1563,615.0938 3928.0313,615.1094 3927.875,615.2031 C3927.625,615.3594 3927.4688,615.6563 3927.4688,615.9375 C3927.4688,616.2188 3927.6094,616.4688 3927.8281,616.6406 C3927.9844,616.75 3928.1719,616.7813 3928.5938,616.7813 L3928.8438,616.7813 L3928.8438,623.2969 L3928.5938,623.2969 C3928.1875,623.2969 3928.0313,623.3125 3927.875,623.4219 C3927.625,623.5938 3927.4688,623.8594 3927.4688,624.1563 C3927.4688,624.4219 3927.6094,624.6719 3927.8281,624.8281 C3927.9688,624.9531 3928.2031,625 3928.5938,625 L3936.5938,625 L3936.5938,622.4219 C3936.5938,621.9844 3936.5625,621.8438 3936.4844,621.6875 C3936.3125,621.4375 3936.0313,621.2813 3935.75,621.2813 C3935.4844,621.2813 3935.2188,621.3906 3935.0469,621.6406 C3934.9375,621.7969 3934.9063,621.9375 3934.9063,622.4219 L3934.9063,623.2969 L3930.5469,623.2969 L3930.5469,620.875 Z " fill="#000000"/><text fill="#000000" font-family="sans-serif" font-size="14" lengthAdjust="spacing" textLength="128" x="3952.25" y="624.8467">OccupationStatus</text><line style="stroke:#181818;stroke-width:0.5;" x1="3880" x2="4120" y1="636" y2="636"/><ellipse cx="3890" cy="649.6484" fill="none" rx="3" ry="3" style="stroke:#038048;stroke-width:1.0;"/><text fill="#000000" font-family="sans-serif" font-size="14" lengthAdjust="spacing" textLength="100" x="3899" y="652.9951">DESOCUPADO</text><ellipse cx="3890" cy="665.9453" fill="none" rx="3" ry="3" style="stroke:#038048;stroke-width:1.0;"/><text fill="#000000" font-family="sans-serif" font-size="14" lengthAdjust="spacing" textLength="71" x="3899" y="669.292">OCUPADO</text><ellipse cx="3890" cy="682.2422" fill="none" rx="3" ry="3" style="stroke:#038048;stroke-width:1.0;"/><text fill="#000000" font-family="sans-serif" font-size="14" lengthAdjust="spacing" textLength="100" x="3899" y="685.5889">MANUTENCAO</text><rect fill="none" height="6" style="stroke:#C82930;stroke-width:1.0;" width="6" x="3887" y="695.5391"/><text fill="#000000" font-family="sans-serif" font-size="14" lengthAdjust="spacing" textLength="59" x="3899" y="701.8857">int code</text><line style="stroke:#181818;stroke-width:0.5;" x1="3880" x2="4120" y1="709.1875" y2="709.1875"/><ellipse cx="3890" cy="722.8359" fill="#84BE84" rx="3" ry="3" style="stroke:#038048;stroke-width:1.0;"/><text fill="#000000" font-family="sans-serif" font-size="14" lengthAdjust="spacing" textLength="96" x="3899" y="726.1826">int getCode()</text><ellipse cx="3890" cy="739.1328" fill="#84BE84" rx="3" ry="3" style="stroke:#038048;stroke-width:1.0;"/><text fill="#000000" font-family="sans-serif" font-size="14" lengthAdjust="spacing" text-decoration="underline" textLength="216" x="3899" y="742.4795">OccupationStatus valueOf(int)</text></g><!--class AccommodationResource--><g id="elem_AccommodationResource"><rect codeLine="52" fill="#F1F1F1" height="178.375" id="AccommodationResource" rx="2.5" ry="2.5" style="stroke:#181818;stroke-width:0.5;" width="579" x="850.5" y="588"/><ellipse cx="1043.75" cy="604" fill="#ADD1B2" rx="11" ry="11" style="stroke:#181818;stroke-width:1.0;"/><path d="M1046.0938,599.6719 C1045.1563,599.2344 1044.5625,599.0938 1043.6875,599.0938 C1041.0625,599.0938 1039.0625,601.1719 1039.0625,603.8906 L1039.0625,605.0156 C1039.0625,607.5938 1041.1719,609.4844 1044.0625,609.4844 C1045.2813,609.4844 1046.4375,609.1875 1047.1875,608.6406 C1047.7656,608.2344 1048.0938,607.7813 1048.0938,607.3906 C1048.0938,606.9375 1047.7031,606.5469 1047.2344,606.5469 C1047.0156,606.5469 1046.8125,606.625 1046.625,606.8125 C1046.1719,607.2969 1046.1719,607.2969 1045.9844,607.3906 C1045.5625,607.6563 1044.875,607.7813 1044.1094,607.7813 C1042.0625,607.7813 1040.7656,606.6875 1040.7656,604.9844 L1040.7656,603.8906 C1040.7656,602.1094 1042.0156,600.7969 1043.75,600.7969 C1044.3281,600.7969 1044.9375,600.9531 1045.4063,601.2031 C1045.8906,601.4844 1046.0625,601.7031 1046.1563,602.1094 C1046.2188,602.5156 1046.25,602.6406 1046.3906,602.7656 C1046.5313,602.9063 1046.7656,603.0156 1046.9844,603.0156 C1047.25,603.0156 1047.5156,602.875 1047.6875,602.6563 C1047.7969,602.5 1047.8281,602.3125 1047.8281,601.8906 L1047.8281,600.4688 C1047.8281,600.0313 1047.8125,599.9063 1047.7188,599.75 C1047.5625,599.4844 1047.2813,599.3438 1046.9844,599.3438 C1046.6875,599.3438 1046.4844,599.4375 1046.2656,599.75 L1046.0938,599.6719 Z " fill="#000000"/><text fill="#000000" font-family="sans-serif" font-size="14" lengthAdjust="spacing" textLength="184" x="1064.25" y="608.8467">AccommodationResource</text><line style="stroke:#181818;stroke-width:0.5;" x1="851.5" x2="1428.5" y1="620" y2="620"/><rect fill="none" height="6" style="stroke:#C82930;stroke-width:1.0;" width="6" x="858.5" y="630.6484"/><text fill="#000000" font-family="sans-serif" font-size="14" lengthAdjust="spacing" textLength="302" x="870.5" y="636.9951">AccommodationServ accommodationServ</text><line style="stroke:#181818;stroke-width:0.5;" x1="851.5" x2="1428.5" y1="644.2969" y2="644.2969"/><ellipse cx="861.5" cy="657.9453" fill="#84BE84" rx="3" ry="3" style="stroke:#038048;stroke-width:1.0;"/><text fill="#000000" font-family="sans-serif" font-size="14" lengthAdjust="spacing" textLength="362" x="870.5" y="661.292">ResponseEntity&lt;List&lt;Accommodation&gt;&gt; findAll()</text><ellipse cx="861.5" cy="674.2422" fill="#84BE84" rx="3" ry="3" style="stroke:#038048;stroke-width:1.0;"/><text fill="#000000" font-family="sans-serif" font-size="14" lengthAdjust="spacing" textLength="362" x="870.5" y="677.5889">ResponseEntity&lt;Accommodation&gt; findById(Long)</text><ellipse cx="861.5" cy="690.5391" fill="#84BE84" rx="3" ry="3" style="stroke:#038048;stroke-width:1.0;"/><text fill="#000000" font-family="sans-serif" font-size="14" lengthAdjust="spacing" textLength="488" x="870.5" y="693.8857">ResponseEntity&lt;Object&gt; addAccommodation(AccommodationDto)</text><ellipse cx="861.5" cy="706.8359" fill="#84BE84" rx="3" ry="3" style="stroke:#038048;stroke-width:1.0;"/><text fill="#000000" font-family="sans-serif" font-size="14" lengthAdjust="spacing" textLength="530" x="870.5" y="710.1826">ResponseEntity&lt;Object&gt; editAccommodation(Long,AccommodationDto)</text><ellipse cx="861.5" cy="723.1328" fill="#84BE84" rx="3" ry="3" style="stroke:#038048;stroke-width:1.0;"/><text fill="#000000" font-family="sans-serif" font-size="14" lengthAdjust="spacing" textLength="437" x="870.5" y="726.4795">ResponseEntity&lt;Object&gt; editExtras(Long,ExtraServicesDto)</text><ellipse cx="861.5" cy="739.4297" fill="#84BE84" rx="3" ry="3" style="stroke:#038048;stroke-width:1.0;"/><text fill="#000000" font-family="sans-serif" font-size="14" lengthAdjust="spacing" textLength="553" x="870.5" y="742.7764">ResponseEntity&lt;Object&gt; editObservations(Long,PartialAccommodationDto)</text><ellipse cx="861.5" cy="755.7266" fill="#84BE84" rx="3" ry="3" style="stroke:#038048;stroke-width:1.0;"/><text fill="#000000" font-family="sans-serif" font-size="14" lengthAdjust="spacing" textLength="244" x="870.5" y="759.0732">void deleteAccommodation(Long)</text></g><!--class ReservationResource--><g id="elem_ReservationResource"><rect codeLine="131" fill="#F1F1F1" height="162.0781" id="ReservationResource" rx="2.5" ry="2.5" style="stroke:#181818;stroke-width:0.5;" width="492" x="323" y="596"/><ellipse cx="488.75" cy="612" fill="#ADD1B2" rx="11" ry="11" style="stroke:#181818;stroke-width:1.0;"/><path d="M491.0938,607.6719 C490.1563,607.2344 489.5625,607.0938 488.6875,607.0938 C486.0625,607.0938 484.0625,609.1719 484.0625,611.8906 L484.0625,613.0156 C484.0625,615.5938 486.1719,617.4844 489.0625,617.4844 C490.2813,617.4844 491.4375,617.1875 492.1875,616.6406 C492.7656,616.2344 493.0938,615.7813 493.0938,615.3906 C493.0938,614.9375 492.7031,614.5469 492.2344,614.5469 C492.0156,614.5469 491.8125,614.625 491.625,614.8125 C491.1719,615.2969 491.1719,615.2969 490.9844,615.3906 C490.5625,615.6563 489.875,615.7813 489.1094,615.7813 C487.0625,615.7813 485.7656,614.6875 485.7656,612.9844 L485.7656,611.8906 C485.7656,610.1094 487.0156,608.7969 488.75,608.7969 C489.3281,608.7969 489.9375,608.9531 490.4063,609.2031 C490.8906,609.4844 491.0625,609.7031 491.1563,610.1094 C491.2188,610.5156 491.25,610.6406 491.3906,610.7656 C491.5313,610.9063 491.7656,611.0156 491.9844,611.0156 C492.25,611.0156 492.5156,610.875 492.6875,610.6563 C492.7969,610.5 492.8281,610.3125 492.8281,609.8906 L492.8281,608.4688 C492.8281,608.0313 492.8125,607.9063 492.7188,607.75 C492.5625,607.4844 492.2813,607.3438 491.9844,607.3438 C491.6875,607.3438 491.4844,607.4375 491.2656,607.75 L491.0938,607.6719 Z " fill="#000000"/><text fill="#000000" font-family="sans-serif" font-size="14" lengthAdjust="spacing" textLength="152" x="509.25" y="616.8467">ReservationResource</text><line style="stroke:#181818;stroke-width:0.5;" x1="324" x2="814" y1="628" y2="628"/><rect fill="none" height="6" style="stroke:#C82930;stroke-width:1.0;" width="6" x="331" y="638.6484"/><text fill="#000000" font-family="sans-serif" font-size="14" lengthAdjust="spacing" textLength="236" x="343" y="644.9951">ReservationServ reservationServ</text><rect fill="none" height="6" style="stroke:#C82930;stroke-width:1.0;" width="6" x="331" y="654.9453"/><text fill="#000000" font-family="sans-serif" font-size="14" lengthAdjust="spacing" textLength="302" x="343" y="661.292">AccommodationServ accommodationServ</text><line style="stroke:#181818;stroke-width:0.5;" x1="324" x2="814" y1="668.5938" y2="668.5938"/><ellipse cx="334" cy="682.2422" fill="#84BE84" rx="3" ry="3" style="stroke:#038048;stroke-width:1.0;"/><text fill="#000000" font-family="sans-serif" font-size="14" lengthAdjust="spacing" textLength="330" x="343" y="685.5889">ResponseEntity&lt;List&lt;Reservation&gt;&gt; findAll()</text><ellipse cx="334" cy="698.5391" fill="#84BE84" rx="3" ry="3" style="stroke:#038048;stroke-width:1.0;"/><text fill="#000000" font-family="sans-serif" font-size="14" lengthAdjust="spacing" textLength="330" x="343" y="701.8857">ResponseEntity&lt;Reservation&gt; findById(Long)</text><ellipse cx="334" cy="714.8359" fill="#84BE84" rx="3" ry="3" style="stroke:#038048;stroke-width:1.0;"/><text fill="#000000" font-family="sans-serif" font-size="14" lengthAdjust="spacing" textLength="424" x="343" y="718.1826">ResponseEntity&lt;Object&gt; addReservation(ReservationDto)</text><ellipse cx="334" cy="731.1328" fill="#84BE84" rx="3" ry="3" style="stroke:#038048;stroke-width:1.0;"/><text fill="#000000" font-family="sans-serif" font-size="14" lengthAdjust="spacing" textLength="466" x="343" y="734.4795">ResponseEntity&lt;Object&gt; editReservation(Long,ReservationDto)</text><ellipse cx="334" cy="747.4297" fill="#84BE84" rx="3" ry="3" style="stroke:#038048;stroke-width:1.0;"/><text fill="#000000" font-family="sans-serif" font-size="14" lengthAdjust="spacing" textLength="212" x="343" y="750.7764">void deleteReservation(Long)</text></g><!--class ResourceExceptionHandler--><g id="elem_ResourceExceptionHandler"><rect codeLine="62" fill="#F1F1F1" height="80.5938" id="ResourceExceptionHandler" rx="2.5" ry="2.5" style="stroke:#181818;stroke-width:0.5;" width="765" x="2045.5" y="636.5"/><ellipse cx="2326.75" cy="652.5" fill="#ADD1B2" rx="11" ry="11" style="stroke:#181818;stroke-width:1.0;"/><path d="M2329.0938,648.1719 C2328.1563,647.7344 2327.5625,647.5938 2326.6875,647.5938 C2324.0625,647.5938 2322.0625,649.6719 2322.0625,652.3906 L2322.0625,653.5156 C2322.0625,656.0938 2324.1719,657.9844 2327.0625,657.9844 C2328.2813,657.9844 2329.4375,657.6875 2330.1875,657.1406 C2330.7656,656.7344 2331.0938,656.2813 2331.0938,655.8906 C2331.0938,655.4375 2330.7031,655.0469 2330.2344,655.0469 C2330.0156,655.0469 2329.8125,655.125 2329.625,655.3125 C2329.1719,655.7969 2329.1719,655.7969 2328.9844,655.8906 C2328.5625,656.1563 2327.875,656.2813 2327.1094,656.2813 C2325.0625,656.2813 2323.7656,655.1875 2323.7656,653.4844 L2323.7656,652.3906 C2323.7656,650.6094 2325.0156,649.2969 2326.75,649.2969 C2327.3281,649.2969 2327.9375,649.4531 2328.4063,649.7031 C2328.8906,649.9844 2329.0625,650.2031 2329.1563,650.6094 C2329.2188,651.0156 2329.25,651.1406 2329.3906,651.2656 C2329.5313,651.4063 2329.7656,651.5156 2329.9844,651.5156 C2330.25,651.5156 2330.5156,651.375 2330.6875,651.1563 C2330.7969,651 2330.8281,650.8125 2330.8281,650.3906 L2330.8281,648.9688 C2330.8281,648.5313 2330.8125,648.4063 2330.7188,648.25 C2330.5625,647.9844 2330.2813,647.8438 2329.9844,647.8438 C2329.6875,647.8438 2329.4844,647.9375 2329.2656,648.25 L2329.0938,648.1719 Z " fill="#000000"/><text fill="#000000" font-family="sans-serif" font-size="14" lengthAdjust="spacing" textLength="194" x="2347.25" y="657.3467">ResourceExceptionHandler</text><line style="stroke:#181818;stroke-width:0.5;" x1="2046.5" x2="2809.5" y1="668.5" y2="668.5"/><line style="stroke:#181818;stroke-width:0.5;" x1="2046.5" x2="2809.5" y1="676.5" y2="676.5"/><ellipse cx="2056.5" cy="690.1484" fill="#84BE84" rx="3" ry="3" style="stroke:#038048;stroke-width:1.0;"/><text fill="#000000" font-family="sans-serif" font-size="14" lengthAdjust="spacing" textLength="739" x="2065.5" y="693.4951">ResponseEntity&lt;StandardError&gt; resourceNotFound(ResourceNotFoundException,HttpServletRequest)</text><ellipse cx="2056.5" cy="706.4453" fill="#84BE84" rx="3" ry="3" style="stroke:#038048;stroke-width:1.0;"/><text fill="#000000" font-family="sans-serif" font-size="14" lengthAdjust="spacing" textLength="607" x="2065.5" y="709.792">ResponseEntity&lt;StandardError&gt; illegalArg(IllegalArgException,HttpServletRequest)</text></g><!--class StandardError--><g id="elem_StandardError"><rect codeLine="114" fill="#F1F1F1" height="129.4844" id="StandardError" rx="2.5" ry="2.5" style="stroke:#181818;stroke-width:0.5;" width="161" x="1849.5" y="612.5"/><ellipse cx="1877.1" cy="628.5" fill="#ADD1B2" rx="11" ry="11" style="stroke:#181818;stroke-width:1.0;"/><path d="M1879.4438,624.1719 C1878.5063,623.7344 1877.9125,623.5938 1877.0375,623.5938 C1874.4125,623.5938 1872.4125,625.6719 1872.4125,628.3906 L1872.4125,629.5156 C1872.4125,632.0938 1874.5219,633.9844 1877.4125,633.9844 C1878.6313,633.9844 1879.7875,633.6875 1880.5375,633.1406 C1881.1156,632.7344 1881.4438,632.2813 1881.4438,631.8906 C1881.4438,631.4375 1881.0531,631.0469 1880.5844,631.0469 C1880.3656,631.0469 1880.1625,631.125 1879.975,631.3125 C1879.5219,631.7969 1879.5219,631.7969 1879.3344,631.8906 C1878.9125,632.1563 1878.225,632.2813 1877.4594,632.2813 C1875.4125,632.2813 1874.1156,631.1875 1874.1156,629.4844 L1874.1156,628.3906 C1874.1156,626.6094 1875.3656,625.2969 1877.1,625.2969 C1877.6781,625.2969 1878.2875,625.4531 1878.7563,625.7031 C1879.2406,625.9844 1879.4125,626.2031 1879.5063,626.6094 C1879.5688,627.0156 1879.6,627.1406 1879.7406,627.2656 C1879.8813,627.4063 1880.1156,627.5156 1880.3344,627.5156 C1880.6,627.5156 1880.8656,627.375 1881.0375,627.1563 C1881.1469,627 1881.1781,626.8125 1881.1781,626.3906 L1881.1781,624.9688 C1881.1781,624.5313 1881.1625,624.4063 1881.0688,624.25 C1880.9125,623.9844 1880.6313,623.8438 1880.3344,623.8438 C1880.0375,623.8438 1879.8344,623.9375 1879.6156,624.25 L1879.4438,624.1719 Z " fill="#000000"/><text fill="#000000" font-family="sans-serif" font-size="14" lengthAdjust="spacing" textLength="101" x="1893.9" y="633.3467">StandardError</text><line style="stroke:#181818;stroke-width:0.5;" x1="1850.5" x2="2009.5" y1="644.5" y2="644.5"/><rect fill="none" height="6" style="stroke:#C82930;stroke-width:1.0;" width="6" x="1857.5" y="655.1484"/><text fill="#000000" font-family="sans-serif" font-size="14" lengthAdjust="spacing" textLength="135" x="1869.5" y="661.4951">Instant timestamp</text><rect fill="none" height="6" style="stroke:#C82930;stroke-width:1.0;" width="6" x="1857.5" y="671.4453"/><text fill="#000000" font-family="sans-serif" font-size="14" lengthAdjust="spacing" textLength="101" x="1869.5" y="677.792">Integer status</text><rect fill="none" height="6" style="stroke:#C82930;stroke-width:1.0;" width="6" x="1857.5" y="687.7422"/><text fill="#000000" font-family="sans-serif" font-size="14" lengthAdjust="spacing" textLength="84" x="1869.5" y="694.0889">String error</text><rect fill="none" height="6" style="stroke:#C82930;stroke-width:1.0;" width="6" x="1857.5" y="704.0391"/><text fill="#000000" font-family="sans-serif" font-size="14" lengthAdjust="spacing" textLength="111" x="1869.5" y="710.3857">String message</text><rect fill="none" height="6" style="stroke:#C82930;stroke-width:1.0;" width="6" x="1857.5" y="720.3359"/><text fill="#000000" font-family="sans-serif" font-size="14" lengthAdjust="spacing" textLength="82" x="1869.5" y="726.6826">String path</text><line style="stroke:#181818;stroke-width:0.5;" x1="1850.5" x2="2009.5" y1="733.9844" y2="733.9844"/></g><!--class CheckoutJob--><g id="elem_CheckoutJob"><rect codeLine="107" fill="#F1F1F1" height="129.4844" id="CheckoutJob" rx="2.5" ry="2.5" style="stroke:#181818;stroke-width:0.5;" width="328" x="1465" y="612.5"/><ellipse cx="1578.75" cy="628.5" fill="#ADD1B2" rx="11" ry="11" style="stroke:#181818;stroke-width:1.0;"/><path d="M1581.0938,624.1719 C1580.1563,623.7344 1579.5625,623.5938 1578.6875,623.5938 C1576.0625,623.5938 1574.0625,625.6719 1574.0625,628.3906 L1574.0625,629.5156 C1574.0625,632.0938 1576.1719,633.9844 1579.0625,633.9844 C1580.2813,633.9844 1581.4375,633.6875 1582.1875,633.1406 C1582.7656,632.7344 1583.0938,632.2813 1583.0938,631.8906 C1583.0938,631.4375 1582.7031,631.0469 1582.2344,631.0469 C1582.0156,631.0469 1581.8125,631.125 1581.625,631.3125 C1581.1719,631.7969 1581.1719,631.7969 1580.9844,631.8906 C1580.5625,632.1563 1579.875,632.2813 1579.1094,632.2813 C1577.0625,632.2813 1575.7656,631.1875 1575.7656,629.4844 L1575.7656,628.3906 C1575.7656,626.6094 1577.0156,625.2969 1578.75,625.2969 C1579.3281,625.2969 1579.9375,625.4531 1580.4063,625.7031 C1580.8906,625.9844 1581.0625,626.2031 1581.1563,626.6094 C1581.2188,627.0156 1581.25,627.1406 1581.3906,627.2656 C1581.5313,627.4063 1581.7656,627.5156 1581.9844,627.5156 C1582.25,627.5156 1582.5156,627.375 1582.6875,627.1563 C1582.7969,627 1582.8281,626.8125 1582.8281,626.3906 L1582.8281,624.9688 C1582.8281,624.5313 1582.8125,624.4063 1582.7188,624.25 C1582.5625,623.9844 1582.2813,623.8438 1581.9844,623.8438 C1581.6875,623.8438 1581.4844,623.9375 1581.2656,624.25 L1581.0938,624.1719 Z " fill="#000000"/><text fill="#000000" font-family="sans-serif" font-size="14" lengthAdjust="spacing" textLength="92" x="1599.25" y="633.3467">CheckoutJob</text><line style="stroke:#181818;stroke-width:0.5;" x1="1466" x2="1792" y1="644.5" y2="644.5"/><rect fill="none" height="6" style="stroke:#C82930;stroke-width:1.0;" width="6" x="1473" y="655.1484"/><text fill="#000000" font-family="sans-serif" font-size="14" lengthAdjust="spacing" textLength="236" x="1485" y="661.4951">ReservationServ reservationServ</text><rect fill="none" height="6" style="stroke:#C82930;stroke-width:1.0;" width="6" x="1473" y="671.4453"/><text fill="#000000" font-family="sans-serif" font-size="14" lengthAdjust="spacing" textLength="302" x="1485" y="677.792">AccommodationServ accommodationServ</text><line style="stroke:#181818;stroke-width:0.5;" x1="1466" x2="1792" y1="685.0938" y2="685.0938"/><ellipse cx="1476" cy="698.7422" fill="#84BE84" rx="3" ry="3" style="stroke:#038048;stroke-width:1.0;"/><text fill="#000000" font-family="sans-serif" font-size="14" lengthAdjust="spacing" textLength="187" x="1485" y="702.0889">void inactiveReservation()</text><ellipse cx="1476" cy="715.0391" fill="#84BE84" rx="3" ry="3" style="stroke:#038048;stroke-width:1.0;"/><text fill="#000000" font-family="sans-serif" font-size="14" lengthAdjust="spacing" textLength="174" x="1485" y="718.3857">void activeReservation()</text><ellipse cx="1476" cy="731.3359" fill="#84BE84" rx="3" ry="3" style="stroke:#038048;stroke-width:1.0;"/><text fill="#000000" font-family="sans-serif" font-size="14" lengthAdjust="spacing" textLength="216" x="1485" y="734.6826">void occupationStatusActive()</text></g><!--class JpaRepository--><g id="elem_JpaRepository"><rect fill="#F1F1F1" height="48" id="JpaRepository" rx="2.5" ry="2.5" style="stroke:#181818;stroke-width:0.5;" width="133" x="3129.5" y="213"/><ellipse cx="3144.5" cy="229" fill="#ADD1B2" rx="11" ry="11" style="stroke:#181818;stroke-width:1.0;"/><path d="M3146.8438,224.6719 C3145.9063,224.2344 3145.3125,224.0938 3144.4375,224.0938 C3141.8125,224.0938 3139.8125,226.1719 3139.8125,228.8906 L3139.8125,230.0156 C3139.8125,232.5938 3141.9219,234.4844 3144.8125,234.4844 C3146.0313,234.4844 3147.1875,234.1875 3147.9375,233.6406 C3148.5156,233.2344 3148.8438,232.7813 3148.8438,232.3906 C3148.8438,231.9375 3148.4531,231.5469 3147.9844,231.5469 C3147.7656,231.5469 3147.5625,231.625 3147.375,231.8125 C3146.9219,232.2969 3146.9219,232.2969 3146.7344,232.3906 C3146.3125,232.6563 3145.625,232.7813 3144.8594,232.7813 C3142.8125,232.7813 3141.5156,231.6875 3141.5156,229.9844 L3141.5156,228.8906 C3141.5156,227.1094 3142.7656,225.7969 3144.5,225.7969 C3145.0781,225.7969 3145.6875,225.9531 3146.1563,226.2031 C3146.6406,226.4844 3146.8125,226.7031 3146.9063,227.1094 C3146.9688,227.5156 3147,227.6406 3147.1406,227.7656 C3147.2813,227.9063 3147.5156,228.0156 3147.7344,228.0156 C3148,228.0156 3148.2656,227.875 3148.4375,227.6563 C3148.5469,227.5 3148.5781,227.3125 3148.5781,226.8906 L3148.5781,225.4688 C3148.5781,225.0313 3148.5625,224.9063 3148.4688,224.75 C3148.3125,224.4844 3148.0313,224.3438 3147.7344,224.3438 C3147.4375,224.3438 3147.2344,224.4375 3147.0156,224.75 L3146.8438,224.6719 Z " fill="#000000"/><text fill="#000000" font-family="sans-serif" font-size="14" lengthAdjust="spacing" textLength="101" x="3158.5" y="233.8467">JpaRepository</text><line style="stroke:#181818;stroke-width:0.5;" x1="3130.5" x2="3261.5" y1="245" y2="245"/><line style="stroke:#181818;stroke-width:0.5;" x1="3130.5" x2="3261.5" y1="253" y2="253"/></g><!--class Serializable--><g id="elem_Serializable"><rect fill="#F1F1F1" height="48" id="Serializable" rx="2.5" ry="2.5" style="stroke:#181818;stroke-width:0.5;" width="115" x="3439.5" y="213"/><ellipse cx="3454.5" cy="229" fill="#ADD1B2" rx="11" ry="11" style="stroke:#181818;stroke-width:1.0;"/><path d="M3456.8438,224.6719 C3455.9063,224.2344 3455.3125,224.0938 3454.4375,224.0938 C3451.8125,224.0938 3449.8125,226.1719 3449.8125,228.8906 L3449.8125,230.0156 C3449.8125,232.5938 3451.9219,234.4844 3454.8125,234.4844 C3456.0313,234.4844 3457.1875,234.1875 3457.9375,233.6406 C3458.5156,233.2344 3458.8438,232.7813 3458.8438,232.3906 C3458.8438,231.9375 3458.4531,231.5469 3457.9844,231.5469 C3457.7656,231.5469 3457.5625,231.625 3457.375,231.8125 C3456.9219,232.2969 3456.9219,232.2969 3456.7344,232.3906 C3456.3125,232.6563 3455.625,232.7813 3454.8594,232.7813 C3452.8125,232.7813 3451.5156,231.6875 3451.5156,229.9844 L3451.5156,228.8906 C3451.5156,227.1094 3452.7656,225.7969 3454.5,225.7969 C3455.0781,225.7969 3455.6875,225.9531 3456.1563,226.2031 C3456.6406,226.4844 3456.8125,226.7031 3456.9063,227.1094 C3456.9688,227.5156 3457,227.6406 3457.1406,227.7656 C3457.2813,227.9063 3457.5156,228.0156 3457.7344,228.0156 C3458,228.0156 3458.2656,227.875 3458.4375,227.6563 C3458.5469,227.5 3458.5781,227.3125 3458.5781,226.8906 L3458.5781,225.4688 C3458.5781,225.0313 3458.5625,224.9063 3458.4688,224.75 C3458.3125,224.4844 3458.0313,224.3438 3457.7344,224.3438 C3457.4375,224.3438 3457.2344,224.4375 3457.0156,224.75 L3456.8438,224.6719 Z " fill="#000000"/><text fill="#000000" font-family="sans-serif" font-size="14" lengthAdjust="spacing" textLength="83" x="3468.5" y="233.8467">Serializable</text><line style="stroke:#181818;stroke-width:0.5;" x1="3440.5" x2="3553.5" y1="245" y2="245"/><line style="stroke:#181818;stroke-width:0.5;" x1="3440.5" x2="3553.5" y1="253" y2="253"/></g><!--reverse link JpaRepository to AccommodationRepo--><g id="link_JpaRepository_AccommodationRepo"><path codeLine="147" d="M3235.1903,272.7306 C3274.8603,306.7706 3341.6,357.347 3423,381 C3438.69,385.559 5762.54,379.739 5776,389 C5865.79,450.768 5882.96,596.341 5886.24,652.932 " fill="none" id="JpaRepository-backto-AccommodationRepo" style="stroke:#181818;stroke-width:1.0;"/><polygon fill="none" points="3221.53,261.009,3231.2831,277.284,3239.0975,268.1772,3221.53,261.009" style="stroke:#181818;stroke-width:1.0;"/></g><!--reverse link Filter to CorsFilter--><g id="link_Filter_CorsFilter"><path codeLine="148" d="M5159.6205,718.9242 C5166.2705,747.9442 5176.83,780.24 5204,814.5 C5220.67,835.515 5244.05,853.287 5265.9,866.962 " fill="none" id="Filter-backto-CorsFilter" style="stroke:#181818;stroke-width:1.0;stroke-dasharray:7.0,7.0;"/><polygon fill="none" points="5155.6,701.379,5153.7721,720.2644,5165.4689,717.5841,5155.6,701.379" style="stroke:#181818;stroke-width:1.0;"/></g><!--reverse link JpaRepository to ReservationRepo--><g id="link_JpaRepository_ReservationRepo"><path codeLine="149" d="M3235.1926,272.7249 C3274.8726,306.7599 3341.6,357.333 3423,381 C3451.57,389.306 5540.34,372.356 5565,389 C5655.98,450.409 5676.26,596.195 5680.74,652.887 " fill="none" id="JpaRepository-backto-ReservationRepo" style="stroke:#181818;stroke-width:1.0;"/><polygon fill="none" points="3221.53,261.006,3231.2863,277.2791,3239.0989,268.1707,3221.53,261.006" style="stroke:#181818;stroke-width:1.0;"/></g><!--reverse link RuntimeException to IllegalArgException--><g id="link_RuntimeException_IllegalArgException"><path codeLine="150" d="M7061.7627,716.9312 C7038.7227,759.1842 6998.68,832.584 6975.63,874.852 " fill="none" id="RuntimeException-backto-IllegalArgException" style="stroke:#181818;stroke-width:1.0;"/><polygon fill="none" points="7070.38,701.128,7056.495,714.0588,7067.0305,719.8037,7070.38,701.128" style="stroke:#181818;stroke-width:1.0;"/></g><!--reverse link Serializable to ExtraServices--><g id="link_Serializable_ExtraServices"><path codeLine="151" d="M3457.8649,272.8851 C3419.3849,306.1621 3356.35,354.685 3279,381 C3256.64,388.609 3192.73,376.01 3173,389 C3095.52,440.013 3055.6,544.493 3037.02,612.325 " fill="none" id="Serializable-backto-ExtraServices" style="stroke:#181818;stroke-width:1.0;stroke-dasharray:7.0,7.0;"/><polygon fill="none" points="3471.48,261.111,3453.9402,268.3468,3461.7896,277.4235,3471.48,261.111" style="stroke:#181818;stroke-width:1.0;"/></g><!--reverse link Serializable to Accommodation--><g id="link_Serializable_Accommodation"><path codeLine="152" d="M3512.7088,277.9947 C3534.5488,333.6157 3584.43,460.645 3624.74,563.296 " fill="none" id="Serializable-backto-Accommodation" style="stroke:#181818;stroke-width:1.0;stroke-dasharray:7.0,7.0;"/><polygon fill="none" points="3506.13,261.24,3507.124,280.1876,3518.2937,275.8017,3506.13,261.24" style="stroke:#181818;stroke-width:1.0;"/></g><!--reverse link Serializable to Reservation--><g id="link_Serializable_Reservation"><path codeLine="153" d="M3481.2912,277.9947 C3459.4512,333.6157 3409.57,460.645 3369.26,563.296 " fill="none" id="Serializable-backto-Reservation" style="stroke:#181818;stroke-width:1.0;stroke-dasharray:7.0,7.0;"/><polygon fill="none" points="3487.87,261.24,3475.7063,275.8017,3486.876,280.1876,3487.87,261.24" style="stroke:#181818;stroke-width:1.0;"/></g><!--reverse link Serializable to StandardError--><g id="link_Serializable_StandardError"><path codeLine="154" d="M3458.9348,273.2575 C3420.9448,307.3005 3357.64,357.235 3279,381 C3262.37,386.026 2042.1,378.847 2028,389 C1957.5,439.764 1937.17,544.316 1931.62,612.231 " fill="none" id="Serializable-backto-StandardError" style="stroke:#181818;stroke-width:1.0;stroke-dasharray:7.0,7.0;"/><polygon fill="none" points="3472.34,261.245,3454.9306,268.7891,3462.9389,277.7259,3472.34,261.245" style="stroke:#181818;stroke-width:1.0;"/></g><!--reverse link RuntimeException to ResourceNotFoundException--><g id="link_RuntimeException_ResourceNotFoundException"><path codeLine="155" d="M7104.3948,716.8998 C7127.6348,759.1528 7168.02,832.584 7191.27,874.852 " fill="none" id="RuntimeException-backto-ResourceNotFoundException" style="stroke:#181818;stroke-width:1.0;"/><polygon fill="none" points="7095.72,701.128,7099.1375,719.7913,7109.652,714.0082,7095.72,701.128" style="stroke:#181818;stroke-width:1.0;"/></g><!--SRC=[nLVDSk8u4Bxp53uwjSHFa4eL8Ko5L19IC3bjxK7O3IWHabUIcSbcvjst9MCZoO0DcPevMTrgjUJ- -RexPKIfA1Nh91TIBmIZ8bc9Gi4RG4xvCb4WDpG5bGnIb5gBZ6Wg-0ovqKVlClAuKyX5H49Exw_eWIfzvObUHmlAim5Z7bV55oWzoSsQi7qdRjx7MVmW-D88UlkH8XlmEB57cGCRGRCe0mOwa2mr_kobRUQuSuX1dZEQbfT_eFOFfP58VvRNh0dbyKnB5FpxdqwwQrDFmInzGpiyQsRfqvMH7R7Qn0xFjsz3sBEkisjjwwfnre5TNQbAazqsAimJFO7moSPEb6kG2vB2CLj9_6T5jP0q34rhdOykzau5Nz1bClj6bakGGqjPHqvou8FdSKHoYWQxZ1v9VbLwiZzBLx0crz4IE4YYeQHDt7QuyFRh97ZihHRMkwNsY9Crx2Wnhms3p243mf4zmo0hy1gFnFr9cXPv6JEbX0WO9vXaAAJwGXdwmTgZTAyeER49IVJq5FujGEb-JQeS4nZwfTHmXU5_dZV3IFyuANVWUmeslbKoPWoMX0taSbGnkob3xm1JoUYxbcIsLMpTP08weXckReGm3eZ0o5Ik2Vatq1IL96CG0gSFclX4uCMwmmkDc4g2o30UYsOlznFpVHW_Fa_mEdG3wii0UMQv13r4oi913Lk1dWrX1KmMCSftYcv495785C9qBBdDQc6XZOIS4dXiA8suflhzQa_ngA4jlcZAjrMDG7moVuLKNqSaouvK3qpK8sSXexfPKFedQh3nfigZNkor7vtie6Ahu9b8JGdRzuJFLy7QrKwsLOwkS-sES0pr4a62fsE4yOp8R2IbaDTHfUv9w2-Yu5ay3HYrplwTrhaFG1UjwccD0_4UIDYhiYkOErWLGFbAi0paKmde9kL8LZ2jgbHSKPPjrtCoHzXpW695r3De2pSfORTOPL0UqZVAcpnHw0gNl5GQPrDOW0IUmWc8vuEIZtWTIjGOiHuhQRCsLHkDadIvfsjnEXlSzq4ON0eT7q2MWJMF4-_QZyQMJzh6A2oXg2_aUHeRco6ZUoI52M-j_yagqztnRg-tr-s_DPoharGDKaqtq1hXRUMqEw2zOaGdm-rJxiKyxBrjqP8-tRcmsR2XdDYV2hjoktbaAyoTqZJnsNZjWQJzpJ77JW0zgEaQGP2iSoTpLPMlstW0Ssf7uW55bWumu4jNv_Pj1z7VTcydjKQDZBRDqUreDXc-F0zkROlaB1y7JozVHq_3GTUMgQ7_xAR9wtgTbkbNnTw-fig5tQCjLUkWUA2XEZ0ojlSpuHJPRvu-EdDsHTq3NP9Ro7_z5DRh2OcHdnlr2ucG-at8jmGl9ybhJdR3q7jodvDfJKLNFoulpv-9U-rZttRak_gH92SDYR_ZVuAfi7SgfXJSmDeEIjekxpXGzbx9XYHu6DCC0ud-H-OCMYsuRy3yb2RFsv_IvDZvF3sjjUQFkEvWJVaV]--></g></svg>