<?xml version="1.0" encoding="us-ascii" standalone="no"?><svg xmlns="http://www.w3.org/2000/svg" xmlns:xlink="http://www.w3.org/1999/xlink" contentStyleType="text/css" height="1115px" preserveAspectRatio="none" style="width:1565px;height:1115px;background:#FFFFFF;" version="1.1" viewBox="0 0 1565 1115" width="1565px" zoomAndPan="magnify"><defs/><g><text fill="#000000" font-family="sans-serif" font-size="14" font-weight="bold" lengthAdjust="spacing" textLength="258" x="646.5" y="22.9951">House Keeper - EndPointTracker</text><!--cluster Representations--><g id="cluster_Representations"><path d="M8.5,43.2969 L143.5,43.2969 A3.75,3.75 0 0 1 146,45.7969 L153,65.5938 L468.5,65.5938 A2.5,2.5 0 0 1 471,68.0938 L471,467.7969 A2.5,2.5 0 0 1 468.5,470.2969 L8.5,470.2969 A2.5,2.5 0 0 1 6,467.7969 L6,45.7969 A2.5,2.5 0 0 1 8.5,43.2969 " fill="none" style="stroke:#000000;stroke-width:1.5;"/><line style="stroke:#000000;stroke-width:1.5;" x1="6" x2="153" y1="65.5938" y2="65.5938"/><text fill="#000000" font-family="sans-serif" font-size="14" font-weight="bold" lengthAdjust="spacing" textLength="134" x="10" y="58.292">Representations</text></g><!--class reservationDTO--><g id="elem_reservationDTO"><rect codeLine="160" fill="#C0C0C0" height="198.9375" id="reservationDTO" rx="2.5" ry="2.5" style="stroke:#181818;stroke-width:0.5;" width="216" x="22" y="78.2969"/><ellipse cx="69.25" cy="98.4297" fill="#ADD1B2" rx="11" ry="11" style="stroke:#181818;stroke-width:1.0;"/><path d="M71.5938,94.1016 C70.6563,93.6641 70.0625,93.5234 69.1875,93.5234 C66.5625,93.5234 64.5625,95.6016 64.5625,98.3203 L64.5625,99.4453 C64.5625,102.0234 66.6719,103.9141 69.5625,103.9141 C70.7813,103.9141 71.9375,103.6172 72.6875,103.0703 C73.2656,102.6641 73.5938,102.2109 73.5938,101.8203 C73.5938,101.3672 73.2031,100.9766 72.7344,100.9766 C72.5156,100.9766 72.3125,101.0547 72.125,101.2422 C71.6719,101.7266 71.6719,101.7266 71.4844,101.8203 C71.0625,102.0859 70.375,102.2109 69.6094,102.2109 C67.5625,102.2109 66.2656,101.1172 66.2656,99.4141 L66.2656,98.3203 C66.2656,96.5391 67.5156,95.2266 69.25,95.2266 C69.8281,95.2266 70.4375,95.3828 70.9063,95.6328 C71.3906,95.9141 71.5625,96.1328 71.6563,96.5391 C71.7188,96.9453 71.75,97.0703 71.8906,97.1953 C72.0313,97.3359 72.2656,97.4453 72.4844,97.4453 C72.75,97.4453 73.0156,97.3047 73.1875,97.0859 C73.2969,96.9297 73.3281,96.7422 73.3281,96.3203 L73.3281,94.8984 C73.3281,94.4609 73.3125,94.3359 73.2188,94.1797 C73.0625,93.9141 72.7813,93.7734 72.4844,93.7734 C72.1875,93.7734 71.9844,93.8672 71.7656,94.1797 L71.5938,94.1016 Z " fill="#000000"/><text fill="#000000" font-family="sans-serif" font-size="12" font-style="italic" lengthAdjust="spacing" textLength="102" x="95.25" y="94.4355">&#171;representation&#187;</text><text fill="#000000" font-family="sans-serif" font-size="14" lengthAdjust="spacing" textLength="113" x="89.75" y="110.2607">reservationDTO</text><line style="stroke:#181818;stroke-width:0.5;" x1="23" x2="237" y1="118.5625" y2="118.5625"/><text fill="#000000" font-family="sans-serif" font-size="14" lengthAdjust="spacing" textLength="87" x="28" y="155.8545">holderName</text><text fill="#000000" font-family="sans-serif" font-size="14" lengthAdjust="spacing" textLength="43" x="28" y="172.1514">adults</text><text fill="#000000" font-family="sans-serif" font-size="14" lengthAdjust="spacing" textLength="34" x="28" y="188.4482">child</text><text fill="#000000" font-family="sans-serif" font-size="14" lengthAdjust="spacing" textLength="48" x="28" y="204.7451">babies</text><text fill="#000000" font-family="sans-serif" font-size="14" lengthAdjust="spacing" textLength="49" x="28" y="221.042">hasPet</text><text fill="#000000" font-family="sans-serif" font-size="14" lengthAdjust="spacing" textLength="56" x="28" y="237.3389">checkin</text><text fill="#000000" font-family="sans-serif" font-size="14" lengthAdjust="spacing" textLength="67" x="28" y="253.6357">checkout</text><text fill="#000000" font-family="sans-serif" font-size="14" lengthAdjust="spacing" textLength="204" x="28" y="269.9326">accommodationIdReference</text><line style="stroke:#181818;stroke-width:1.0;" x1="23" x2="92" y1="134.7109" y2="134.7109"/><text fill="#000000" font-family="sans-serif" font-size="14" lengthAdjust="spacing" textLength="76" x="92" y="139.0576">Properties</text><line style="stroke:#181818;stroke-width:1.0;" x1="168" x2="237" y1="134.7109" y2="134.7109"/></g><!--class AccommodationDTO--><g id="elem_AccommodationDTO"><rect codeLine="172" fill="#C0C0C0" height="133.75" id="AccommodationDTO" rx="2.5" ry="2.5" style="stroke:#181818;stroke-width:0.5;" width="181" x="273.5" y="110.7969"/><ellipse cx="288.5" cy="130.9297" fill="#ADD1B2" rx="11" ry="11" style="stroke:#181818;stroke-width:1.0;"/><path d="M290.8438,126.6016 C289.9063,126.1641 289.3125,126.0234 288.4375,126.0234 C285.8125,126.0234 283.8125,128.1016 283.8125,130.8203 L283.8125,131.9453 C283.8125,134.5234 285.9219,136.4141 288.8125,136.4141 C290.0313,136.4141 291.1875,136.1172 291.9375,135.5703 C292.5156,135.1641 292.8438,134.7109 292.8438,134.3203 C292.8438,133.8672 292.4531,133.4766 291.9844,133.4766 C291.7656,133.4766 291.5625,133.5547 291.375,133.7422 C290.9219,134.2266 290.9219,134.2266 290.7344,134.3203 C290.3125,134.5859 289.625,134.7109 288.8594,134.7109 C286.8125,134.7109 285.5156,133.6172 285.5156,131.9141 L285.5156,130.8203 C285.5156,129.0391 286.7656,127.7266 288.5,127.7266 C289.0781,127.7266 289.6875,127.8828 290.1563,128.1328 C290.6406,128.4141 290.8125,128.6328 290.9063,129.0391 C290.9688,129.4453 291,129.5703 291.1406,129.6953 C291.2813,129.8359 291.5156,129.9453 291.7344,129.9453 C292,129.9453 292.2656,129.8047 292.4375,129.5859 C292.5469,129.4297 292.5781,129.2422 292.5781,128.8203 L292.5781,127.3984 C292.5781,126.9609 292.5625,126.8359 292.4688,126.6797 C292.3125,126.4141 292.0313,126.2734 291.7344,126.2734 C291.4375,126.2734 291.2344,126.3672 291.0156,126.6797 L290.8438,126.6016 Z " fill="#000000"/><text fill="#000000" font-family="sans-serif" font-size="12" font-style="italic" lengthAdjust="spacing" textLength="102" x="326" y="126.9355">&#171;representation&#187;</text><text fill="#000000" font-family="sans-serif" font-size="14" lengthAdjust="spacing" textLength="149" x="302.5" y="142.7607">AccommodationDTO</text><line style="stroke:#181818;stroke-width:0.5;" x1="274.5" x2="453.5" y1="151.0625" y2="151.0625"/><text fill="#000000" font-family="sans-serif" font-size="14" lengthAdjust="spacing" textLength="40" x="279.5" y="188.3545">name</text><text fill="#000000" font-family="sans-serif" font-size="14" lengthAdjust="spacing" textLength="86" x="279.5" y="204.6514">observation</text><text fill="#000000" font-family="sans-serif" font-size="14" lengthAdjust="spacing" textLength="106" x="279.5" y="220.9482">cleaningStatus</text><text fill="#000000" font-family="sans-serif" font-size="14" lengthAdjust="spacing" textLength="126" x="279.5" y="237.2451">occupationStatus</text><line style="stroke:#181818;stroke-width:1.0;" x1="274.5" x2="326" y1="167.2109" y2="167.2109"/><text fill="#000000" font-family="sans-serif" font-size="14" lengthAdjust="spacing" textLength="76" x="326" y="171.5576">Properties</text><line style="stroke:#181818;stroke-width:1.0;" x1="402" x2="453.5" y1="167.2109" y2="167.2109"/></g><!--class ExtraServiceDTO--><g id="elem_ExtraServiceDTO"><rect codeLine="180" fill="#C0C0C0" height="117.4531" id="ExtraServiceDTO" rx="2.5" ry="2.5" style="stroke:#181818;stroke-width:0.5;" width="154" x="38" y="337.2969"/><ellipse cx="53" cy="357.4297" fill="#ADD1B2" rx="11" ry="11" style="stroke:#181818;stroke-width:1.0;"/><path d="M55.3438,353.1016 C54.4063,352.6641 53.8125,352.5234 52.9375,352.5234 C50.3125,352.5234 48.3125,354.6016 48.3125,357.3203 L48.3125,358.4453 C48.3125,361.0234 50.4219,362.9141 53.3125,362.9141 C54.5313,362.9141 55.6875,362.6172 56.4375,362.0703 C57.0156,361.6641 57.3438,361.2109 57.3438,360.8203 C57.3438,360.3672 56.9531,359.9766 56.4844,359.9766 C56.2656,359.9766 56.0625,360.0547 55.875,360.2422 C55.4219,360.7266 55.4219,360.7266 55.2344,360.8203 C54.8125,361.0859 54.125,361.2109 53.3594,361.2109 C51.3125,361.2109 50.0156,360.1172 50.0156,358.4141 L50.0156,357.3203 C50.0156,355.5391 51.2656,354.2266 53,354.2266 C53.5781,354.2266 54.1875,354.3828 54.6563,354.6328 C55.1406,354.9141 55.3125,355.1328 55.4063,355.5391 C55.4688,355.9453 55.5,356.0703 55.6406,356.1953 C55.7813,356.3359 56.0156,356.4453 56.2344,356.4453 C56.5,356.4453 56.7656,356.3047 56.9375,356.0859 C57.0469,355.9297 57.0781,355.7422 57.0781,355.3203 L57.0781,353.8984 C57.0781,353.4609 57.0625,353.3359 56.9688,353.1797 C56.8125,352.9141 56.5313,352.7734 56.2344,352.7734 C55.9375,352.7734 55.7344,352.8672 55.5156,353.1797 L55.3438,353.1016 Z " fill="#000000"/><text fill="#000000" font-family="sans-serif" font-size="12" font-style="italic" lengthAdjust="spacing" textLength="102" x="77" y="353.4355">&#171;representation&#187;</text><text fill="#000000" font-family="sans-serif" font-size="14" lengthAdjust="spacing" textLength="122" x="67" y="369.2607">ExtraServiceDTO</text><line style="stroke:#181818;stroke-width:0.5;" x1="39" x2="191" y1="377.5625" y2="377.5625"/><text fill="#000000" font-family="sans-serif" font-size="14" lengthAdjust="spacing" textLength="100" x="44" y="414.8545">extraCleaning</text><text fill="#000000" font-family="sans-serif" font-size="14" lengthAdjust="spacing" textLength="66" x="44" y="431.1514">extraBed</text><text fill="#000000" font-family="sans-serif" font-size="14" lengthAdjust="spacing" textLength="84" x="44" y="447.4482">extraCradle</text><line style="stroke:#181818;stroke-width:1.0;" x1="39" x2="77" y1="393.7109" y2="393.7109"/><text fill="#000000" font-family="sans-serif" font-size="14" lengthAdjust="spacing" textLength="76" x="77" y="398.0576">Properties</text><line style="stroke:#181818;stroke-width:1.0;" x1="153" x2="191" y1="393.7109" y2="393.7109"/></g><!--class PartialAccommodationDTO--><g id="elem_PartialAccommodationDTO"><rect codeLine="187" fill="#C0C0C0" height="117.4531" id="PartialAccommodationDTO" rx="2.5" ry="2.5" style="stroke:#181818;stroke-width:0.5;" width="227" x="227.5" y="337.2969"/><ellipse cx="242.5" cy="357.4297" fill="#ADD1B2" rx="11" ry="11" style="stroke:#181818;stroke-width:1.0;"/><path d="M244.8438,353.1016 C243.9063,352.6641 243.3125,352.5234 242.4375,352.5234 C239.8125,352.5234 237.8125,354.6016 237.8125,357.3203 L237.8125,358.4453 C237.8125,361.0234 239.9219,362.9141 242.8125,362.9141 C244.0313,362.9141 245.1875,362.6172 245.9375,362.0703 C246.5156,361.6641 246.8438,361.2109 246.8438,360.8203 C246.8438,360.3672 246.4531,359.9766 245.9844,359.9766 C245.7656,359.9766 245.5625,360.0547 245.375,360.2422 C244.9219,360.7266 244.9219,360.7266 244.7344,360.8203 C244.3125,361.0859 243.625,361.2109 242.8594,361.2109 C240.8125,361.2109 239.5156,360.1172 239.5156,358.4141 L239.5156,357.3203 C239.5156,355.5391 240.7656,354.2266 242.5,354.2266 C243.0781,354.2266 243.6875,354.3828 244.1563,354.6328 C244.6406,354.9141 244.8125,355.1328 244.9063,355.5391 C244.9688,355.9453 245,356.0703 245.1406,356.1953 C245.2813,356.3359 245.5156,356.4453 245.7344,356.4453 C246,356.4453 246.2656,356.3047 246.4375,356.0859 C246.5469,355.9297 246.5781,355.7422 246.5781,355.3203 L246.5781,353.8984 C246.5781,353.4609 246.5625,353.3359 246.4688,353.1797 C246.3125,352.9141 246.0313,352.7734 245.7344,352.7734 C245.4375,352.7734 245.2344,352.8672 245.0156,353.1797 L244.8438,353.1016 Z " fill="#000000"/><text fill="#000000" font-family="sans-serif" font-size="12" font-style="italic" lengthAdjust="spacing" textLength="102" x="303" y="353.4355">&#171;representation&#187;</text><text fill="#000000" font-family="sans-serif" font-size="14" lengthAdjust="spacing" textLength="195" x="256.5" y="369.2607">PartialAccommodationDTO</text><line style="stroke:#181818;stroke-width:0.5;" x1="228.5" x2="453.5" y1="377.5625" y2="377.5625"/><text fill="#000000" font-family="sans-serif" font-size="14" lengthAdjust="spacing" textLength="86" x="233.5" y="414.8545">observation</text><text fill="#000000" font-family="sans-serif" font-size="14" lengthAdjust="spacing" textLength="106" x="233.5" y="431.1514">cleaningStatus</text><text fill="#000000" font-family="sans-serif" font-size="14" lengthAdjust="spacing" textLength="126" x="233.5" y="447.4482">occupationStatus</text><line style="stroke:#181818;stroke-width:1.0;" x1="228.5" x2="303" y1="393.7109" y2="393.7109"/><text fill="#000000" font-family="sans-serif" font-size="14" lengthAdjust="spacing" textLength="76" x="303" y="398.0576">Properties</text><line style="stroke:#181818;stroke-width:1.0;" x1="379" x2="453.5" y1="393.7109" y2="393.7109"/></g><!--class House Keeper--><g id="elem_House Keeper"><rect codeLine="12" fill="#FFFF00" height="56.2656" id="House Keeper" rx="2.5" ry="2.5" style="stroke:#181818;stroke-width:0.5;" width="132" x="735" y="149.7969"/><ellipse cx="750" cy="169.9297" fill="#ADD1B2" rx="11" ry="11" style="stroke:#181818;stroke-width:1.0;"/><path d="M752.3438,165.6016 C751.4063,165.1641 750.8125,165.0234 749.9375,165.0234 C747.3125,165.0234 745.3125,167.1016 745.3125,169.8203 L745.3125,170.9453 C745.3125,173.5234 747.4219,175.4141 750.3125,175.4141 C751.5313,175.4141 752.6875,175.1172 753.4375,174.5703 C754.0156,174.1641 754.3438,173.7109 754.3438,173.3203 C754.3438,172.8672 753.9531,172.4766 753.4844,172.4766 C753.2656,172.4766 753.0625,172.5547 752.875,172.7422 C752.4219,173.2266 752.4219,173.2266 752.2344,173.3203 C751.8125,173.5859 751.125,173.7109 750.3594,173.7109 C748.3125,173.7109 747.0156,172.6172 747.0156,170.9141 L747.0156,169.8203 C747.0156,168.0391 748.2656,166.7266 750,166.7266 C750.5781,166.7266 751.1875,166.8828 751.6563,167.1328 C752.1406,167.4141 752.3125,167.6328 752.4063,168.0391 C752.4688,168.4453 752.5,168.5703 752.6406,168.6953 C752.7813,168.8359 753.0156,168.9453 753.2344,168.9453 C753.5,168.9453 753.7656,168.8047 753.9375,168.5859 C754.0469,168.4297 754.0781,168.2422 754.0781,167.8203 L754.0781,166.3984 C754.0781,165.9609 754.0625,165.8359 753.9688,165.6797 C753.8125,165.4141 753.5313,165.2734 753.2344,165.2734 C752.9375,165.2734 752.7344,165.3672 752.5156,165.6797 L752.3438,165.6016 Z " fill="#000000"/><text fill="#000000" font-family="sans-serif" font-size="12" font-style="italic" lengthAdjust="spacing" textLength="32" x="798" y="165.9355">&#171;api&#187;</text><text fill="#000000" font-family="sans-serif" font-size="14" lengthAdjust="spacing" textLength="100" x="764" y="181.7607">House Keeper</text><line style="stroke:#181818;stroke-width:0.5;" x1="736" x2="866" y1="190.0625" y2="190.0625"/><line style="stroke:#181818;stroke-width:0.5;" x1="736" x2="866" y1="198.0625" y2="198.0625"/></g><!--class /reservation--><g id="elem_/reservation"><rect codeLine="14" fill="#9ACD32" height="72.7109" id="/reservation" rx="2.5" ry="2.5" style="stroke:#181818;stroke-width:0.5;" width="119" x="615.5" y="359.2969"/><ellipse cx="630.5" cy="379.4297" fill="#ADD1B2" rx="11" ry="11" style="stroke:#181818;stroke-width:1.0;"/><path d="M632.8438,375.1016 C631.9063,374.6641 631.3125,374.5234 630.4375,374.5234 C627.8125,374.5234 625.8125,376.6016 625.8125,379.3203 L625.8125,380.4453 C625.8125,383.0234 627.9219,384.9141 630.8125,384.9141 C632.0313,384.9141 633.1875,384.6172 633.9375,384.0703 C634.5156,383.6641 634.8438,383.2109 634.8438,382.8203 C634.8438,382.3672 634.4531,381.9766 633.9844,381.9766 C633.7656,381.9766 633.5625,382.0547 633.375,382.2422 C632.9219,382.7266 632.9219,382.7266 632.7344,382.8203 C632.3125,383.0859 631.625,383.2109 630.8594,383.2109 C628.8125,383.2109 627.5156,382.1172 627.5156,380.4141 L627.5156,379.3203 C627.5156,377.5391 628.7656,376.2266 630.5,376.2266 C631.0781,376.2266 631.6875,376.3828 632.1563,376.6328 C632.6406,376.9141 632.8125,377.1328 632.9063,377.5391 C632.9688,377.9453 633,378.0703 633.1406,378.1953 C633.2813,378.3359 633.5156,378.4453 633.7344,378.4453 C634,378.4453 634.2656,378.3047 634.4375,378.0859 C634.5469,377.9297 634.5781,377.7422 634.5781,377.3203 L634.5781,375.8984 C634.5781,375.4609 634.5625,375.3359 634.4688,375.1797 C634.3125,374.9141 634.0313,374.7734 633.7344,374.7734 C633.4375,374.7734 633.2344,374.8672 633.0156,375.1797 L632.8438,375.1016 Z " fill="#000000"/><text fill="#000000" font-family="sans-serif" font-size="12" font-style="italic" lengthAdjust="spacing" textLength="66" x="655" y="375.4355">&#171;resource&#187;</text><text fill="#000000" font-family="sans-serif" font-size="14" lengthAdjust="spacing" textLength="87" x="644.5" y="391.2607">/reservation</text><line style="stroke:#181818;stroke-width:0.5;" x1="616.5" x2="733.5" y1="399.5625" y2="399.5625"/><line style="stroke:#181818;stroke-width:0.5;" x1="616.5" x2="658.5" y1="415.7109" y2="415.7109"/><text fill="#000000" font-family="sans-serif" font-size="14" lengthAdjust="spacing" textLength="33" x="658.5" y="420.0576">http</text><line style="stroke:#181818;stroke-width:0.5;" x1="691.5" x2="733.5" y1="415.7109" y2="415.7109"/></g><!--class /add--><g id="elem_/add"><rect codeLine="20" fill="#9ACD32" height="84.8594" id="/add" rx="2.5" ry="2.5" style="stroke:#181818;stroke-width:0.5;" width="168" x="296" y="514.2969"/><ellipse cx="344.75" cy="534.4297" fill="#ADD1B2" rx="11" ry="11" style="stroke:#181818;stroke-width:1.0;"/><path d="M347.0938,530.1016 C346.1563,529.6641 345.5625,529.5234 344.6875,529.5234 C342.0625,529.5234 340.0625,531.6016 340.0625,534.3203 L340.0625,535.4453 C340.0625,538.0234 342.1719,539.9141 345.0625,539.9141 C346.2813,539.9141 347.4375,539.6172 348.1875,539.0703 C348.7656,538.6641 349.0938,538.2109 349.0938,537.8203 C349.0938,537.3672 348.7031,536.9766 348.2344,536.9766 C348.0156,536.9766 347.8125,537.0547 347.625,537.2422 C347.1719,537.7266 347.1719,537.7266 346.9844,537.8203 C346.5625,538.0859 345.875,538.2109 345.1094,538.2109 C343.0625,538.2109 341.7656,537.1172 341.7656,535.4141 L341.7656,534.3203 C341.7656,532.5391 343.0156,531.2266 344.75,531.2266 C345.3281,531.2266 345.9375,531.3828 346.4063,531.6328 C346.8906,531.9141 347.0625,532.1328 347.1563,532.5391 C347.2188,532.9453 347.25,533.0703 347.3906,533.1953 C347.5313,533.3359 347.7656,533.4453 347.9844,533.4453 C348.25,533.4453 348.5156,533.3047 348.6875,533.0859 C348.7969,532.9297 348.8281,532.7422 348.8281,532.3203 L348.8281,530.8984 C348.8281,530.4609 348.8125,530.3359 348.7188,530.1797 C348.5625,529.9141 348.2813,529.7734 347.9844,529.7734 C347.6875,529.7734 347.4844,529.8672 347.2656,530.1797 L347.0938,530.1016 Z " fill="#000000"/><text fill="#000000" font-family="sans-serif" font-size="12" font-style="italic" lengthAdjust="spacing" textLength="66" x="363.25" y="530.4355">&#171;resource&#187;</text><text fill="#000000" font-family="sans-serif" font-size="14" lengthAdjust="spacing" textLength="31" x="380.75" y="546.2607">/add</text><line style="stroke:#181818;stroke-width:0.5;" x1="297" x2="463" y1="554.5625" y2="554.5625"/><text fill="#000000" font-family="sans-serif" font-size="14" lengthAdjust="spacing" textLength="156" x="302" y="591.8545">post(reservationDTO)</text><line style="stroke:#181818;stroke-width:0.5;" x1="297" x2="363.5" y1="570.7109" y2="570.7109"/><text fill="#000000" font-family="sans-serif" font-size="14" lengthAdjust="spacing" textLength="33" x="363.5" y="575.0576">http</text><line style="stroke:#181818;stroke-width:0.5;" x1="396.5" x2="463" y1="570.7109" y2="570.7109"/></g><!--class /get--><g id="elem_/get"><rect codeLine="27" fill="#9ACD32" height="72.7109" id="/get" rx="2.5" ry="2.5" style="stroke:#181818;stroke-width:0.5;" width="94" x="499" y="520.2969"/><ellipse cx="514" cy="540.4297" fill="#ADD1B2" rx="11" ry="11" style="stroke:#181818;stroke-width:1.0;"/><path d="M516.3438,536.1016 C515.4063,535.6641 514.8125,535.5234 513.9375,535.5234 C511.3125,535.5234 509.3125,537.6016 509.3125,540.3203 L509.3125,541.4453 C509.3125,544.0234 511.4219,545.9141 514.3125,545.9141 C515.5313,545.9141 516.6875,545.6172 517.4375,545.0703 C518.0156,544.6641 518.3438,544.2109 518.3438,543.8203 C518.3438,543.3672 517.9531,542.9766 517.4844,542.9766 C517.2656,542.9766 517.0625,543.0547 516.875,543.2422 C516.4219,543.7266 516.4219,543.7266 516.2344,543.8203 C515.8125,544.0859 515.125,544.2109 514.3594,544.2109 C512.3125,544.2109 511.0156,543.1172 511.0156,541.4141 L511.0156,540.3203 C511.0156,538.5391 512.2656,537.2266 514,537.2266 C514.5781,537.2266 515.1875,537.3828 515.6563,537.6328 C516.1406,537.9141 516.3125,538.1328 516.4063,538.5391 C516.4688,538.9453 516.5,539.0703 516.6406,539.1953 C516.7813,539.3359 517.0156,539.4453 517.2344,539.4453 C517.5,539.4453 517.7656,539.3047 517.9375,539.0859 C518.0469,538.9297 518.0781,538.7422 518.0781,538.3203 L518.0781,536.8984 C518.0781,536.4609 518.0625,536.3359 517.9688,536.1797 C517.8125,535.9141 517.5313,535.7734 517.2344,535.7734 C516.9375,535.7734 516.7344,535.8672 516.5156,536.1797 L516.3438,536.1016 Z " fill="#000000"/><text fill="#000000" font-family="sans-serif" font-size="12" font-style="italic" lengthAdjust="spacing" textLength="66" x="526" y="536.4355">&#171;resource&#187;</text><text fill="#000000" font-family="sans-serif" font-size="14" lengthAdjust="spacing" textLength="30" x="544" y="552.2607">/get</text><line style="stroke:#181818;stroke-width:0.5;" x1="500" x2="592" y1="560.5625" y2="560.5625"/><line style="stroke:#181818;stroke-width:0.5;" x1="500" x2="529.5" y1="576.7109" y2="576.7109"/><text fill="#000000" font-family="sans-serif" font-size="14" lengthAdjust="spacing" textLength="33" x="529.5" y="581.0576">http</text><line style="stroke:#181818;stroke-width:0.5;" x1="562.5" x2="592" y1="576.7109" y2="576.7109"/></g><!--class /all--><g id="elem_/all"><rect codeLine="33" fill="#9ACD32" height="84.8594" id="/all" rx="2.5" ry="2.5" style="stroke:#181818;stroke-width:0.5;" width="94" x="477" y="695.7969"/><ellipse cx="492" cy="715.9297" fill="#ADD1B2" rx="11" ry="11" style="stroke:#181818;stroke-width:1.0;"/><path d="M494.3438,711.6016 C493.4063,711.1641 492.8125,711.0234 491.9375,711.0234 C489.3125,711.0234 487.3125,713.1016 487.3125,715.8203 L487.3125,716.9453 C487.3125,719.5234 489.4219,721.4141 492.3125,721.4141 C493.5313,721.4141 494.6875,721.1172 495.4375,720.5703 C496.0156,720.1641 496.3438,719.7109 496.3438,719.3203 C496.3438,718.8672 495.9531,718.4766 495.4844,718.4766 C495.2656,718.4766 495.0625,718.5547 494.875,718.7422 C494.4219,719.2266 494.4219,719.2266 494.2344,719.3203 C493.8125,719.5859 493.125,719.7109 492.3594,719.7109 C490.3125,719.7109 489.0156,718.6172 489.0156,716.9141 L489.0156,715.8203 C489.0156,714.0391 490.2656,712.7266 492,712.7266 C492.5781,712.7266 493.1875,712.8828 493.6563,713.1328 C494.1406,713.4141 494.3125,713.6328 494.4063,714.0391 C494.4688,714.4453 494.5,714.5703 494.6406,714.6953 C494.7813,714.8359 495.0156,714.9453 495.2344,714.9453 C495.5,714.9453 495.7656,714.8047 495.9375,714.5859 C496.0469,714.4297 496.0781,714.2422 496.0781,713.8203 L496.0781,712.3984 C496.0781,711.9609 496.0625,711.8359 495.9688,711.6797 C495.8125,711.4141 495.5313,711.2734 495.2344,711.2734 C494.9375,711.2734 494.7344,711.3672 494.5156,711.6797 L494.3438,711.6016 Z " fill="#000000"/><text fill="#000000" font-family="sans-serif" font-size="12" font-style="italic" lengthAdjust="spacing" textLength="66" x="504" y="711.9355">&#171;resource&#187;</text><text fill="#000000" font-family="sans-serif" font-size="14" lengthAdjust="spacing" textLength="21" x="526.5" y="727.7607">/all</text><line style="stroke:#181818;stroke-width:0.5;" x1="478" x2="570" y1="736.0625" y2="736.0625"/><text fill="#000000" font-family="sans-serif" font-size="14" lengthAdjust="spacing" textLength="35" x="483" y="773.3545">get()</text><line style="stroke:#181818;stroke-width:0.5;" x1="478" x2="507.5" y1="752.2109" y2="752.2109"/><text fill="#000000" font-family="sans-serif" font-size="14" lengthAdjust="spacing" textLength="33" x="507.5" y="756.5576">http</text><line style="stroke:#181818;stroke-width:0.5;" x1="540.5" x2="570" y1="752.2109" y2="752.2109"/></g><!--class /{id}--><g id="elem_/{id}"><rect codeLine="66" fill="#9ACD32" height="158.0469" id="/{id}" rx="2.5" ry="2.5" style="stroke:#181818;stroke-width:0.5;" width="181" x="606.5" y="659.2969"/><ellipse cx="661.75" cy="679.4297" fill="#ADD1B2" rx="11" ry="11" style="stroke:#181818;stroke-width:1.0;"/><path d="M664.0938,675.1016 C663.1563,674.6641 662.5625,674.5234 661.6875,674.5234 C659.0625,674.5234 657.0625,676.6016 657.0625,679.3203 L657.0625,680.4453 C657.0625,683.0234 659.1719,684.9141 662.0625,684.9141 C663.2813,684.9141 664.4375,684.6172 665.1875,684.0703 C665.7656,683.6641 666.0938,683.2109 666.0938,682.8203 C666.0938,682.3672 665.7031,681.9766 665.2344,681.9766 C665.0156,681.9766 664.8125,682.0547 664.625,682.2422 C664.1719,682.7266 664.1719,682.7266 663.9844,682.8203 C663.5625,683.0859 662.875,683.2109 662.1094,683.2109 C660.0625,683.2109 658.7656,682.1172 658.7656,680.4141 L658.7656,679.3203 C658.7656,677.5391 660.0156,676.2266 661.75,676.2266 C662.3281,676.2266 662.9375,676.3828 663.4063,676.6328 C663.8906,676.9141 664.0625,677.1328 664.1563,677.5391 C664.2188,677.9453 664.25,678.0703 664.3906,678.1953 C664.5313,678.3359 664.7656,678.4453 664.9844,678.4453 C665.25,678.4453 665.5156,678.3047 665.6875,678.0859 C665.7969,677.9297 665.8281,677.7422 665.8281,677.3203 L665.8281,675.8984 C665.8281,675.4609 665.8125,675.3359 665.7188,675.1797 C665.5625,674.9141 665.2813,674.7734 664.9844,674.7734 C664.6875,674.7734 664.4844,674.8672 664.2656,675.1797 L664.0938,675.1016 Z " fill="#000000"/><text fill="#000000" font-family="sans-serif" font-size="12" font-style="italic" lengthAdjust="spacing" textLength="66" x="680.25" y="675.4355">&#171;resource&#187;</text><text fill="#000000" font-family="sans-serif" font-size="14" lengthAdjust="spacing" textLength="36" x="695.25" y="691.2607">/{id}</text><line style="stroke:#181818;stroke-width:0.5;" x1="607.5" x2="786.5" y1="699.5625" y2="699.5625"/><text fill="#000000" font-family="sans-serif" font-size="14" lengthAdjust="spacing" textLength="134" x="612.5" y="736.8545">get(ReservationId)</text><line style="stroke:#181818;stroke-width:0.5;" x1="607.5" x2="680.5" y1="715.7109" y2="715.7109"/><text fill="#000000" font-family="sans-serif" font-size="14" lengthAdjust="spacing" textLength="33" x="680.5" y="720.0576">http</text><line style="stroke:#181818;stroke-width:0.5;" x1="713.5" x2="786.5" y1="715.7109" y2="715.7109"/><text fill="#000000" font-family="sans-serif" font-size="14" lengthAdjust="spacing" textLength="169" x="612.5" y="773.4482">put(id, reservationDTO)</text><line style="stroke:#181818;stroke-width:0.5;" x1="607.5" x2="680.5" y1="752.3047" y2="752.3047"/><text fill="#000000" font-family="sans-serif" font-size="14" lengthAdjust="spacing" textLength="33" x="680.5" y="756.6514">http</text><line style="stroke:#181818;stroke-width:0.5;" x1="713.5" x2="786.5" y1="752.3047" y2="752.3047"/><text fill="#000000" font-family="sans-serif" font-size="14" lengthAdjust="spacing" textLength="70" x="612.5" y="810.042">delete(id)</text><line style="stroke:#181818;stroke-width:0.5;" x1="607.5" x2="680.5" y1="788.8984" y2="788.8984"/><text fill="#000000" font-family="sans-serif" font-size="14" lengthAdjust="spacing" textLength="33" x="680.5" y="793.2451">http</text><line style="stroke:#181818;stroke-width:0.5;" x1="713.5" x2="786.5" y1="788.8984" y2="788.8984"/></g><!--class /edit--><g id="elem_/edit"><rect codeLine="47" fill="#9ACD32" height="72.7109" id="/edit" rx="2.5" ry="2.5" style="stroke:#181818;stroke-width:0.5;" width="94" x="628" y="520.2969"/><ellipse cx="643" cy="540.4297" fill="#ADD1B2" rx="11" ry="11" style="stroke:#181818;stroke-width:1.0;"/><path d="M645.3438,536.1016 C644.4063,535.6641 643.8125,535.5234 642.9375,535.5234 C640.3125,535.5234 638.3125,537.6016 638.3125,540.3203 L638.3125,541.4453 C638.3125,544.0234 640.4219,545.9141 643.3125,545.9141 C644.5313,545.9141 645.6875,545.6172 646.4375,545.0703 C647.0156,544.6641 647.3438,544.2109 647.3438,543.8203 C647.3438,543.3672 646.9531,542.9766 646.4844,542.9766 C646.2656,542.9766 646.0625,543.0547 645.875,543.2422 C645.4219,543.7266 645.4219,543.7266 645.2344,543.8203 C644.8125,544.0859 644.125,544.2109 643.3594,544.2109 C641.3125,544.2109 640.0156,543.1172 640.0156,541.4141 L640.0156,540.3203 C640.0156,538.5391 641.2656,537.2266 643,537.2266 C643.5781,537.2266 644.1875,537.3828 644.6563,537.6328 C645.1406,537.9141 645.3125,538.1328 645.4063,538.5391 C645.4688,538.9453 645.5,539.0703 645.6406,539.1953 C645.7813,539.3359 646.0156,539.4453 646.2344,539.4453 C646.5,539.4453 646.7656,539.3047 646.9375,539.0859 C647.0469,538.9297 647.0781,538.7422 647.0781,538.3203 L647.0781,536.8984 C647.0781,536.4609 647.0625,536.3359 646.9688,536.1797 C646.8125,535.9141 646.5313,535.7734 646.2344,535.7734 C645.9375,535.7734 645.7344,535.8672 645.5156,536.1797 L645.3438,536.1016 Z " fill="#000000"/><text fill="#000000" font-family="sans-serif" font-size="12" font-style="italic" lengthAdjust="spacing" textLength="66" x="655" y="536.4355">&#171;resource&#187;</text><text fill="#000000" font-family="sans-serif" font-size="14" lengthAdjust="spacing" textLength="34" x="671" y="552.2607">/edit</text><line style="stroke:#181818;stroke-width:0.5;" x1="629" x2="721" y1="560.5625" y2="560.5625"/><line style="stroke:#181818;stroke-width:0.5;" x1="629" x2="658.5" y1="576.7109" y2="576.7109"/><text fill="#000000" font-family="sans-serif" font-size="14" lengthAdjust="spacing" textLength="33" x="658.5" y="581.0576">http</text><line style="stroke:#181818;stroke-width:0.5;" x1="691.5" x2="721" y1="576.7109" y2="576.7109"/></g><!--class /delete--><g id="elem_/delete"><rect codeLine="60" fill="#9ACD32" height="72.7109" id="/delete" rx="2.5" ry="2.5" style="stroke:#181818;stroke-width:0.5;" width="94" x="757" y="520.2969"/><ellipse cx="772" cy="540.4297" fill="#ADD1B2" rx="11" ry="11" style="stroke:#181818;stroke-width:1.0;"/><path d="M774.3438,536.1016 C773.4063,535.6641 772.8125,535.5234 771.9375,535.5234 C769.3125,535.5234 767.3125,537.6016 767.3125,540.3203 L767.3125,541.4453 C767.3125,544.0234 769.4219,545.9141 772.3125,545.9141 C773.5313,545.9141 774.6875,545.6172 775.4375,545.0703 C776.0156,544.6641 776.3438,544.2109 776.3438,543.8203 C776.3438,543.3672 775.9531,542.9766 775.4844,542.9766 C775.2656,542.9766 775.0625,543.0547 774.875,543.2422 C774.4219,543.7266 774.4219,543.7266 774.2344,543.8203 C773.8125,544.0859 773.125,544.2109 772.3594,544.2109 C770.3125,544.2109 769.0156,543.1172 769.0156,541.4141 L769.0156,540.3203 C769.0156,538.5391 770.2656,537.2266 772,537.2266 C772.5781,537.2266 773.1875,537.3828 773.6563,537.6328 C774.1406,537.9141 774.3125,538.1328 774.4063,538.5391 C774.4688,538.9453 774.5,539.0703 774.6406,539.1953 C774.7813,539.3359 775.0156,539.4453 775.2344,539.4453 C775.5,539.4453 775.7656,539.3047 775.9375,539.0859 C776.0469,538.9297 776.0781,538.7422 776.0781,538.3203 L776.0781,536.8984 C776.0781,536.4609 776.0625,536.3359 775.9688,536.1797 C775.8125,535.9141 775.5313,535.7734 775.2344,535.7734 C774.9375,535.7734 774.7344,535.8672 774.5156,536.1797 L774.3438,536.1016 Z " fill="#000000"/><text fill="#000000" font-family="sans-serif" font-size="12" font-style="italic" lengthAdjust="spacing" textLength="66" x="784" y="536.4355">&#171;resource&#187;</text><text fill="#000000" font-family="sans-serif" font-size="14" lengthAdjust="spacing" textLength="52" x="791" y="552.2607">/delete</text><line style="stroke:#181818;stroke-width:0.5;" x1="758" x2="850" y1="560.5625" y2="560.5625"/><line style="stroke:#181818;stroke-width:0.5;" x1="758" x2="787.5" y1="576.7109" y2="576.7109"/><text fill="#000000" font-family="sans-serif" font-size="14" lengthAdjust="spacing" textLength="33" x="787.5" y="581.0576">http</text><line style="stroke:#181818;stroke-width:0.5;" x1="820.5" x2="850" y1="576.7109" y2="576.7109"/></g><!--class /accommodations--><g id="elem_/accommodations"><rect codeLine="73" fill="#9ACD32" height="72.7109" id="/accommodations" rx="2.5" ry="2.5" style="stroke:#181818;stroke-width:0.5;" width="160" x="1092" y="359.2969"/><ellipse cx="1107" cy="379.4297" fill="#ADD1B2" rx="11" ry="11" style="stroke:#181818;stroke-width:1.0;"/><path d="M1109.3438,375.1016 C1108.4063,374.6641 1107.8125,374.5234 1106.9375,374.5234 C1104.3125,374.5234 1102.3125,376.6016 1102.3125,379.3203 L1102.3125,380.4453 C1102.3125,383.0234 1104.4219,384.9141 1107.3125,384.9141 C1108.5313,384.9141 1109.6875,384.6172 1110.4375,384.0703 C1111.0156,383.6641 1111.3438,383.2109 1111.3438,382.8203 C1111.3438,382.3672 1110.9531,381.9766 1110.4844,381.9766 C1110.2656,381.9766 1110.0625,382.0547 1109.875,382.2422 C1109.4219,382.7266 1109.4219,382.7266 1109.2344,382.8203 C1108.8125,383.0859 1108.125,383.2109 1107.3594,383.2109 C1105.3125,383.2109 1104.0156,382.1172 1104.0156,380.4141 L1104.0156,379.3203 C1104.0156,377.5391 1105.2656,376.2266 1107,376.2266 C1107.5781,376.2266 1108.1875,376.3828 1108.6563,376.6328 C1109.1406,376.9141 1109.3125,377.1328 1109.4063,377.5391 C1109.4688,377.9453 1109.5,378.0703 1109.6406,378.1953 C1109.7813,378.3359 1110.0156,378.4453 1110.2344,378.4453 C1110.5,378.4453 1110.7656,378.3047 1110.9375,378.0859 C1111.0469,377.9297 1111.0781,377.7422 1111.0781,377.3203 L1111.0781,375.8984 C1111.0781,375.4609 1111.0625,375.3359 1110.9688,375.1797 C1110.8125,374.9141 1110.5313,374.7734 1110.2344,374.7734 C1109.9375,374.7734 1109.7344,374.8672 1109.5156,375.1797 L1109.3438,375.1016 Z " fill="#000000"/><text fill="#000000" font-family="sans-serif" font-size="12" font-style="italic" lengthAdjust="spacing" textLength="66" x="1152" y="375.4355">&#171;resource&#187;</text><text fill="#000000" font-family="sans-serif" font-size="14" lengthAdjust="spacing" textLength="128" x="1121" y="391.2607">/accommodations</text><line style="stroke:#181818;stroke-width:0.5;" x1="1093" x2="1251" y1="399.5625" y2="399.5625"/><line style="stroke:#181818;stroke-width:0.5;" x1="1093" x2="1155.5" y1="415.7109" y2="415.7109"/><text fill="#000000" font-family="sans-serif" font-size="14" lengthAdjust="spacing" textLength="33" x="1155.5" y="420.0576">http</text><line style="stroke:#181818;stroke-width:0.5;" x1="1188.5" x2="1251" y1="415.7109" y2="415.7109"/></g><!--class add--><g id="elem_add"><rect codeLine="79" fill="#9ACD32" height="84.8594" id="add" rx="2.5" ry="2.5" style="stroke:#181818;stroke-width:0.5;" width="204" x="886" y="514.2969"/><ellipse cx="952.75" cy="534.4297" fill="#ADD1B2" rx="11" ry="11" style="stroke:#181818;stroke-width:1.0;"/><path d="M955.0938,530.1016 C954.1563,529.6641 953.5625,529.5234 952.6875,529.5234 C950.0625,529.5234 948.0625,531.6016 948.0625,534.3203 L948.0625,535.4453 C948.0625,538.0234 950.1719,539.9141 953.0625,539.9141 C954.2813,539.9141 955.4375,539.6172 956.1875,539.0703 C956.7656,538.6641 957.0938,538.2109 957.0938,537.8203 C957.0938,537.3672 956.7031,536.9766 956.2344,536.9766 C956.0156,536.9766 955.8125,537.0547 955.625,537.2422 C955.1719,537.7266 955.1719,537.7266 954.9844,537.8203 C954.5625,538.0859 953.875,538.2109 953.1094,538.2109 C951.0625,538.2109 949.7656,537.1172 949.7656,535.4141 L949.7656,534.3203 C949.7656,532.5391 951.0156,531.2266 952.75,531.2266 C953.3281,531.2266 953.9375,531.3828 954.4063,531.6328 C954.8906,531.9141 955.0625,532.1328 955.1563,532.5391 C955.2188,532.9453 955.25,533.0703 955.3906,533.1953 C955.5313,533.3359 955.7656,533.4453 955.9844,533.4453 C956.25,533.4453 956.5156,533.3047 956.6875,533.0859 C956.7969,532.9297 956.8281,532.7422 956.8281,532.3203 L956.8281,530.8984 C956.8281,530.4609 956.8125,530.3359 956.7188,530.1797 C956.5625,529.9141 956.2813,529.7734 955.9844,529.7734 C955.6875,529.7734 955.4844,529.8672 955.2656,530.1797 L955.0938,530.1016 Z " fill="#000000"/><text fill="#000000" font-family="sans-serif" font-size="12" font-style="italic" lengthAdjust="spacing" textLength="66" x="971.25" y="530.4355">&#171;resource&#187;</text><text fill="#000000" font-family="sans-serif" font-size="14" lengthAdjust="spacing" textLength="26" x="991.25" y="546.2607">add</text><line style="stroke:#181818;stroke-width:0.5;" x1="887" x2="1089" y1="554.5625" y2="554.5625"/><text fill="#000000" font-family="sans-serif" font-size="14" lengthAdjust="spacing" textLength="192" x="892" y="591.8545">post(AccommodationDTO)</text><line style="stroke:#181818;stroke-width:0.5;" x1="887" x2="971.5" y1="570.7109" y2="570.7109"/><text fill="#000000" font-family="sans-serif" font-size="14" lengthAdjust="spacing" textLength="33" x="971.5" y="575.0576">http</text><line style="stroke:#181818;stroke-width:0.5;" x1="1004.5" x2="1089" y1="570.7109" y2="570.7109"/></g><!--class get--><g id="elem_get"><rect codeLine="86" fill="#9ACD32" height="72.7109" id="get" rx="2.5" ry="2.5" style="stroke:#181818;stroke-width:0.5;" width="94" x="1125" y="520.2969"/><ellipse cx="1140" cy="540.4297" fill="#ADD1B2" rx="11" ry="11" style="stroke:#181818;stroke-width:1.0;"/><path d="M1142.3438,536.1016 C1141.4063,535.6641 1140.8125,535.5234 1139.9375,535.5234 C1137.3125,535.5234 1135.3125,537.6016 1135.3125,540.3203 L1135.3125,541.4453 C1135.3125,544.0234 1137.4219,545.9141 1140.3125,545.9141 C1141.5313,545.9141 1142.6875,545.6172 1143.4375,545.0703 C1144.0156,544.6641 1144.3438,544.2109 1144.3438,543.8203 C1144.3438,543.3672 1143.9531,542.9766 1143.4844,542.9766 C1143.2656,542.9766 1143.0625,543.0547 1142.875,543.2422 C1142.4219,543.7266 1142.4219,543.7266 1142.2344,543.8203 C1141.8125,544.0859 1141.125,544.2109 1140.3594,544.2109 C1138.3125,544.2109 1137.0156,543.1172 1137.0156,541.4141 L1137.0156,540.3203 C1137.0156,538.5391 1138.2656,537.2266 1140,537.2266 C1140.5781,537.2266 1141.1875,537.3828 1141.6563,537.6328 C1142.1406,537.9141 1142.3125,538.1328 1142.4063,538.5391 C1142.4688,538.9453 1142.5,539.0703 1142.6406,539.1953 C1142.7813,539.3359 1143.0156,539.4453 1143.2344,539.4453 C1143.5,539.4453 1143.7656,539.3047 1143.9375,539.0859 C1144.0469,538.9297 1144.0781,538.7422 1144.0781,538.3203 L1144.0781,536.8984 C1144.0781,536.4609 1144.0625,536.3359 1143.9688,536.1797 C1143.8125,535.9141 1143.5313,535.7734 1143.2344,535.7734 C1142.9375,535.7734 1142.7344,535.8672 1142.5156,536.1797 L1142.3438,536.1016 Z " fill="#000000"/><text fill="#000000" font-family="sans-serif" font-size="12" font-style="italic" lengthAdjust="spacing" textLength="66" x="1152" y="536.4355">&#171;resource&#187;</text><text fill="#000000" font-family="sans-serif" font-size="14" lengthAdjust="spacing" textLength="25" x="1172.5" y="552.2607">get</text><line style="stroke:#181818;stroke-width:0.5;" x1="1126" x2="1218" y1="560.5625" y2="560.5625"/><line style="stroke:#181818;stroke-width:0.5;" x1="1126" x2="1155.5" y1="576.7109" y2="576.7109"/><text fill="#000000" font-family="sans-serif" font-size="14" lengthAdjust="spacing" textLength="33" x="1155.5" y="581.0576">http</text><line style="stroke:#181818;stroke-width:0.5;" x1="1188.5" x2="1218" y1="576.7109" y2="576.7109"/></g><!--class all--><g id="elem_all"><rect codeLine="92" fill="#9ACD32" height="84.8594" id="all" rx="2.5" ry="2.5" style="stroke:#181818;stroke-width:0.5;" width="94" x="1014" y="695.7969"/><ellipse cx="1029" cy="715.9297" fill="#ADD1B2" rx="11" ry="11" style="stroke:#181818;stroke-width:1.0;"/><path d="M1031.3438,711.6016 C1030.4063,711.1641 1029.8125,711.0234 1028.9375,711.0234 C1026.3125,711.0234 1024.3125,713.1016 1024.3125,715.8203 L1024.3125,716.9453 C1024.3125,719.5234 1026.4219,721.4141 1029.3125,721.4141 C1030.5313,721.4141 1031.6875,721.1172 1032.4375,720.5703 C1033.0156,720.1641 1033.3438,719.7109 1033.3438,719.3203 C1033.3438,718.8672 1032.9531,718.4766 1032.4844,718.4766 C1032.2656,718.4766 1032.0625,718.5547 1031.875,718.7422 C1031.4219,719.2266 1031.4219,719.2266 1031.2344,719.3203 C1030.8125,719.5859 1030.125,719.7109 1029.3594,719.7109 C1027.3125,719.7109 1026.0156,718.6172 1026.0156,716.9141 L1026.0156,715.8203 C1026.0156,714.0391 1027.2656,712.7266 1029,712.7266 C1029.5781,712.7266 1030.1875,712.8828 1030.6563,713.1328 C1031.1406,713.4141 1031.3125,713.6328 1031.4063,714.0391 C1031.4688,714.4453 1031.5,714.5703 1031.6406,714.6953 C1031.7813,714.8359 1032.0156,714.9453 1032.2344,714.9453 C1032.5,714.9453 1032.7656,714.8047 1032.9375,714.5859 C1033.0469,714.4297 1033.0781,714.2422 1033.0781,713.8203 L1033.0781,712.3984 C1033.0781,711.9609 1033.0625,711.8359 1032.9688,711.6797 C1032.8125,711.4141 1032.5313,711.2734 1032.2344,711.2734 C1031.9375,711.2734 1031.7344,711.3672 1031.5156,711.6797 L1031.3438,711.6016 Z " fill="#000000"/><text fill="#000000" font-family="sans-serif" font-size="12" font-style="italic" lengthAdjust="spacing" textLength="66" x="1041" y="711.9355">&#171;resource&#187;</text><text fill="#000000" font-family="sans-serif" font-size="14" lengthAdjust="spacing" textLength="16" x="1066" y="727.7607">all</text><line style="stroke:#181818;stroke-width:0.5;" x1="1015" x2="1107" y1="736.0625" y2="736.0625"/><text fill="#000000" font-family="sans-serif" font-size="14" lengthAdjust="spacing" textLength="35" x="1020" y="773.3545">get()</text><line style="stroke:#181818;stroke-width:0.5;" x1="1015" x2="1044.5" y1="752.2109" y2="752.2109"/><text fill="#000000" font-family="sans-serif" font-size="14" lengthAdjust="spacing" textLength="33" x="1044.5" y="756.5576">http</text><line style="stroke:#181818;stroke-width:0.5;" x1="1077.5" x2="1107" y1="752.2109" y2="752.2109"/></g><!--class {id}--><g id="elem_{id}"><rect codeLine="151" fill="#9ACD32" height="231.2344" id="{id}" rx="2.5" ry="2.5" style="stroke:#181818;stroke-width:0.5;" width="398" x="1133" y="877.2969"/><ellipse cx="1296.75" cy="897.4297" fill="#ADD1B2" rx="11" ry="11" style="stroke:#181818;stroke-width:1.0;"/><path d="M1299.0938,893.1016 C1298.1563,892.6641 1297.5625,892.5234 1296.6875,892.5234 C1294.0625,892.5234 1292.0625,894.6016 1292.0625,897.3203 L1292.0625,898.4453 C1292.0625,901.0234 1294.1719,902.9141 1297.0625,902.9141 C1298.2813,902.9141 1299.4375,902.6172 1300.1875,902.0703 C1300.7656,901.6641 1301.0938,901.2109 1301.0938,900.8203 C1301.0938,900.3672 1300.7031,899.9766 1300.2344,899.9766 C1300.0156,899.9766 1299.8125,900.0547 1299.625,900.2422 C1299.1719,900.7266 1299.1719,900.7266 1298.9844,900.8203 C1298.5625,901.0859 1297.875,901.2109 1297.1094,901.2109 C1295.0625,901.2109 1293.7656,900.1172 1293.7656,898.4141 L1293.7656,897.3203 C1293.7656,895.5391 1295.0156,894.2266 1296.75,894.2266 C1297.3281,894.2266 1297.9375,894.3828 1298.4063,894.6328 C1298.8906,894.9141 1299.0625,895.1328 1299.1563,895.5391 C1299.2188,895.9453 1299.25,896.0703 1299.3906,896.1953 C1299.5313,896.3359 1299.7656,896.4453 1299.9844,896.4453 C1300.25,896.4453 1300.5156,896.3047 1300.6875,896.0859 C1300.7969,895.9297 1300.8281,895.7422 1300.8281,895.3203 L1300.8281,893.8984 C1300.8281,893.4609 1300.8125,893.3359 1300.7188,893.1797 C1300.5625,892.9141 1300.2813,892.7734 1299.9844,892.7734 C1299.6875,892.7734 1299.4844,892.8672 1299.2656,893.1797 L1299.0938,893.1016 Z " fill="#000000"/><text fill="#000000" font-family="sans-serif" font-size="12" font-style="italic" lengthAdjust="spacing" textLength="66" x="1315.25" y="893.4355">&#171;resource&#187;</text><text fill="#000000" font-family="sans-serif" font-size="14" lengthAdjust="spacing" textLength="31" x="1332.75" y="909.2607">{id}</text><line style="stroke:#181818;stroke-width:0.5;" x1="1134" x2="1530" y1="917.5625" y2="917.5625"/><text fill="#000000" font-family="sans-serif" font-size="14" lengthAdjust="spacing" textLength="166" x="1139" y="954.8545">get(AccommodationId)</text><line style="stroke:#181818;stroke-width:0.5;" x1="1134" x2="1315.5" y1="933.7109" y2="933.7109"/><text fill="#000000" font-family="sans-serif" font-size="14" lengthAdjust="spacing" textLength="33" x="1315.5" y="938.0576">http</text><line style="stroke:#181818;stroke-width:0.5;" x1="1348.5" x2="1530" y1="933.7109" y2="933.7109"/><text fill="#000000" font-family="sans-serif" font-size="14" lengthAdjust="spacing" textLength="323" x="1139" y="991.4482">put(AccommodationId, AccommodationDTO)</text><line style="stroke:#181818;stroke-width:0.5;" x1="1134" x2="1315.5" y1="970.3047" y2="970.3047"/><text fill="#000000" font-family="sans-serif" font-size="14" lengthAdjust="spacing" textLength="33" x="1315.5" y="974.6514">http</text><line style="stroke:#181818;stroke-width:0.5;" x1="1348.5" x2="1530" y1="970.3047" y2="970.3047"/><text fill="#000000" font-family="sans-serif" font-size="14" lengthAdjust="spacing" textLength="313" x="1139" y="1028.042">patch(AccommodationId, ExtraServiceDTO)</text><line style="stroke:#181818;stroke-width:0.5;" x1="1134" x2="1315.5" y1="1006.8984" y2="1006.8984"/><text fill="#000000" font-family="sans-serif" font-size="14" lengthAdjust="spacing" textLength="33" x="1315.5" y="1011.2451">http</text><line style="stroke:#181818;stroke-width:0.5;" x1="1348.5" x2="1530" y1="1006.8984" y2="1006.8984"/><text fill="#000000" font-family="sans-serif" font-size="14" lengthAdjust="spacing" textLength="386" x="1139" y="1064.6357">patch(AccommodationId, PartialAccommodationDTO)</text><line style="stroke:#181818;stroke-width:0.5;" x1="1134" x2="1315.5" y1="1043.4922" y2="1043.4922"/><text fill="#000000" font-family="sans-serif" font-size="14" lengthAdjust="spacing" textLength="33" x="1315.5" y="1047.8389">http</text><line style="stroke:#181818;stroke-width:0.5;" x1="1348.5" x2="1530" y1="1043.4922" y2="1043.4922"/><text fill="#000000" font-family="sans-serif" font-size="14" lengthAdjust="spacing" textLength="188" x="1139" y="1101.2295">delete(AccommodationId)</text><line style="stroke:#181818;stroke-width:0.5;" x1="1134" x2="1315.5" y1="1080.0859" y2="1080.0859"/><text fill="#000000" font-family="sans-serif" font-size="14" lengthAdjust="spacing" textLength="33" x="1315.5" y="1084.4326">http</text><line style="stroke:#181818;stroke-width:0.5;" x1="1348.5" x2="1530" y1="1080.0859" y2="1080.0859"/></g><!--class edit--><g id="elem_edit"><rect codeLine="106" fill="#9ACD32" height="72.7109" id="edit" rx="2.5" ry="2.5" style="stroke:#181818;stroke-width:0.5;" width="94" x="1275" y="520.2969"/><ellipse cx="1290" cy="540.4297" fill="#ADD1B2" rx="11" ry="11" style="stroke:#181818;stroke-width:1.0;"/><path d="M1292.3438,536.1016 C1291.4063,535.6641 1290.8125,535.5234 1289.9375,535.5234 C1287.3125,535.5234 1285.3125,537.6016 1285.3125,540.3203 L1285.3125,541.4453 C1285.3125,544.0234 1287.4219,545.9141 1290.3125,545.9141 C1291.5313,545.9141 1292.6875,545.6172 1293.4375,545.0703 C1294.0156,544.6641 1294.3438,544.2109 1294.3438,543.8203 C1294.3438,543.3672 1293.9531,542.9766 1293.4844,542.9766 C1293.2656,542.9766 1293.0625,543.0547 1292.875,543.2422 C1292.4219,543.7266 1292.4219,543.7266 1292.2344,543.8203 C1291.8125,544.0859 1291.125,544.2109 1290.3594,544.2109 C1288.3125,544.2109 1287.0156,543.1172 1287.0156,541.4141 L1287.0156,540.3203 C1287.0156,538.5391 1288.2656,537.2266 1290,537.2266 C1290.5781,537.2266 1291.1875,537.3828 1291.6563,537.6328 C1292.1406,537.9141 1292.3125,538.1328 1292.4063,538.5391 C1292.4688,538.9453 1292.5,539.0703 1292.6406,539.1953 C1292.7813,539.3359 1293.0156,539.4453 1293.2344,539.4453 C1293.5,539.4453 1293.7656,539.3047 1293.9375,539.0859 C1294.0469,538.9297 1294.0781,538.7422 1294.0781,538.3203 L1294.0781,536.8984 C1294.0781,536.4609 1294.0625,536.3359 1293.9688,536.1797 C1293.8125,535.9141 1293.5313,535.7734 1293.2344,535.7734 C1292.9375,535.7734 1292.7344,535.8672 1292.5156,536.1797 L1292.3438,536.1016 Z " fill="#000000"/><text fill="#000000" font-family="sans-serif" font-size="12" font-style="italic" lengthAdjust="spacing" textLength="66" x="1302" y="536.4355">&#171;resource&#187;</text><text fill="#000000" font-family="sans-serif" font-size="14" lengthAdjust="spacing" textLength="29" x="1320.5" y="552.2607">edit</text><line style="stroke:#181818;stroke-width:0.5;" x1="1276" x2="1368" y1="560.5625" y2="560.5625"/><line style="stroke:#181818;stroke-width:0.5;" x1="1276" x2="1305.5" y1="576.7109" y2="576.7109"/><text fill="#000000" font-family="sans-serif" font-size="14" lengthAdjust="spacing" textLength="33" x="1305.5" y="581.0576">http</text><line style="stroke:#181818;stroke-width:0.5;" x1="1338.5" x2="1368" y1="576.7109" y2="576.7109"/></g><!--class extra--><g id="elem_extra"><rect codeLine="119" fill="#9ACD32" height="72.7109" id="extra" rx="2.5" ry="2.5" style="stroke:#181818;stroke-width:0.5;" width="94" x="1285" y="701.7969"/><ellipse cx="1300" cy="721.9297" fill="#ADD1B2" rx="11" ry="11" style="stroke:#181818;stroke-width:1.0;"/><path d="M1302.3438,717.6016 C1301.4063,717.1641 1300.8125,717.0234 1299.9375,717.0234 C1297.3125,717.0234 1295.3125,719.1016 1295.3125,721.8203 L1295.3125,722.9453 C1295.3125,725.5234 1297.4219,727.4141 1300.3125,727.4141 C1301.5313,727.4141 1302.6875,727.1172 1303.4375,726.5703 C1304.0156,726.1641 1304.3438,725.7109 1304.3438,725.3203 C1304.3438,724.8672 1303.9531,724.4766 1303.4844,724.4766 C1303.2656,724.4766 1303.0625,724.5547 1302.875,724.7422 C1302.4219,725.2266 1302.4219,725.2266 1302.2344,725.3203 C1301.8125,725.5859 1301.125,725.7109 1300.3594,725.7109 C1298.3125,725.7109 1297.0156,724.6172 1297.0156,722.9141 L1297.0156,721.8203 C1297.0156,720.0391 1298.2656,718.7266 1300,718.7266 C1300.5781,718.7266 1301.1875,718.8828 1301.6563,719.1328 C1302.1406,719.4141 1302.3125,719.6328 1302.4063,720.0391 C1302.4688,720.4453 1302.5,720.5703 1302.6406,720.6953 C1302.7813,720.8359 1303.0156,720.9453 1303.2344,720.9453 C1303.5,720.9453 1303.7656,720.8047 1303.9375,720.5859 C1304.0469,720.4297 1304.0781,720.2422 1304.0781,719.8203 L1304.0781,718.3984 C1304.0781,717.9609 1304.0625,717.8359 1303.9688,717.6797 C1303.8125,717.4141 1303.5313,717.2734 1303.2344,717.2734 C1302.9375,717.2734 1302.7344,717.3672 1302.5156,717.6797 L1302.3438,717.6016 Z " fill="#000000"/><text fill="#000000" font-family="sans-serif" font-size="12" font-style="italic" lengthAdjust="spacing" textLength="66" x="1312" y="717.9355">&#171;resource&#187;</text><text fill="#000000" font-family="sans-serif" font-size="14" lengthAdjust="spacing" textLength="38" x="1326" y="733.7607">extra</text><line style="stroke:#181818;stroke-width:0.5;" x1="1286" x2="1378" y1="742.0625" y2="742.0625"/><line style="stroke:#181818;stroke-width:0.5;" x1="1286" x2="1315.5" y1="758.2109" y2="758.2109"/><text fill="#000000" font-family="sans-serif" font-size="14" lengthAdjust="spacing" textLength="33" x="1315.5" y="762.5576">http</text><line style="stroke:#181818;stroke-width:0.5;" x1="1348.5" x2="1378" y1="758.2109" y2="758.2109"/></g><!--class obs--><g id="elem_obs"><rect codeLine="132" fill="#9ACD32" height="72.7109" id="obs" rx="2.5" ry="2.5" style="stroke:#181818;stroke-width:0.5;" width="94" x="1414" y="701.7969"/><ellipse cx="1429" cy="721.9297" fill="#ADD1B2" rx="11" ry="11" style="stroke:#181818;stroke-width:1.0;"/><path d="M1431.3438,717.6016 C1430.4063,717.1641 1429.8125,717.0234 1428.9375,717.0234 C1426.3125,717.0234 1424.3125,719.1016 1424.3125,721.8203 L1424.3125,722.9453 C1424.3125,725.5234 1426.4219,727.4141 1429.3125,727.4141 C1430.5313,727.4141 1431.6875,727.1172 1432.4375,726.5703 C1433.0156,726.1641 1433.3438,725.7109 1433.3438,725.3203 C1433.3438,724.8672 1432.9531,724.4766 1432.4844,724.4766 C1432.2656,724.4766 1432.0625,724.5547 1431.875,724.7422 C1431.4219,725.2266 1431.4219,725.2266 1431.2344,725.3203 C1430.8125,725.5859 1430.125,725.7109 1429.3594,725.7109 C1427.3125,725.7109 1426.0156,724.6172 1426.0156,722.9141 L1426.0156,721.8203 C1426.0156,720.0391 1427.2656,718.7266 1429,718.7266 C1429.5781,718.7266 1430.1875,718.8828 1430.6563,719.1328 C1431.1406,719.4141 1431.3125,719.6328 1431.4063,720.0391 C1431.4688,720.4453 1431.5,720.5703 1431.6406,720.6953 C1431.7813,720.8359 1432.0156,720.9453 1432.2344,720.9453 C1432.5,720.9453 1432.7656,720.8047 1432.9375,720.5859 C1433.0469,720.4297 1433.0781,720.2422 1433.0781,719.8203 L1433.0781,718.3984 C1433.0781,717.9609 1433.0625,717.8359 1432.9688,717.6797 C1432.8125,717.4141 1432.5313,717.2734 1432.2344,717.2734 C1431.9375,717.2734 1431.7344,717.3672 1431.5156,717.6797 L1431.3438,717.6016 Z " fill="#000000"/><text fill="#000000" font-family="sans-serif" font-size="12" font-style="italic" lengthAdjust="spacing" textLength="66" x="1441" y="717.9355">&#171;resource&#187;</text><text fill="#000000" font-family="sans-serif" font-size="14" lengthAdjust="spacing" textLength="26" x="1461" y="733.7607">obs</text><line style="stroke:#181818;stroke-width:0.5;" x1="1415" x2="1507" y1="742.0625" y2="742.0625"/><line style="stroke:#181818;stroke-width:0.5;" x1="1415" x2="1444.5" y1="758.2109" y2="758.2109"/><text fill="#000000" font-family="sans-serif" font-size="14" lengthAdjust="spacing" textLength="33" x="1444.5" y="762.5576">http</text><line style="stroke:#181818;stroke-width:0.5;" x1="1477.5" x2="1507" y1="758.2109" y2="758.2109"/></g><!--class delete--><g id="elem_delete"><rect codeLine="145" fill="#9ACD32" height="72.7109" id="delete" rx="2.5" ry="2.5" style="stroke:#181818;stroke-width:0.5;" width="94" x="1464" y="520.2969"/><ellipse cx="1479" cy="540.4297" fill="#ADD1B2" rx="11" ry="11" style="stroke:#181818;stroke-width:1.0;"/><path d="M1481.3438,536.1016 C1480.4063,535.6641 1479.8125,535.5234 1478.9375,535.5234 C1476.3125,535.5234 1474.3125,537.6016 1474.3125,540.3203 L1474.3125,541.4453 C1474.3125,544.0234 1476.4219,545.9141 1479.3125,545.9141 C1480.5313,545.9141 1481.6875,545.6172 1482.4375,545.0703 C1483.0156,544.6641 1483.3438,544.2109 1483.3438,543.8203 C1483.3438,543.3672 1482.9531,542.9766 1482.4844,542.9766 C1482.2656,542.9766 1482.0625,543.0547 1481.875,543.2422 C1481.4219,543.7266 1481.4219,543.7266 1481.2344,543.8203 C1480.8125,544.0859 1480.125,544.2109 1479.3594,544.2109 C1477.3125,544.2109 1476.0156,543.1172 1476.0156,541.4141 L1476.0156,540.3203 C1476.0156,538.5391 1477.2656,537.2266 1479,537.2266 C1479.5781,537.2266 1480.1875,537.3828 1480.6563,537.6328 C1481.1406,537.9141 1481.3125,538.1328 1481.4063,538.5391 C1481.4688,538.9453 1481.5,539.0703 1481.6406,539.1953 C1481.7813,539.3359 1482.0156,539.4453 1482.2344,539.4453 C1482.5,539.4453 1482.7656,539.3047 1482.9375,539.0859 C1483.0469,538.9297 1483.0781,538.7422 1483.0781,538.3203 L1483.0781,536.8984 C1483.0781,536.4609 1483.0625,536.3359 1482.9688,536.1797 C1482.8125,535.9141 1482.5313,535.7734 1482.2344,535.7734 C1481.9375,535.7734 1481.7344,535.8672 1481.5156,536.1797 L1481.3438,536.1016 Z " fill="#000000"/><text fill="#000000" font-family="sans-serif" font-size="12" font-style="italic" lengthAdjust="spacing" textLength="66" x="1491" y="536.4355">&#171;resource&#187;</text><text fill="#000000" font-family="sans-serif" font-size="14" lengthAdjust="spacing" textLength="47" x="1500.5" y="552.2607">delete</text><line style="stroke:#181818;stroke-width:0.5;" x1="1465" x2="1557" y1="560.5625" y2="560.5625"/><line style="stroke:#181818;stroke-width:0.5;" x1="1465" x2="1494.5" y1="576.7109" y2="576.7109"/><text fill="#000000" font-family="sans-serif" font-size="14" lengthAdjust="spacing" textLength="33" x="1494.5" y="581.0576">http</text><line style="stroke:#181818;stroke-width:0.5;" x1="1527.5" x2="1557" y1="576.7109" y2="576.7109"/></g><!--link House Keeper to /reservation--><g id="link_House Keeper_/reservation"><path codeLine="18" d="M785.042,206.1539 C762.395,244.9779 723.9273,310.9222 698.8713,353.8742 " fill="none" id="House Keeper-to-/reservation" style="stroke:#181818;stroke-width:1.0;"/><polygon fill="#181818" points="695.848,359.0569,703.838,353.2984,698.3674,354.738,696.9278,349.2674,695.848,359.0569" style="stroke:#181818;stroke-width:1.0;"/></g><!--link /reservation to /add--><g id="link_/reservation_/add"><path codeLine="25" d="M615.302,428.9729 C569.761,453.5189 511.9447,484.6811 462.5517,511.3031 " fill="none" id="/reservation-to-/add" style="stroke:#181818;stroke-width:1.0;"/><polygon fill="#181818" points="457.27,514.1499,467.0903,513.4009,461.6714,511.7776,463.2947,506.3587,457.27,514.1499" style="stroke:#181818;stroke-width:1.0;"/></g><!--link /reservation to /get--><g id="link_/reservation_/get"><path codeLine="31" d="M646.05,432.4799 C624.805,458.6659 599.8563,489.4155 578.6333,515.5735 " fill="none" id="/reservation-to-/get" style="stroke:#181818;stroke-width:1.0;"/><polygon fill="#181818" points="574.853,520.2329,583.6297,515.7641,578.0032,516.3501,577.4172,510.7237,574.853,520.2329" style="stroke:#181818;stroke-width:1.0;"/></g><!--link /get to /all--><g id="link_/get_/all"><path codeLine="38" d="M541.601,593.6899 C538.002,623.0529 533.6368,658.6644 529.8548,689.5284 " fill="none" id="/get-to-/all" style="stroke:#181818;stroke-width:1.0;"/><polygon fill="#181818" points="529.125,695.4839,534.19,687.0372,529.7331,690.521,526.2493,686.0642,529.125,695.4839" style="stroke:#181818;stroke-width:1.0;"/></g><!--link /get to /{id}--><g id="link_/get_/{id}"><path codeLine="45" d="M576.194,593.6899 C592.03,612.5149 608.2235,631.7655 627.4215,654.5865 " fill="none" id="/get-to-/{id}" style="stroke:#181818;stroke-width:1.0;"/><polygon fill="#181818" points="631.284,659.1779,628.5512,649.7158,628.0653,655.3517,622.4293,654.8657,631.284,659.1779" style="stroke:#181818;stroke-width:1.0;"/></g><!--link /reservation to /edit--><g id="link_/reservation_/edit"><path codeLine="51" d="M675,432.4799 C675,458.6659 675,488.0749 675,514.2329 " fill="none" id="/reservation-to-/edit" style="stroke:#181818;stroke-width:1.0;"/><polygon fill="#181818" points="675,520.2329,679,511.2329,675,515.2329,671,511.2329,675,520.2329" style="stroke:#181818;stroke-width:1.0;"/></g><!--link /edit to /{id}--><g id="link_/edit_/{id}"><path codeLine="58" d="M679.399,593.6899 C681.706,612.5149 683.8981,630.4014 686.6951,653.2224 " fill="none" id="/edit-to-/{id}" style="stroke:#181818;stroke-width:1.0;"/><polygon fill="#181818" points="687.425,659.1779,690.3004,649.7581,686.8167,654.215,682.3598,650.7313,687.425,659.1779" style="stroke:#181818;stroke-width:1.0;"/></g><!--link /reservation to /delete--><g id="link_/reservation_/delete"><path codeLine="64" d="M703.95,432.4799 C725.195,458.6659 750.1437,489.4155 771.3667,515.5735 " fill="none" id="/reservation-to-/delete" style="stroke:#181818;stroke-width:1.0;"/><polygon fill="#181818" points="775.147,520.2329,772.5828,510.7237,771.9968,516.3501,766.3703,515.7641,775.147,520.2329" style="stroke:#181818;stroke-width:1.0;"/></g><!--link /delete to /{id}--><g id="link_/delete_/{id}"><path codeLine="71" d="M782.604,593.6899 C771.383,612.5149 760.2432,631.2031 746.6392,654.0241 " fill="none" id="/delete-to-/{id}" style="stroke:#181818;stroke-width:1.0;"/><polygon fill="#181818" points="743.567,659.1779,751.6112,653.4954,746.1272,654.8831,744.7395,649.3991,743.567,659.1779" style="stroke:#181818;stroke-width:1.0;"/></g><!--link House Keeper to /accommodations--><g id="link_House Keeper_/accommodations"><path codeLine="77" d="M847.612,205.9349 C914.267,244.7419 1031.7147,313.1242 1105.6147,356.1462 " fill="none" id="House Keeper-to-/accommodations" style="stroke:#181818;stroke-width:1.0;"/><polygon fill="#181818" points="1110.8,359.1649,1105.0345,351.1799,1106.4789,356.6493,1101.0096,358.0937,1110.8,359.1649" style="stroke:#181818;stroke-width:1.0;"/></g><!--link /accommodations to add--><g id="link_/accommodations_add"><path codeLine="84" d="M1130.71,432.4799 C1102.73,456.6509 1070.2101,484.7592 1040.8601,510.1182 " fill="none" id="/accommodations-to-add" style="stroke:#181818;stroke-width:1.0;"/><polygon fill="#181818" points="1036.32,514.0409,1045.7453,511.1835,1040.1034,510.7719,1040.515,505.1301,1036.32,514.0409" style="stroke:#181818;stroke-width:1.0;"/></g><!--link /accommodations to get--><g id="link_/accommodations_get"><path codeLine="90" d="M1172,432.4799 C1172,458.6659 1172,488.0749 1172,514.2329 " fill="none" id="/accommodations-to-get" style="stroke:#181818;stroke-width:1.0;"/><polygon fill="#181818" points="1172,520.2329,1176,511.2329,1172,515.2329,1168,511.2329,1172,520.2329" style="stroke:#181818;stroke-width:1.0;"/></g><!--link get to all--><g id="link_get_all"><path codeLine="97" d="M1149.8,593.6899 C1131.65,623.0529 1109.095,659.5163 1090.015,690.3803 " fill="none" id="get-to-all" style="stroke:#181818;stroke-width:1.0;"/><polygon fill="#181818" points="1086.86,695.4839,1094.9948,689.9319,1089.4892,691.2309,1088.1901,685.7252,1086.86,695.4839" style="stroke:#181818;stroke-width:1.0;"/></g><!--link get to {id}--><g id="link_get_{id}"><path codeLine="104" d="M1180.52,593.6639 C1193,644.3059 1218.03,739.2929 1248,817.2969 C1255.54,836.9129 1261.8852,851.9043 1270.9752,871.5953 " fill="none" id="get-to-{id}" style="stroke:#181818;stroke-width:1.0;"/><polygon fill="#181818" points="1273.49,877.0429,1273.3496,867.195,1271.3944,872.5032,1266.0861,870.548,1273.49,877.0429" style="stroke:#181818;stroke-width:1.0;"/></g><!--link /accommodations to edit--><g id="link_/accommodations_edit"><path codeLine="110" d="M1205.66,432.4799 C1230.37,458.6659 1259.6524,489.7107 1284.3324,515.8687 " fill="none" id="/accommodations-to-edit" style="stroke:#181818;stroke-width:1.0;"/><polygon fill="#181818" points="1288.45,520.2329,1285.1831,510.9416,1285.0187,516.5961,1279.3642,516.4317,1288.45,520.2329" style="stroke:#181818;stroke-width:1.0;"/></g><!--link edit to {id}--><g id="link_edit_{id}"><path codeLine="117" d="M1296.93,593.5599 C1285.36,612.2239 1272.91,635.9839 1267,659.2969 C1249.74,727.3659 1254.55,748.1879 1267,817.2969 C1270.55,837.0229 1274.3087,851.7357 1280.8187,871.3357 " fill="none" id="edit-to-{id}" style="stroke:#181818;stroke-width:1.0;"/><polygon fill="#181818" points="1282.71,877.0299,1283.6692,867.2278,1281.1339,872.2848,1276.077,869.7495,1282.71,877.0299" style="stroke:#181818;stroke-width:1.0;"/></g><!--link edit to extra--><g id="link_edit_extra"><path codeLine="123" d="M1324,593.6899 C1325.75,625.0989 1327.947,664.4821 1329.687,695.7811 " fill="none" id="edit-to-extra" style="stroke:#181818;stroke-width:1.0;"/><polygon fill="#181818" points="1330.02,701.7719,1333.5143,692.5637,1329.7425,696.7796,1325.5266,693.0078,1330.02,701.7719" style="stroke:#181818;stroke-width:1.0;"/></g><!--link extra to {id}--><g id="link_extra_{id}"><path codeLine="130" d="M1332,774.9389 C1332,801.7869 1332,834.1899 1332,871.2389 " fill="none" id="extra-to-{id}" style="stroke:#181818;stroke-width:1.0;"/><polygon fill="#181818" points="1332,877.2389,1336,868.2389,1332,872.2389,1328,868.2389,1332,877.2389" style="stroke:#181818;stroke-width:1.0;"/></g><!--link edit to obs--><g id="link_edit_obs"><path codeLine="136" d="M1349.79,593.6899 C1374.12,625.0989 1405.5762,665.7292 1429.8162,697.0282 " fill="none" id="edit-to-obs" style="stroke:#181818;stroke-width:1.0;"/><polygon fill="#181818" points="1433.49,701.7719,1431.1417,692.2071,1430.4285,697.8188,1424.8168,697.1055,1433.49,701.7719" style="stroke:#181818;stroke-width:1.0;"/></g><!--link obs to {id}--><g id="link_obs_{id}"><path codeLine="143" d="M1442.79,774.9389 C1429.07,801.7869 1412.1788,834.8463 1393.2588,871.8953 " fill="none" id="obs-to-{id}" style="stroke:#181818;stroke-width:1.0;"/><polygon fill="#181818" points="1390.53,877.2389,1398.1856,871.0428,1392.804,872.7859,1391.0609,867.4043,1390.53,877.2389" style="stroke:#181818;stroke-width:1.0;"/></g><!--link /accommodations to delete--><g id="link_/accommodations_delete"><path codeLine="149" d="M1248.08,432.4799 C1314.26,463.5179 1402.6278,504.9682 1458.4678,531.1572 " fill="none" id="/accommodations-to-delete" style="stroke:#181818;stroke-width:1.0;"/><polygon fill="#181818" points="1463.9,533.7049,1457.4501,526.2618,1459.3731,531.5818,1454.0532,533.5048,1463.9,533.7049" style="stroke:#181818;stroke-width:1.0;"/></g><!--link delete to {id}--><g id="link_delete_{id}"><path codeLine="156" d="M1522.81,593.6369 C1537.76,645.4779 1557.86,743.2789 1525,817.2969 C1515.42,838.8689 1505.6329,854.364 1489.8829,872.591 " fill="none" id="delete-to-{id}" style="stroke:#181818;stroke-width:1.0;"/><polygon fill="#181818" points="1485.96,877.1309,1494.871,872.9363,1489.2291,873.3476,1488.8178,867.7058,1485.96,877.1309" style="stroke:#181818;stroke-width:1.0;"/></g><!--SRC=[fPRDRXiX58NtF0NAofKowWj4bXhdhwhKMdOsNLaORZqe321WqaQMtxqCZ3q_9ZPnLf47xZdVXHF0SIS0FwdQ0lu1eC7W0jzBDbTSkcT3w0iOXEmBbveOKc7hm81oRnfcjtvmOrGjsKm9PMvk36W35gGZZYivdU8xNZqQyfPPJZJtDGjWsNPMrOQ2Brfgm-NcqG38NZ4Ln5gyHUyu_GOXr5zqleqb5wz-5Ku1HAq8i4CeEb_rb_KAjxw7qQ-DYtaDBireJswBLYjSEgVnQjNeZPIAOZegxqG9OwV4jB9kqgkyU_xr9JWCQQ93ezKfRy2Tmqo9D6KzF25EYVZ9avOdsBKSlgYJs7AsEwUnw3Y-isF18D4f0kCNjHRgyi5qxIQSNUFayaU691u30Guk0Mmhyn5ZWQTigVRMIIv2gQegnOAblIJ28uM3T4w8l_LhktKSGmMZGP1pSfnK6IGvEyXTx0OnpadneCLzZZkzuNPaXJZPrp36EIaUWLtZz6RqCZrY_USCEGVRguxpyn69e-Knv7sZilJ_8vn2nnXH4f1gRJ-0sCp-BE2S6CU9I2zcm4bWPfuEoPqVdm-PnqCobuEZeaNK_iea6_2NUlzAjTxXGGa69kYtviDJ4H_VmrjK57EZ_F7XEDYYG6NG-4agG8JLmbb4IouOMfErdu1AOkVW_3UW_aaG_whQ8JAaNy0V_yQG5BgBUxm1EJ2omV1xjE_1Im6H_bMoz2MrHOhIMeUHziF1RHJB7BCGsbbh47_T-dTJ_6m84xrctWbLZiq7szdz1m00]--></g></svg>